<svg xmlns="http://www.w3.org/2000/svg" xmlns:xlink="http://www.w3.org/1999/xlink" viewBox="0 0 312 275.67">
  <defs>
    <style>
      .cls-1 {
        isolation: isolate;
      }

      .cls-2 {
        fill: url(#linear-gradient);
      }

      .cls-3 {
        fill: url(#linear-gradient-2);
      }

      .cls-4 {
        fill: url(#linear-gradient-3);
      }

      .cls-5 {
        fill: url(#linear-gradient-4);
      }

      .cls-6 {
        mix-blend-mode: overlay;
      }

      .cls-7 {
        fill: url(#linear-gradient-5);
      }

      .cls-8 {
        fill: url(#linear-gradient-6);
      }

      .cls-9 {
        fill: url(#linear-gradient-7);
      }

      .cls-10 {
        fill: url(#linear-gradient-8);
      }

      .cls-11 {
        fill: url(#linear-gradient-9);
      }

      .cls-12 {
        fill: url(#linear-gradient-10);
      }

      .cls-13 {
        fill: url(#linear-gradient-11);
      }

      .cls-14 {
        fill: url(#linear-gradient-12);
      }

      .cls-15 {
        fill: url(#linear-gradient-13);
      }

      .cls-16 {
        fill: url(#linear-gradient-14);
      }

      .cls-17 {
        fill: url(#linear-gradient-15);
      }

      .cls-18 {
        fill: url(#linear-gradient-16);
      }

      .cls-19 {
        mix-blend-mode: lighten;
      }

      .cls-20 {
        fill: #09f6ff;
      }
    </style>
    <linearGradient id="linear-gradient" x1="335.08" y1="345.65" x2="239.44" y2="143.34" gradientUnits="userSpaceOnUse">
      <stop offset="0" stop-color="#3d4aff"/>
      <stop offset="1" stop-color="#65d9ff"/>
    </linearGradient>
    <linearGradient id="linear-gradient-2" x1="238.46" y1="148.05" x2="211.66" y2="106.28" xlink:href="#linear-gradient"/>
    <linearGradient id="linear-gradient-3" x1="355.06" y1="299.49" x2="316.76" y2="218.46" xlink:href="#linear-gradient"/>
    <linearGradient id="linear-gradient-4" x1="343.36" y1="305.57" x2="119.7" y2="62.09" gradientUnits="userSpaceOnUse">
      <stop offset="0" stop-color="#4f24ff"/>
      <stop offset="1" stop-color="#13d9e2"/>
    </linearGradient>
    <linearGradient id="linear-gradient-5" x1="293.33" y1="369.87" x2="197.7" y2="167.56" xlink:href="#linear-gradient"/>
    <linearGradient id="linear-gradient-6" x1="196.71" y1="172.27" x2="169.91" y2="130.5" xlink:href="#linear-gradient"/>
    <linearGradient id="linear-gradient-7" x1="313.32" y1="323.71" x2="275.01" y2="242.68" xlink:href="#linear-gradient"/>
    <linearGradient id="linear-gradient-8" x1="301.61" y1="329.79" x2="77.95" y2="86.31" xlink:href="#linear-gradient-4"/>
    <linearGradient id="linear-gradient-9" x1="335.06" y1="345.66" x2="239.43" y2="143.35" xlink:href="#linear-gradient"/>
    <linearGradient id="linear-gradient-10" x1="238.44" y1="148.06" x2="211.64" y2="106.29" xlink:href="#linear-gradient"/>
    <linearGradient id="linear-gradient-11" x1="355.05" y1="299.5" x2="316.74" y2="218.47" xlink:href="#linear-gradient"/>
    <linearGradient id="linear-gradient-12" x1="343.34" y1="305.57" x2="119.68" y2="62.1" xlink:href="#linear-gradient-4"/>
    <linearGradient id="linear-gradient-13" x1="293.32" y1="369.88" x2="197.68" y2="167.57" xlink:href="#linear-gradient"/>
    <linearGradient id="linear-gradient-14" x1="196.7" y1="172.28" x2="169.89" y2="130.51" xlink:href="#linear-gradient"/>
    <linearGradient id="linear-gradient-15" x1="313.3" y1="323.72" x2="274.99" y2="242.69" xlink:href="#linear-gradient"/>
    <linearGradient id="linear-gradient-16" x1="301.59" y1="329.8" x2="77.94" y2="86.32" xlink:href="#linear-gradient-4"/>
  </defs>
  <title>cloud</title>
  <g class="cls-1">
    <g id="Calque_1" data-name="Calque 1">
      <g id="_3" data-name="3">
        <g id="_2" data-name="2">
          <g id="_Groupe_" data-name="&lt;Groupe&gt;">
            <g id="_Groupe_2" data-name="&lt;Groupe&gt;">
              <path id="_Tracé_" data-name="&lt;Tracé&gt;" class="cls-2" d="M187.58,115.74l-8-11.5L200,92a19.81,19.81,0,0,1,2.64-1.58l.45-.27,0,0c6.76-3.13,15.22-2.4,24.38,3.08a62,62,0,0,1,14.82,12.91L255.91,98a25.13,25.13,0,0,1,2.67-1.6l0,0h0c8.84-4.59,20.12-3.79,32.36,3.52,27.83,16.64,50,60.64,49.56,98.26a83.68,83.68,0,0,1-.63,9.37c15.19,14.17,26.28,39.53,26,61.71-.15,13-4.19,22.47-10.6,27.24h0a17.87,17.87,0,0,1-2.87,1.72l-20.27,12.12-18.71-20.57,1.14-3.38L198.9,219.25c-20.23-12.09-36.35-44.06-36-71.41C163.14,126.42,173.43,114.24,187.58,115.74Z" transform="translate(-53.92 -88.33)"/>
              <path id="_Tracé_2" data-name="&lt;Tracé&gt;" class="cls-3" d="M242.36,106.17a62,62,0,0,0-14.82-12.91c-9.16-5.48-17.62-6.21-24.38-3.08l0,0-.45.27A19.81,19.81,0,0,0,200,92l-20.46,12.24,6.45,9.28,36.26,10.68Z" transform="translate(-53.92 -88.33)"/>
              <path id="_Tracé_3" data-name="&lt;Tracé&gt;" class="cls-4" d="M352.43,298.2a17.17,17.17,0,0,0,2.87-1.72h0c6.41-4.77,10.45-14.22,10.6-27.23.27-22.18-10.82-47.55-26-61.72l-23.36,14,3.11,75,12.51,13.75Z" transform="translate(-53.92 -88.33)"/>
              <path id="_Tracé_4" data-name="&lt;Tracé&gt;" class="cls-5" d="M164.79,129.8c2.94-24.26,19.56-34.37,39.39-22.52,6.56,3.92,12.72,9.81,18.11,16.92,8.62-17,25.75-22,45.32-10.3,27.83,16.64,50,60.63,49.56,98.26a84,84,0,0,1-.63,9.37c15.19,14.17,26.28,39.53,26,61.71-.32,26.07-16.2,37.85-35.48,26.33l-131.53-76.3c-20.23-12.1-36.36-44.07-36-71.42C139.78,140.14,150.34,127.89,164.79,129.8Z" transform="translate(-53.92 -88.33)"/>
            </g>
            <g id="_Groupe_3" data-name="&lt;Groupe&gt;" class="cls-6">
              <path id="_Tracé_5" data-name="&lt;Tracé&gt;" class="cls-7" d="M145.84,140l-8-11.5,20.46-12.25a19.81,19.81,0,0,1,2.64-1.58l.46-.27,0,0c6.76-3.14,15.21-2.4,24.38,3.07a62,62,0,0,1,14.81,12.91l13.56-8.18a25.09,25.09,0,0,1,2.66-1.61l0,0h0c8.85-4.59,20.13-3.79,32.36,3.53,27.83,16.63,50,60.63,49.57,98.26a83.66,83.66,0,0,1-.63,9.36c15.18,14.17,26.28,39.54,26,61.72-.16,13-4.2,22.46-10.6,27.23h0a17.26,17.26,0,0,1-2.88,1.72l-20.26,12.12L271.7,314l1.14-3.38L157.16,243.47c-20.23-12.09-36.36-44.06-36-71.41C121.4,150.64,131.68,138.46,145.84,140Z" transform="translate(-53.92 -88.33)"/>
              <path id="_Tracé_6" data-name="&lt;Tracé&gt;" class="cls-8" d="M200.61,130.39a62,62,0,0,0-14.81-12.91c-9.17-5.47-17.62-6.21-24.38-3.07l0,0-.46.27a19.81,19.81,0,0,0-2.64,1.58l-20.46,12.25,6.46,9.27,36.26,10.68Z" transform="translate(-53.92 -88.33)"/>
              <path id="_Tracé_7" data-name="&lt;Tracé&gt;" class="cls-9" d="M310.68,322.42a17.26,17.26,0,0,0,2.88-1.72h0c6.4-4.77,10.44-14.23,10.6-27.24.27-22.18-10.83-47.54-26-61.72l-23.37,14,3.12,75,12.51,13.75Z" transform="translate(-53.92 -88.33)"/>
              <path id="_Tracé_8" data-name="&lt;Tracé&gt;" class="cls-10" d="M123.05,154c2.93-24.26,19.56-34.37,39.38-22.52,6.57,3.92,12.73,9.81,18.12,16.92,8.61-17,25.74-22,45.31-10.3,27.83,16.64,50,60.63,49.56,98.26a83.68,83.68,0,0,1-.63,9.37c15.19,14.17,26.28,39.53,26,61.71-.31,26.07-16.19,37.85-35.47,26.33l-131.54-76.3c-20.22-12.1-36.35-44.07-36-71.42C98,164.37,108.59,152.11,123.05,154Z" transform="translate(-53.92 -88.33)"/>
            </g>
          </g>
          <g id="_Groupe_4" data-name="&lt;Groupe&gt;">
            <g id="_Groupe_5" data-name="&lt;Groupe&gt;" class="cls-6">
              <path id="_Tracé_9" data-name="&lt;Tracé&gt;" class="cls-11" d="M187.57,115.75l-8-11.5L200,92a20.93,20.93,0,0,1,2.64-1.58l.45-.27,0,0c6.76-3.14,15.21-2.4,24.38,3.08a62,62,0,0,1,14.81,12.91L255.9,98a25.77,25.77,0,0,1,2.66-1.61l0,0h0c8.84-4.59,20.13-3.78,32.36,3.53,27.83,16.64,50,60.63,49.56,98.26a81.35,81.35,0,0,1-.63,9.36c15.19,14.18,26.28,39.54,26,61.72-.15,13-4.19,22.47-10.6,27.24h0a17.26,17.26,0,0,1-2.88,1.72l-20.26,12.12-18.72-20.56,1.14-3.39-115.69-67.1c-20.22-12.1-36.35-44.07-36-71.42C163.12,126.43,173.41,114.24,187.57,115.75Z" transform="translate(-53.92 -88.33)"/>
              <path id="_Tracé_10" data-name="&lt;Tracé&gt;" class="cls-12" d="M242.34,106.18a62,62,0,0,0-14.81-12.91c-9.17-5.48-17.62-6.22-24.38-3.08l0,0-.45.27A20.93,20.93,0,0,0,200,92l-20.46,12.25,6.45,9.27,36.27,10.68Z" transform="translate(-53.92 -88.33)"/>
              <path id="_Tracé_11" data-name="&lt;Tracé&gt;" class="cls-13" d="M352.41,298.21a18,18,0,0,0,2.88-1.73h0c6.41-4.77,10.45-14.22,10.6-27.24.27-22.18-10.82-47.54-26-61.71l-23.36,14,3.11,75,12.52,13.75Z" transform="translate(-53.92 -88.33)"/>
              <path id="_Tracé_12" data-name="&lt;Tracé&gt;" class="cls-14" d="M164.78,129.81c2.93-24.27,19.56-34.38,39.38-22.53,6.57,3.93,12.72,9.82,18.12,16.92,8.61-17,25.74-22,45.31-10.3,27.83,16.64,50,60.64,49.56,98.27a83.66,83.66,0,0,1-.63,9.36c15.19,14.17,26.28,39.54,26,61.72-.31,26.06-16.2,37.85-35.47,26.32l-131.54-76.3c-20.23-12.09-36.35-44.06-36-71.41C139.76,140.15,150.32,127.9,164.78,129.81Z" transform="translate(-53.92 -88.33)"/>
            </g>
            <g id="_Groupe_6" data-name="&lt;Groupe&gt;" class="cls-6">
              <path id="_Tracé_13" data-name="&lt;Tracé&gt;" class="cls-15" d="M145.82,140l-8-11.5,20.46-12.25a20.7,20.7,0,0,1,2.64-1.58l.45-.27,0,0c6.76-3.13,15.22-2.4,24.38,3.08A62,62,0,0,1,200.6,130.4l13.55-8.19a26.88,26.88,0,0,1,2.66-1.61l0,0h0c8.84-4.59,20.12-3.78,32.36,3.53,27.83,16.64,50,60.63,49.56,98.26a83.68,83.68,0,0,1-.63,9.37c15.19,14.17,26.28,39.53,26,61.71-.16,13-4.2,22.47-10.6,27.24h0a18.73,18.73,0,0,1-2.88,1.72L290.4,334.53,271.69,314l1.14-3.39-115.69-67.1c-20.23-12.1-36.36-44.07-36-71.42C121.38,150.65,131.66,138.46,145.82,140Z" transform="translate(-53.92 -88.33)"/>
              <path id="_Tracé_14" data-name="&lt;Tracé&gt;" class="cls-16" d="M200.6,130.4a62,62,0,0,0-14.82-12.91c-9.16-5.48-17.62-6.21-24.38-3.08l0,0-.45.27a20.7,20.7,0,0,0-2.64,1.58l-20.46,12.25,6.45,9.27,36.26,10.69Z" transform="translate(-53.92 -88.33)"/>
              <path id="_Tracé_15" data-name="&lt;Tracé&gt;" class="cls-17" d="M310.66,322.43a18.73,18.73,0,0,0,2.88-1.72h0c6.4-4.77,10.44-14.22,10.6-27.24.27-22.18-10.82-47.54-26-61.71l-23.36,14,3.11,75,12.51,13.74Z" transform="translate(-53.92 -88.33)"/>
              <path id="_Tracé_16" data-name="&lt;Tracé&gt;" class="cls-18" d="M123,154c2.94-24.27,19.56-34.38,39.39-22.52,6.56,3.92,12.72,9.81,18.11,16.92,8.61-17,25.74-22,45.31-10.3,27.83,16.63,50,60.63,49.57,98.26a83.59,83.59,0,0,1-.64,9.36c15.19,14.18,26.29,39.54,26,61.72-.32,26.06-16.2,37.85-35.48,26.32l-131.54-76.3c-20.22-12.09-36.35-44.06-36-71.41C98,164.37,108.57,152.12,123,154Z" transform="translate(-53.92 -88.33)"/>
            </g>
          </g>
        </g>
        <g id="_Groupe_7" data-name="&lt;Groupe&gt;" class="cls-19">
          <path id="_Tracé_transparent_" data-name="&lt;Tracé transparent&gt;" class="cls-20" d="M237.85,364c-4.83,0-10-1.59-15.3-4.73L91,283c-20.82-12.45-37.46-45.35-37.11-73.35.16-13,4-23.42,10.74-29.28a20.79,20.79,0,0,1,14.84-5.11C81.44,163,86.91,154.16,95,150.17c7.72-3.78,17.26-2.7,26.87,3a64.94,64.94,0,0,1,16.67,14.86c4.3-7,10.2-11.78,17.22-13.82,8.91-2.57,19.12-.65,29.54,5.58,28.39,17,51.1,61.91,50.63,100.18a84.89,84.89,0,0,1-.51,8.5c15.55,15,26.16,40.59,25.89,62.58-.17,14.55-5.16,25.64-13.69,30.4A19.79,19.79,0,0,1,237.85,364ZM78.54,179.63a16.46,16.46,0,0,0-11,4.05c-5.81,5-9.08,14.27-9.23,26-.32,26.6,15.35,57.78,34.95,69.5l131.51,76.28c7.68,4.59,15,5.37,20.74,2.18,7.11-4,11.28-13.69,11.44-26.63.26-21.23-10.15-45.93-25.32-60.08l-.82-.77.14-1.11a82.45,82.45,0,0,0,.62-9.12c.45-36.87-21.31-80.09-48.5-96.35-9.34-5.58-18.35-7.35-26.06-5.12-6.76,2-12.34,7-16.16,14.53l-1.59,3.14-2.12-2.8c-5.37-7.07-11.41-12.73-17.49-16.37-8.41-5-16.26-6-22.69-2.86-7.21,3.53-12,12-13.39,23.76l-.26,2.21-2.21-.29A18.8,18.8,0,0,0,78.54,179.63Z" transform="translate(-53.92 -88.33)"/>
        </g>
      </g>
    </g>
  </g>
</svg>
