<svg id="Calque_1" data-name="Calque 1" xmlns="http://www.w3.org/2000/svg" xmlns:xlink="http://www.w3.org/1999/xlink" viewBox="0 0 374.28 445.48"><defs><style>.cls-1{fill:url(#linear-gradient);}.cls-2{fill:url(#linear-gradient-2);}.cls-3{fill:url(#linear-gradient-3);}.cls-4{fill:#070311;}.cls-5{fill:url(#linear-gradient-4);}</style><linearGradient id="linear-gradient" x1="436.04" y1="304.38" x2="83.33" y2="304.38" gradientUnits="userSpaceOnUse"><stop offset="0" stop-color="#4f47ff"/><stop offset="1" stop-color="#13ffe2"/></linearGradient><linearGradient id="linear-gradient-2" x1="70.49" y1="133.07" x2="443.79" y2="133.07" xlink:href="#linear-gradient"/><linearGradient id="linear-gradient-3" x1="152.49" y1="133.07" x2="422.21" y2="133.07" xlink:href="#linear-gradient"/><linearGradient id="linear-gradient-4" x1="442.26" y1="355.59" x2="332.41" y2="355.59" xlink:href="#linear-gradient"/></defs><title>coffee</title><g id="_12" data-name="12"><g id="_Groupe_" data-name="&lt;Groupe&gt;"><g id="_Groupe_2" data-name="&lt;Groupe&gt;"><g id="_Groupe_3" data-name="&lt;Groupe&gt;"><path id="_Tracé_" data-name="&lt;Tracé&gt;" class="cls-1" d="M70,134.28l52.46,258.51c0,45.11,60.15,81.68,134.34,81.68s134.34-36.57,134.34-81.68l53.14-258.51Z" transform="translate(-70 -28.98)"/><path id="_Tracé_2" data-name="&lt;Tracé&gt;" class="cls-2" d="M443.07,142c-8.51,54.46-91.5,95.11-186,95.11S79.6,196.5,71.2,142C62,82.13,144.86,29,257.25,29S452.43,82.13,443.07,142Z" transform="translate(-70 -28.98)"/></g></g><path id="_Tracé_3" data-name="&lt;Tracé&gt;" class="cls-3" d="M402.6,139.2C396,176.36,331,204.11,257.06,204.11s-138.82-27.75-145.4-64.91C104.43,98.3,169.3,62,257.22,62S409.93,98.3,402.6,139.2Z" transform="translate(-70 -28.98)"/><path id="_Tracé_4" data-name="&lt;Tracé&gt;" class="cls-4" d="M131,168.27c24.86-20.83,71-35.2,126.27-35.2S358.5,147.4,383.33,168.2c-25.68,21.62-73.47,35.91-126.28,35.91S156.6,189.85,131,168.27Z" transform="translate(-70 -28.98)"/></g><g id="_Groupe_4" data-name="&lt;Groupe&gt;"><path id="_Tracé_5" data-name="&lt;Tracé&gt;" class="cls-5" d="M395.27,471.34c-14.85,0-31.28-7.37-49.09-22l-4.72-3.9a24.89,24.89,0,0,1-3.35-35h0A24.9,24.9,0,0,1,373.16,407l4.71,3.89a69.88,69.88,0,0,0,13.57,9.21,32.75,32.75,0,0,0,1-6.46l0-87.95a24.89,24.89,0,0,0-8.5-18.8c-6.09-5.34-21.83-14.43-32.08-20.09a25.09,25.09,0,0,1-11.06-31.21h0c5.48-13.66,21.61-19.83,34.57-12.86,26.29,14.14,66.88,41.72,66.88,75v96.82c-.2,7.27-2.45,40.78-29.32,53A42.11,42.11,0,0,1,395.27,471.34Z" transform="translate(-70 -28.98)"/></g></g></svg>