<svg id="Calque_1" data-name="Calque 1" xmlns="http://www.w3.org/2000/svg" xmlns:xlink="http://www.w3.org/1999/xlink" viewBox="0 0 336.71 470.23"><defs><style>.cls-1{fill:url(#linear-gradient);}.cls-2{fill:url(#linear-gradient-2);}.cls-3{fill:#623dc4;}.cls-4{fill:#efe1ee;}.cls-5{fill:url(#linear-gradient-3);}.cls-6{fill:url(#linear-gradient-4);}.cls-7{fill:url(#linear-gradient-5);}.cls-8{fill:url(#linear-gradient-6);}.cls-9{fill:url(#linear-gradient-7);}.cls-10{fill:url(#linear-gradient-8);}.cls-11{fill:url(#linear-gradient-9);}.cls-12{fill:url(#linear-gradient-10);}.cls-13{fill:url(#linear-gradient-11);}.cls-14{fill:url(#linear-gradient-12);}.cls-15{fill:url(#linear-gradient-13);}.cls-16{fill:url(#linear-gradient-14);}.cls-17{fill:url(#linear-gradient-15);}</style><linearGradient id="linear-gradient" x1="257.68" y1="417.49" x2="246.15" y2="417.49" gradientUnits="userSpaceOnUse"><stop offset="0" stop-color="#180097"/><stop offset="1" stop-color="#240ed6"/></linearGradient><linearGradient id="linear-gradient-2" x1="327.67" y1="545.75" x2="68.72" y2="265.27" gradientUnits="userSpaceOnUse"><stop offset="0" stop-color="#4f47ff"/><stop offset="1" stop-color="#13ffe2"/></linearGradient><linearGradient id="linear-gradient-3" x1="263.7" y1="342.09" x2="251.21" y2="342.09" gradientUnits="userSpaceOnUse"><stop offset="0" stop-color="#180092"/><stop offset="1" stop-color="#240ed6"/></linearGradient><linearGradient id="linear-gradient-4" x1="266.71" y1="333.95" x2="256.15" y2="350.9" gradientUnits="userSpaceOnUse"><stop offset="0" stop-color="#3d00e7"/><stop offset="1" stop-color="#6077ff"/></linearGradient><linearGradient id="linear-gradient-5" x1="300.55" y1="235.66" x2="287.13" y2="207.28" xlink:href="#linear-gradient-4"/><linearGradient id="linear-gradient-6" x1="365.88" y1="397.61" x2="183.52" y2="10.09" gradientUnits="userSpaceOnUse"><stop offset="0" stop-color="#09007f"/><stop offset="1" stop-color="#2472d6"/></linearGradient><linearGradient id="linear-gradient-7" x1="1114.68" y1="938.52" x2="365.1" y2="-48.83" gradientTransform="matrix(0.87, 0.5, 0.5, 1.44, -113.58, -59.34)" gradientUnits="userSpaceOnUse"><stop offset="0" stop-color="#6318ff"/><stop offset="1" stop-color="#fff6e2"/></linearGradient><linearGradient id="linear-gradient-8" x1="365.16" y1="329.83" x2="311.69" y2="273.93" gradientTransform="matrix(0.87, 0.5, 0, 1.15, -10.71, -269.73)" gradientUnits="userSpaceOnUse"><stop offset="0" stop-color="#3124ff"/><stop offset="1" stop-color="#00ffe2"/></linearGradient><linearGradient id="linear-gradient-9" x1="335.97" y1="332.96" x2="289.45" y2="284.33" xlink:href="#linear-gradient-8"/><linearGradient id="linear-gradient-10" x1="305.49" y1="336.74" x2="267.65" y2="297.18" xlink:href="#linear-gradient-8"/><linearGradient id="linear-gradient-11" x1="285.76" y1="332.55" x2="237.51" y2="282.1" xlink:href="#linear-gradient-8"/><linearGradient id="linear-gradient-12" x1="254.32" y1="337.11" x2="216.48" y2="297.55" xlink:href="#linear-gradient-8"/><linearGradient id="linear-gradient-13" x1="222.21" y1="342.57" x2="196.53" y2="315.71" xlink:href="#linear-gradient-8"/><linearGradient id="linear-gradient-14" x1="204.35" y1="336.27" x2="164.78" y2="294.89" xlink:href="#linear-gradient-8"/><linearGradient id="linear-gradient-15" x1="186.57" y1="330.53" x2="133.1" y2="274.63" xlink:href="#linear-gradient-8"/></defs><title>computer</title><g id="_11" data-name="11"><g id="_Groupe_" data-name="&lt;Groupe&gt;"><g id="_Groupe_2" data-name="&lt;Groupe&gt;"><path id="_Tracé_" data-name="&lt;Tracé&gt;" class="cls-1" d="M331.12,437.85h0v-5.28l-24.75,4.25-157-90.27a6.62,6.62,0,0,0-5.94.25l-67,38.85-5.73-1.28v5.51a2.25,2.25,0,0,0,0,.26h0a1.74,1.74,0,0,0,1,1.43l168.36,96.83a6.61,6.61,0,0,0,5.94-.25l83.6-48.36A2.42,2.42,0,0,0,331.12,437.85Z" transform="translate(-70.75 -18.77)"/><path id="_Tracé_2" data-name="&lt;Tracé&gt;" class="cls-2" d="M240.14,482.92,71.78,386.09c-1.53-.88-1.34-2.41.42-3.43l83.6-48.35a6.62,6.62,0,0,1,5.94-.26l168.37,96.83c1.52.88,1.33,2.41-.43,3.43l-83.6,48.36A6.65,6.65,0,0,1,240.14,482.92Z" transform="translate(-70.75 -18.77)"/><g id="_Groupe_3" data-name="&lt;Groupe&gt;"><g id="_Groupe_4" data-name="&lt;Groupe&gt;"><path id="_Tracé_3" data-name="&lt;Tracé&gt;" class="cls-3" d="M143.83,355.77,139.07,353c-1.2-.69-1-1.9.33-2.7l1.93-1.11A5.19,5.19,0,0,1,146,349l4.76,2.74c1.2.69,1.05,1.9-.33,2.7l-1.93,1.11A5.19,5.19,0,0,1,143.83,355.77Z" transform="translate(-70.75 -18.77)"/><path id="_Tracé_4" data-name="&lt;Tracé&gt;" class="cls-3" d="M155.69,362.6l-4.76-2.74c-1.2-.69-1.05-1.9.33-2.7l1.93-1.11a5.19,5.19,0,0,1,4.67-.2l4.76,2.74c1.2.69,1,1.9-.33,2.7l-1.93,1.11A5.19,5.19,0,0,1,155.69,362.6Z" transform="translate(-70.75 -18.77)"/><path id="_Tracé_5" data-name="&lt;Tracé&gt;" class="cls-3" d="M167.55,369.43l-4.76-2.74c-1.2-.69-1-1.9.33-2.69l1.93-1.12a5.19,5.19,0,0,1,4.67-.2l4.76,2.74c1.2.69,1.05,1.9-.33,2.7l-1.93,1.11A5.19,5.19,0,0,1,167.55,369.43Z" transform="translate(-70.75 -18.77)"/><path id="_Tracé_6" data-name="&lt;Tracé&gt;" class="cls-3" d="M179.41,376.26l-4.76-2.74c-1.2-.69-1.05-1.9.33-2.69l1.93-1.12a5.19,5.19,0,0,1,4.67-.2l4.76,2.74c1.2.69,1,1.9-.33,2.7l-1.93,1.12A5.22,5.22,0,0,1,179.41,376.26Z" transform="translate(-70.75 -18.77)"/><path id="_Tracé_7" data-name="&lt;Tracé&gt;" class="cls-3" d="M191.27,383.09l-4.76-2.74c-1.2-.69-1-1.89.33-2.69l1.93-1.12a5.19,5.19,0,0,1,4.67-.2l4.76,2.74c1.2.69,1.05,1.9-.33,2.7l-1.93,1.12A5.22,5.22,0,0,1,191.27,383.09Z" transform="translate(-70.75 -18.77)"/><path id="_Tracé_8" data-name="&lt;Tracé&gt;" class="cls-3" d="M203.13,389.92l-4.76-2.74c-1.2-.69-1.05-1.89.33-2.69l1.93-1.12a5.19,5.19,0,0,1,4.67-.2l4.76,2.74c1.2.69,1.05,1.9-.33,2.7l-1.93,1.12A5.19,5.19,0,0,1,203.13,389.92Z" transform="translate(-70.75 -18.77)"/><path id="_Tracé_9" data-name="&lt;Tracé&gt;" class="cls-3" d="M215,396.76,210.23,394c-1.2-.69-1-1.89.33-2.69l1.93-1.12a5.19,5.19,0,0,1,4.67-.2l4.76,2.74c1.2.69,1.05,1.9-.33,2.7l-1.93,1.12A5.22,5.22,0,0,1,215,396.76Z" transform="translate(-70.75 -18.77)"/><path id="_Tracé_10" data-name="&lt;Tracé&gt;" class="cls-3" d="M226.85,403.59l-4.77-2.75c-1.19-.69-1-1.89.34-2.69l1.93-1.12a5.19,5.19,0,0,1,4.67-.2l4.76,2.74c1.2.69,1.05,1.9-.33,2.7l-1.94,1.12A5.17,5.17,0,0,1,226.85,403.59Z" transform="translate(-70.75 -18.77)"/><path id="_Tracé_11" data-name="&lt;Tracé&gt;" class="cls-3" d="M238.7,410.42l-4.76-2.75c-1.19-.69-1-1.89.34-2.69l1.93-1.12a5.19,5.19,0,0,1,4.67-.2l4.76,2.74c1.19.69,1.05,1.9-.34,2.7l-1.93,1.12A5.19,5.19,0,0,1,238.7,410.42Z" transform="translate(-70.75 -18.77)"/><path id="_Tracé_12" data-name="&lt;Tracé&gt;" class="cls-3" d="M250.56,417.25l-4.76-2.75c-1.2-.69-1.05-1.89.33-2.69l1.94-1.12a5.19,5.19,0,0,1,4.67-.2l4.76,2.74c1.19.69,1.05,1.9-.34,2.7l-1.93,1.12A5.19,5.19,0,0,1,250.56,417.25Z" transform="translate(-70.75 -18.77)"/><path id="_Tracé_13" data-name="&lt;Tracé&gt;" class="cls-3" d="M262.79,424.29,258,421.54c-1.19-.69-1-1.89.34-2.69l1.93-1.12a5.19,5.19,0,0,1,4.67-.2l4.76,2.74c1.2.69,1,1.9-.33,2.7l-1.94,1.12A5.17,5.17,0,0,1,262.79,424.29Z" transform="translate(-70.75 -18.77)"/><path id="_Tracé_14" data-name="&lt;Tracé&gt;" class="cls-3" d="M274.64,431.12l-4.76-2.75c-1.19-.69-1.05-1.89.34-2.69l1.93-1.12a5.19,5.19,0,0,1,4.67-.2l4.76,2.74c1.19.69,1.05,1.9-.34,2.7l-1.93,1.12A5.19,5.19,0,0,1,274.64,431.12Z" transform="translate(-70.75 -18.77)"/><path id="_Tracé_15" data-name="&lt;Tracé&gt;" class="cls-3" d="M286.5,438l-4.76-2.75c-1.2-.69-1.05-1.89.33-2.69l1.94-1.12a5.17,5.17,0,0,1,4.66-.2l4.77,2.75c1.19.68,1,1.89-.34,2.69l-1.93,1.12A5.19,5.19,0,0,1,286.5,438Z" transform="translate(-70.75 -18.77)"/><path id="_Tracé_16" data-name="&lt;Tracé&gt;" class="cls-3" d="M298.36,444.78,293.6,442c-1.2-.68-1.05-1.89.33-2.69l1.94-1.12a5.17,5.17,0,0,1,4.66-.2l4.77,2.75c1.19.68,1,1.89-.34,2.69L303,444.58A5.19,5.19,0,0,1,298.36,444.78Z" transform="translate(-70.75 -18.77)"/><g id="_Groupe_5" data-name="&lt;Groupe&gt;"><path id="_Tracé_17" data-name="&lt;Tracé&gt;" class="cls-3" d="M130.2,363.8l-5-2.88c-1.2-.69-1-1.9.33-2.7l5.77-3.34a5.19,5.19,0,0,1,4.67-.2l5,2.88c1.19.69,1,1.9-.34,2.7l-5.77,3.34A5.19,5.19,0,0,1,130.2,363.8Z" transform="translate(-70.75 -18.77)"/><path id="_Tracé_18" data-name="&lt;Tracé&gt;" class="cls-3" d="M142.06,370.63l-5-2.88c-1.2-.69-1.05-1.9.33-2.7l5.77-3.34a5.19,5.19,0,0,1,4.67-.2l5,2.89c1.2.68,1,1.89-.33,2.69l-5.77,3.34A5.19,5.19,0,0,1,142.06,370.63Z" transform="translate(-70.75 -18.77)"/><path id="_Tracé_19" data-name="&lt;Tracé&gt;" class="cls-3" d="M154,377.53l-5-2.88c-1.2-.69-1-1.9.33-2.7l5.77-3.34a5.19,5.19,0,0,1,4.67-.2l5,2.89c1.2.68,1.05,1.89-.33,2.69l-5.77,3.34A5.19,5.19,0,0,1,154,377.53Z" transform="translate(-70.75 -18.77)"/><path id="_Tracé_20" data-name="&lt;Tracé&gt;" class="cls-3" d="M165.9,384.36l-5-2.88c-1.2-.69-1.05-1.9.33-2.7l5.77-3.34a5.19,5.19,0,0,1,4.67-.2l5,2.89c1.2.69,1.05,1.89-.33,2.69l-5.77,3.34A5.19,5.19,0,0,1,165.9,384.36Z" transform="translate(-70.75 -18.77)"/><path id="_Tracé_21" data-name="&lt;Tracé&gt;" class="cls-3" d="M177.76,391.19l-5-2.88c-1.2-.69-1-1.9.33-2.7l5.77-3.34a5.22,5.22,0,0,1,4.67-.2l5,2.89c1.2.69,1.05,1.89-.33,2.69L182.43,391A5.19,5.19,0,0,1,177.76,391.19Z" transform="translate(-70.75 -18.77)"/><path id="_Tracé_22" data-name="&lt;Tracé&gt;" class="cls-3" d="M189.74,398.09l-5-2.88c-1.2-.69-1.05-1.9.33-2.7l5.77-3.34a5.19,5.19,0,0,1,4.67-.2l5,2.89c1.2.69,1.05,1.89-.33,2.69l-5.77,3.34A5.19,5.19,0,0,1,189.74,398.09Z" transform="translate(-70.75 -18.77)"/><path id="_Tracé_23" data-name="&lt;Tracé&gt;" class="cls-3" d="M201.6,404.92l-5-2.88c-1.2-.69-1-1.9.33-2.7L202.7,396a5.19,5.19,0,0,1,4.67-.19l5,2.88c1.2.69,1,1.89-.33,2.69l-5.77,3.34A5.19,5.19,0,0,1,201.6,404.92Z" transform="translate(-70.75 -18.77)"/><path id="_Tracé_24" data-name="&lt;Tracé&gt;" class="cls-3" d="M213.58,411.82l-5-2.88c-1.2-.69-1.05-1.9.33-2.7l5.77-3.34a5.19,5.19,0,0,1,4.67-.19l5,2.88c1.2.69,1.05,1.89-.33,2.69l-5.77,3.34A5.19,5.19,0,0,1,213.58,411.82Z" transform="translate(-70.75 -18.77)"/><path id="_Tracé_25" data-name="&lt;Tracé&gt;" class="cls-3" d="M225.44,418.65l-5-2.88c-1.2-.69-1.05-1.9.33-2.7l5.77-3.34a5.19,5.19,0,0,1,4.67-.19l5,2.88c1.2.69,1,1.89-.33,2.69l-5.77,3.34A5.19,5.19,0,0,1,225.44,418.65Z" transform="translate(-70.75 -18.77)"/><path id="_Tracé_26" data-name="&lt;Tracé&gt;" class="cls-3" d="M237.3,425.48l-5-2.88c-1.2-.69-1.05-1.9.33-2.7l5.77-3.34a5.22,5.22,0,0,1,4.67-.19l5,2.88c1.2.69,1.05,1.89-.33,2.69L242,425.28A5.19,5.19,0,0,1,237.3,425.48Z" transform="translate(-70.75 -18.77)"/><path id="_Tracé_27" data-name="&lt;Tracé&gt;" class="cls-3" d="M249.28,432.38l-5-2.88c-1.2-.69-1.05-1.9.33-2.7l5.77-3.34a5.22,5.22,0,0,1,4.67-.19l5,2.88c1.2.69,1.05,1.89-.33,2.69L254,432.18A5.19,5.19,0,0,1,249.28,432.38Z" transform="translate(-70.75 -18.77)"/><path id="_Tracé_28" data-name="&lt;Tracé&gt;" class="cls-3" d="M261.14,439.21l-5-2.88c-1.19-.69-1-1.9.34-2.7l5.77-3.33a5.19,5.19,0,0,1,4.67-.2l5,2.88c1.2.69,1,1.9-.33,2.69L265.81,439A5.19,5.19,0,0,1,261.14,439.21Z" transform="translate(-70.75 -18.77)"/><path id="_Tracé_29" data-name="&lt;Tracé&gt;" class="cls-3" d="M273,446l-5-2.88c-1.19-.69-1-1.9.34-2.69l5.77-3.34a5.19,5.19,0,0,1,4.67-.2l5,2.88c1.2.69,1.05,1.9-.33,2.69l-5.77,3.34A5.19,5.19,0,0,1,273,446Z" transform="translate(-70.75 -18.77)"/><path id="_Tracé_30" data-name="&lt;Tracé&gt;" class="cls-3" d="M285,452.94l-5-2.88c-1.19-.69-1-1.9.34-2.69l5.77-3.34a5.19,5.19,0,0,1,4.67-.2l5,2.88c1.2.69,1.05,1.9-.33,2.7l-5.77,3.33A5.19,5.19,0,0,1,285,452.94Z" transform="translate(-70.75 -18.77)"/></g><g id="_Groupe_6" data-name="&lt;Groupe&gt;"><path id="_Tracé_31" data-name="&lt;Tracé&gt;" class="cls-3" d="M116.52,371.91l-5-2.89c-1.19-.69-1-1.89.34-2.69l5.77-3.34a5.19,5.19,0,0,1,4.67-.2l5,2.88c1.2.69,1,1.9-.33,2.7l-5.77,3.34A5.19,5.19,0,0,1,116.52,371.91Z" transform="translate(-70.75 -18.77)"/><path id="_Tracé_32" data-name="&lt;Tracé&gt;" class="cls-3" d="M128.38,378.74l-5-2.89c-1.19-.69-1-1.89.34-2.69l5.77-3.34a5.19,5.19,0,0,1,4.67-.2l5,2.88c1.2.69,1,1.9-.33,2.7l-5.77,3.34A5.19,5.19,0,0,1,128.38,378.74Z" transform="translate(-70.75 -18.77)"/><path id="_Tracé_33" data-name="&lt;Tracé&gt;" class="cls-3" d="M140.36,385.64l-5-2.89c-1.19-.69-1-1.89.34-2.69l5.77-3.34a5.19,5.19,0,0,1,4.67-.2l5,2.88c1.2.69,1.05,1.9-.33,2.7L145,385.44A5.19,5.19,0,0,1,140.36,385.64Z" transform="translate(-70.75 -18.77)"/><path id="_Tracé_34" data-name="&lt;Tracé&gt;" class="cls-3" d="M152.22,392.47l-5-2.89c-1.19-.68-1.05-1.89.34-2.69l5.77-3.34a5.17,5.17,0,0,1,4.66-.2l5,2.88c1.19.69,1,1.9-.34,2.7l-5.77,3.34A5.17,5.17,0,0,1,152.22,392.47Z" transform="translate(-70.75 -18.77)"/><path id="_Tracé_35" data-name="&lt;Tracé&gt;" class="cls-3" d="M164.08,399.3l-5-2.88c-1.19-.69-1-1.9.33-2.7l5.77-3.34a5.19,5.19,0,0,1,4.67-.2l5,2.88c1.19.69,1,1.9-.34,2.7l-5.77,3.34A5.17,5.17,0,0,1,164.08,399.3Z" transform="translate(-70.75 -18.77)"/><path id="_Tracé_36" data-name="&lt;Tracé&gt;" class="cls-3" d="M176.05,406.2l-5-2.88c-1.2-.69-1.05-1.9.33-2.7l5.77-3.34a5.19,5.19,0,0,1,4.67-.2l5,2.88c1.19.69,1,1.9-.34,2.7L180.72,406A5.19,5.19,0,0,1,176.05,406.2Z" transform="translate(-70.75 -18.77)"/><path id="_Tracé_37" data-name="&lt;Tracé&gt;" class="cls-3" d="M187.91,413l-5-2.88c-1.2-.69-1-1.9.33-2.7l5.77-3.34a5.19,5.19,0,0,1,4.67-.2l5,2.88c1.19.69,1,1.9-.34,2.7l-5.77,3.34A5.19,5.19,0,0,1,187.91,413Z" transform="translate(-70.75 -18.77)"/><path id="_Tracé_38" data-name="&lt;Tracé&gt;" class="cls-3" d="M199.89,419.93l-5-2.88c-1.2-.69-1-1.9.33-2.7L201,411a5.19,5.19,0,0,1,4.67-.2l5,2.88c1.19.69,1,1.9-.34,2.7l-5.77,3.34A5.19,5.19,0,0,1,199.89,419.93Z" transform="translate(-70.75 -18.77)"/><path id="_Tracé_39" data-name="&lt;Tracé&gt;" class="cls-3" d="M211.75,426.76l-5-2.88c-1.2-.69-1.05-1.9.33-2.7l5.77-3.34a5.19,5.19,0,0,1,4.67-.2l5,2.88c1.2.69,1,1.9-.33,2.7l-5.77,3.34A5.19,5.19,0,0,1,211.75,426.76Z" transform="translate(-70.75 -18.77)"/><path id="_Tracé_40" data-name="&lt;Tracé&gt;" class="cls-3" d="M223.61,433.59l-5-2.88c-1.2-.69-1.05-1.9.33-2.7l5.77-3.34a5.19,5.19,0,0,1,4.67-.2l5,2.89c1.2.69,1.05,1.89-.33,2.69l-5.77,3.34A5.19,5.19,0,0,1,223.61,433.59Z" transform="translate(-70.75 -18.77)"/><path id="_Tracé_41" data-name="&lt;Tracé&gt;" class="cls-3" d="M235.59,440.49l-5-2.88c-1.2-.69-1.05-1.9.33-2.7l5.77-3.34a5.19,5.19,0,0,1,4.67-.2l5,2.89c1.2.69,1,1.89-.33,2.69l-5.77,3.34A5.19,5.19,0,0,1,235.59,440.49Z" transform="translate(-70.75 -18.77)"/><path id="_Tracé_42" data-name="&lt;Tracé&gt;" class="cls-3" d="M247.45,447.32l-5-2.88c-1.2-.69-1-1.9.33-2.7l5.77-3.34a5.22,5.22,0,0,1,4.67-.2l5,2.89c1.2.69,1,1.89-.33,2.69l-5.77,3.34A5.19,5.19,0,0,1,247.45,447.32Z" transform="translate(-70.75 -18.77)"/><path id="_Tracé_43" data-name="&lt;Tracé&gt;" class="cls-3" d="M259.31,454.15l-5-2.88c-1.2-.69-1.05-1.9.33-2.7l5.77-3.34a5.19,5.19,0,0,1,4.67-.19l5,2.88c1.2.69,1.05,1.89-.33,2.69L264,454A5.19,5.19,0,0,1,259.31,454.15Z" transform="translate(-70.75 -18.77)"/><path id="_Tracé_44" data-name="&lt;Tracé&gt;" class="cls-3" d="M271.29,461.05l-5-2.88c-1.2-.69-1.05-1.9.33-2.7l5.77-3.34a5.19,5.19,0,0,1,4.67-.19l5,2.88c1.2.69,1.05,1.89-.33,2.69L276,460.85A5.19,5.19,0,0,1,271.29,461.05Z" transform="translate(-70.75 -18.77)"/></g><g id="_Groupe_7" data-name="&lt;Groupe&gt;"><path id="_Tracé_45" data-name="&lt;Tracé&gt;" class="cls-3" d="M114,386.75l-16.74-9.64c-1.2-.69-1-1.89.33-2.69l5.77-3.34a5.19,5.19,0,0,1,4.67-.2l16.74,9.64c1.2.69,1,1.9-.33,2.7l-5.77,3.34A5.19,5.19,0,0,1,114,386.75Z" transform="translate(-70.75 -18.77)"/><path id="_Tracé_46" data-name="&lt;Tracé&gt;" class="cls-3" d="M126.06,393.72l-5-2.88c-1.2-.69-1-1.89.33-2.69l5.77-3.34a5.19,5.19,0,0,1,4.67-.2l5,2.88c1.2.69,1,1.9-.33,2.7l-5.77,3.34A5.22,5.22,0,0,1,126.06,393.72Z" transform="translate(-70.75 -18.77)"/><path id="_Tracé_47" data-name="&lt;Tracé&gt;" class="cls-3" d="M137.92,400.55l-5-2.88c-1.19-.69-1-1.89.34-2.69l5.77-3.34a5.19,5.19,0,0,1,4.67-.2l5,2.88c1.2.69,1.05,1.9-.33,2.7l-5.77,3.34A5.19,5.19,0,0,1,137.92,400.55Z" transform="translate(-70.75 -18.77)"/><path id="_Tracé_48" data-name="&lt;Tracé&gt;" class="cls-3" d="M149.78,407.39l-5-2.89c-1.19-.69-1-1.89.34-2.69l5.77-3.34a5.17,5.17,0,0,1,4.66-.2l5,2.88c1.2.69,1,1.9-.33,2.7l-5.77,3.34A5.19,5.19,0,0,1,149.78,407.39Z" transform="translate(-70.75 -18.77)"/><path id="_Tracé_49" data-name="&lt;Tracé&gt;" class="cls-3" d="M161.76,414.29l-5-2.89c-1.19-.69-1-1.89.34-2.69l5.77-3.34a5.17,5.17,0,0,1,4.66-.2l5,2.88c1.2.69,1.05,1.9-.33,2.7l-5.77,3.34A5.19,5.19,0,0,1,161.76,414.29Z" transform="translate(-70.75 -18.77)"/><path id="_Tracé_50" data-name="&lt;Tracé&gt;" class="cls-3" d="M173.62,421.12l-5-2.89c-1.19-.69-1.05-1.89.34-2.69l5.77-3.34a5.17,5.17,0,0,1,4.66-.2l5,2.88c1.19.69,1.05,1.9-.34,2.7l-5.77,3.34A5.17,5.17,0,0,1,173.62,421.12Z" transform="translate(-70.75 -18.77)"/><path id="_Tracé_51" data-name="&lt;Tracé&gt;" class="cls-3" d="M185.6,428l-5-2.89c-1.19-.69-1.05-1.89.34-2.69l5.77-3.34a5.17,5.17,0,0,1,4.66-.2l5,2.88c1.19.69,1,1.9-.34,2.7l-5.77,3.34A5.17,5.17,0,0,1,185.6,428Z" transform="translate(-70.75 -18.77)"/><path id="_Tracé_52" data-name="&lt;Tracé&gt;" class="cls-3" d="M197.45,434.85l-5-2.89c-1.2-.68-1-1.89.33-2.69l5.77-3.34a5.19,5.19,0,0,1,4.67-.2l5,2.88c1.19.69,1,1.9-.34,2.7l-5.77,3.34A5.19,5.19,0,0,1,197.45,434.85Z" transform="translate(-70.75 -18.77)"/><path id="_Tracé_53" data-name="&lt;Tracé&gt;" class="cls-3" d="M209.31,441.68l-5-2.88c-1.2-.69-1.05-1.9.33-2.7l5.77-3.34a5.19,5.19,0,0,1,4.67-.2l5,2.88c1.2.69,1,1.9-.33,2.7L214,441.48A5.19,5.19,0,0,1,209.31,441.68Z" transform="translate(-70.75 -18.77)"/><path id="_Tracé_54" data-name="&lt;Tracé&gt;" class="cls-3" d="M221.29,448.58l-5-2.88c-1.2-.69-1-1.9.33-2.7l5.77-3.34a5.19,5.19,0,0,1,4.67-.2l5,2.88c1.19.69,1,1.9-.34,2.7L226,448.38A5.19,5.19,0,0,1,221.29,448.58Z" transform="translate(-70.75 -18.77)"/><path id="_Tracé_55" data-name="&lt;Tracé&gt;" class="cls-3" d="M233.15,455.41l-5-2.88c-1.2-.69-1.05-1.9.33-2.7l5.77-3.34a5.19,5.19,0,0,1,4.67-.2l5,2.88c1.2.69,1.05,1.9-.33,2.7l-5.77,3.34A5.19,5.19,0,0,1,233.15,455.41Z" transform="translate(-70.75 -18.77)"/><path id="_Tracé_56" data-name="&lt;Tracé&gt;" class="cls-3" d="M245,462.24l-5-2.88c-1.2-.69-1-1.9.33-2.7l5.77-3.34a5.19,5.19,0,0,1,4.67-.2l5,2.88c1.2.69,1,1.9-.33,2.7L249.68,462A5.19,5.19,0,0,1,245,462.24Z" transform="translate(-70.75 -18.77)"/><path id="_Tracé_57" data-name="&lt;Tracé&gt;" class="cls-3" d="M243.14,477.15l-5-2.88c-1.2-.69-1-1.9.33-2.69l19.62-11.36a5.19,5.19,0,0,1,4.67-.2l5,2.89c1.2.68,1.05,1.89-.33,2.69L247.81,477A5.19,5.19,0,0,1,243.14,477.15Z" transform="translate(-70.75 -18.77)"/></g><g id="_Groupe_8" data-name="&lt;Groupe&gt;"><path id="_Tracé_58" data-name="&lt;Tracé&gt;" class="cls-3" d="M88.37,388l-5-2.88c-1.2-.69-1.05-1.9.33-2.7l5.77-3.34a5.19,5.19,0,0,1,4.67-.2l5,2.88c1.2.69,1,1.9-.33,2.7L93,387.81A5.19,5.19,0,0,1,88.37,388Z" transform="translate(-70.75 -18.77)"/><path id="_Tracé_59" data-name="&lt;Tracé&gt;" class="cls-3" d="M100.23,394.84l-5-2.88c-1.2-.69-1-1.9.33-2.7l5.77-3.34a5.19,5.19,0,0,1,4.67-.2l5,2.89c1.2.68,1,1.89-.33,2.69l-5.77,3.34A5.19,5.19,0,0,1,100.23,394.84Z" transform="translate(-70.75 -18.77)"/><path id="_Tracé_60" data-name="&lt;Tracé&gt;" class="cls-3" d="M112.21,401.74l-5-2.88c-1.2-.69-1-1.9.33-2.7l5.77-3.34a5.19,5.19,0,0,1,4.67-.2l5,2.89c1.2.69,1,1.89-.33,2.69l-5.77,3.34A5.19,5.19,0,0,1,112.21,401.74Z" transform="translate(-70.75 -18.77)"/><path id="_Tracé_61" data-name="&lt;Tracé&gt;" class="cls-3" d="M124.07,408.57l-5-2.88c-1.2-.69-1-1.9.33-2.7l5.77-3.34a5.19,5.19,0,0,1,4.67-.2l5,2.89c1.2.69,1,1.89-.33,2.69l-5.77,3.34A5.19,5.19,0,0,1,124.07,408.57Z" transform="translate(-70.75 -18.77)"/><path id="_Tracé_62" data-name="&lt;Tracé&gt;" class="cls-3" d="M171.75,436l-40.82-23.51c-1.2-.69-1.05-1.9.33-2.7l5.77-3.34a5.19,5.19,0,0,1,4.67-.2l40.82,23.52c1.2.69,1,1.89-.33,2.69l-5.77,3.34A5.19,5.19,0,0,1,171.75,436Z" transform="translate(-70.75 -18.77)"/><path id="_Tracé_63" data-name="&lt;Tracé&gt;" class="cls-3" d="M183.61,442.86l-5-2.88c-1.19-.69-1-1.9.34-2.7l5.77-3.34a5.2,5.2,0,0,1,4.66-.19l5,2.88c1.19.69,1.05,1.89-.33,2.69l-5.77,3.34A5.19,5.19,0,0,1,183.61,442.86Z" transform="translate(-70.75 -18.77)"/><path id="_Tracé_64" data-name="&lt;Tracé&gt;" class="cls-3" d="M195.47,449.69l-5-2.88c-1.19-.69-1.05-1.9.34-2.7l5.77-3.34a5.2,5.2,0,0,1,4.66-.19l5,2.88c1.19.69,1,1.89-.34,2.69l-5.77,3.34A5.17,5.17,0,0,1,195.47,449.69Z" transform="translate(-70.75 -18.77)"/><path id="_Tracé_65" data-name="&lt;Tracé&gt;" class="cls-3" d="M207.45,456.59l-5-2.88c-1.19-.69-1.05-1.9.34-2.7l5.77-3.34a5.2,5.2,0,0,1,4.66-.19l5,2.88c1.19.69,1.05,1.89-.34,2.69l-5.77,3.34A5.17,5.17,0,0,1,207.45,456.59Z" transform="translate(-70.75 -18.77)"/><path id="_Tracé_66" data-name="&lt;Tracé&gt;" class="cls-3" d="M219.3,463.42l-5-2.88c-1.2-.69-1.05-1.9.33-2.7l5.77-3.33a5.19,5.19,0,0,1,4.67-.2l5,2.88c1.19.69,1,1.9-.34,2.69L224,463.22A5.19,5.19,0,0,1,219.3,463.42Z" transform="translate(-70.75 -18.77)"/><path id="_Tracé_67" data-name="&lt;Tracé&gt;" class="cls-3" d="M231.16,470.25l-5-2.88c-1.2-.69-1-1.9.33-2.69l5.77-3.34a5.19,5.19,0,0,1,4.67-.2l5,2.88c1.2.69,1,1.9-.33,2.69l-5.77,3.34A5.19,5.19,0,0,1,231.16,470.25Z" transform="translate(-70.75 -18.77)"/></g></g><g id="_Groupe_9" data-name="&lt;Groupe&gt;"><path id="_Tracé_68" data-name="&lt;Tracé&gt;" class="cls-4" d="M143.62,353.88l-4.76-2.74c-1.2-.69-1.05-1.9.33-2.7l1.93-1.12a5.22,5.22,0,0,1,4.67-.19l4.76,2.74c1.2.69,1,1.9-.33,2.69l-1.93,1.12A5.19,5.19,0,0,1,143.62,353.88Z" transform="translate(-70.75 -18.77)"/><path id="_Tracé_69" data-name="&lt;Tracé&gt;" class="cls-4" d="M155.48,360.71,150.72,358c-1.2-.69-1.05-1.9.33-2.7l1.93-1.11a5.19,5.19,0,0,1,4.67-.2l4.76,2.74c1.2.69,1.05,1.9-.33,2.69l-1.93,1.12A5.19,5.19,0,0,1,155.48,360.71Z" transform="translate(-70.75 -18.77)"/><path id="_Tracé_70" data-name="&lt;Tracé&gt;" class="cls-4" d="M167.34,367.54l-4.76-2.74c-1.2-.69-1.05-1.9.33-2.7l1.93-1.11a5.19,5.19,0,0,1,4.67-.2l4.76,2.74c1.2.69,1,1.9-.33,2.7L172,367.34A5.19,5.19,0,0,1,167.34,367.54Z" transform="translate(-70.75 -18.77)"/><path id="_Tracé_71" data-name="&lt;Tracé&gt;" class="cls-4" d="M179.2,374.37l-4.76-2.74c-1.2-.69-1.05-1.9.33-2.7l1.93-1.11a5.19,5.19,0,0,1,4.67-.2l4.76,2.74c1.2.69,1.05,1.9-.33,2.7l-1.93,1.11A5.19,5.19,0,0,1,179.2,374.37Z" transform="translate(-70.75 -18.77)"/><path id="_Tracé_72" data-name="&lt;Tracé&gt;" class="cls-4" d="M191.06,381.2l-4.76-2.74c-1.2-.69-1.05-1.9.33-2.7l1.93-1.11a5.19,5.19,0,0,1,4.67-.2l4.76,2.74c1.2.69,1,1.9-.33,2.7L195.73,381A5.19,5.19,0,0,1,191.06,381.2Z" transform="translate(-70.75 -18.77)"/><path id="_Tracé_73" data-name="&lt;Tracé&gt;" class="cls-4" d="M202.92,388l-4.77-2.74c-1.19-.69-1-1.9.34-2.7l1.93-1.11a5.19,5.19,0,0,1,4.67-.2l4.76,2.74c1.2.69,1.05,1.9-.33,2.7l-1.94,1.11A5.17,5.17,0,0,1,202.92,388Z" transform="translate(-70.75 -18.77)"/><path id="_Tracé_74" data-name="&lt;Tracé&gt;" class="cls-4" d="M214.78,394.86,210,392.12c-1.19-.69-1-1.9.34-2.69l1.93-1.12a5.19,5.19,0,0,1,4.67-.2l4.76,2.74c1.2.69,1,1.9-.33,2.7l-1.94,1.12A5.2,5.2,0,0,1,214.78,394.86Z" transform="translate(-70.75 -18.77)"/><path id="_Tracé_75" data-name="&lt;Tracé&gt;" class="cls-4" d="M226.63,401.69,221.87,399c-1.19-.69-1.05-1.9.34-2.69l1.93-1.12a5.19,5.19,0,0,1,4.67-.2l4.76,2.74c1.19.69,1.05,1.9-.34,2.7l-1.93,1.12A5.19,5.19,0,0,1,226.63,401.69Z" transform="translate(-70.75 -18.77)"/><path id="_Tracé_76" data-name="&lt;Tracé&gt;" class="cls-4" d="M238.49,408.52l-4.76-2.74c-1.2-.69-1-1.89.33-2.69L236,402a5.17,5.17,0,0,1,4.66-.2l4.77,2.74c1.19.69,1,1.9-.34,2.7l-1.93,1.12A5.19,5.19,0,0,1,238.49,408.52Z" transform="translate(-70.75 -18.77)"/><path id="_Tracé_77" data-name="&lt;Tracé&gt;" class="cls-4" d="M250.35,415.36l-4.76-2.75c-1.2-.69-1.05-1.89.33-2.69l1.94-1.12a5.17,5.17,0,0,1,4.66-.2l4.77,2.74c1.19.69,1,1.9-.34,2.7L255,415.16A5.22,5.22,0,0,1,250.35,415.36Z" transform="translate(-70.75 -18.77)"/><path id="_Tracé_78" data-name="&lt;Tracé&gt;" class="cls-4" d="M262.57,422.39l-4.76-2.74c-1.19-.69-1.05-1.89.34-2.69l1.93-1.12a5.17,5.17,0,0,1,4.66-.2l4.77,2.74c1.19.69,1.05,1.9-.34,2.7l-1.93,1.12A5.19,5.19,0,0,1,262.57,422.39Z" transform="translate(-70.75 -18.77)"/><path id="_Tracé_79" data-name="&lt;Tracé&gt;" class="cls-4" d="M274.43,429.22l-4.76-2.74c-1.2-.69-1.05-1.89.33-2.69l1.94-1.12a5.17,5.17,0,0,1,4.66-.2l4.77,2.74c1.19.69,1,1.9-.34,2.7L279.1,429A5.19,5.19,0,0,1,274.43,429.22Z" transform="translate(-70.75 -18.77)"/><path id="_Tracé_80" data-name="&lt;Tracé&gt;" class="cls-4" d="M286.29,436.06l-4.76-2.75c-1.2-.69-1-1.89.33-2.69l1.94-1.12a5.17,5.17,0,0,1,4.66-.2l4.76,2.74c1.2.69,1,1.9-.33,2.7L291,435.86A5.22,5.22,0,0,1,286.29,436.06Z" transform="translate(-70.75 -18.77)"/><path id="_Tracé_81" data-name="&lt;Tracé&gt;" class="cls-4" d="M298.15,442.89l-4.76-2.75c-1.2-.69-1.05-1.89.33-2.69l1.93-1.12a5.19,5.19,0,0,1,4.67-.2l4.76,2.74c1.2.69,1.05,1.9-.33,2.7l-1.93,1.12A5.19,5.19,0,0,1,298.15,442.89Z" transform="translate(-70.75 -18.77)"/><g id="_Groupe_10" data-name="&lt;Groupe&gt;"><path id="_Tracé_82" data-name="&lt;Tracé&gt;" class="cls-4" d="M130,361.91,125,359c-1.2-.68-1-1.89.33-2.69l5.77-3.34a5.19,5.19,0,0,1,4.67-.2l5,2.88c1.2.69,1.05,1.9-.33,2.7l-5.77,3.34A5.19,5.19,0,0,1,130,361.91Z" transform="translate(-70.75 -18.77)"/><path id="_Tracé_83" data-name="&lt;Tracé&gt;" class="cls-4" d="M141.85,368.74l-5-2.88c-1.2-.69-1-1.9.33-2.7l5.77-3.34a5.19,5.19,0,0,1,4.67-.2l5,2.88c1.2.69,1,1.9-.33,2.7l-5.77,3.34A5.19,5.19,0,0,1,141.85,368.74Z" transform="translate(-70.75 -18.77)"/><path id="_Tracé_84" data-name="&lt;Tracé&gt;" class="cls-4" d="M153.83,375.64l-5-2.89c-1.2-.68-1.05-1.89.33-2.69l5.77-3.34a5.19,5.19,0,0,1,4.67-.2l5,2.88c1.2.69,1.05,1.9-.33,2.7l-5.77,3.34A5.19,5.19,0,0,1,153.83,375.64Z" transform="translate(-70.75 -18.77)"/><path id="_Tracé_85" data-name="&lt;Tracé&gt;" class="cls-4" d="M165.69,382.47l-5-2.88c-1.2-.69-1.05-1.9.33-2.7l5.77-3.34a5.19,5.19,0,0,1,4.67-.2l5,2.88c1.2.69,1,1.9-.33,2.7l-5.77,3.34A5.19,5.19,0,0,1,165.69,382.47Z" transform="translate(-70.75 -18.77)"/><path id="_Tracé_86" data-name="&lt;Tracé&gt;" class="cls-4" d="M177.55,389.3l-5-2.88c-1.2-.69-1.05-1.9.33-2.7l5.77-3.34a5.19,5.19,0,0,1,4.67-.2l5,2.88c1.2.69,1.05,1.9-.33,2.7l-5.77,3.34A5.19,5.19,0,0,1,177.55,389.3Z" transform="translate(-70.75 -18.77)"/><path id="_Tracé_87" data-name="&lt;Tracé&gt;" class="cls-4" d="M189.53,396.2l-5-2.88c-1.2-.69-1.05-1.9.33-2.7l5.77-3.34a5.19,5.19,0,0,1,4.67-.2l5,2.88c1.2.69,1,1.9-.33,2.7L194.2,396A5.19,5.19,0,0,1,189.53,396.2Z" transform="translate(-70.75 -18.77)"/><path id="_Tracé_88" data-name="&lt;Tracé&gt;" class="cls-4" d="M201.39,403l-5-2.88c-1.2-.69-1-1.9.33-2.7l5.77-3.34a5.19,5.19,0,0,1,4.67-.2l5,2.89c1.2.69,1.05,1.89-.33,2.69l-5.77,3.34A5.19,5.19,0,0,1,201.39,403Z" transform="translate(-70.75 -18.77)"/><path id="_Tracé_89" data-name="&lt;Tracé&gt;" class="cls-4" d="M213.37,409.93l-5-2.88c-1.2-.69-1.05-1.9.33-2.7l5.77-3.34a5.19,5.19,0,0,1,4.67-.2l5,2.89c1.2.69,1.05,1.89-.33,2.69L218,409.73A5.19,5.19,0,0,1,213.37,409.93Z" transform="translate(-70.75 -18.77)"/><path id="_Tracé_90" data-name="&lt;Tracé&gt;" class="cls-4" d="M225.23,416.76l-5-2.88c-1.2-.69-1-1.9.33-2.7l5.77-3.34a5.19,5.19,0,0,1,4.67-.2l5,2.89c1.2.69,1.05,1.89-.33,2.69l-5.77,3.34A5.19,5.19,0,0,1,225.23,416.76Z" transform="translate(-70.75 -18.77)"/><path id="_Tracé_91" data-name="&lt;Tracé&gt;" class="cls-4" d="M237.09,423.59l-5-2.88c-1.2-.69-1.05-1.9.33-2.7l5.77-3.34a5.22,5.22,0,0,1,4.67-.2l5,2.89c1.2.69,1,1.89-.33,2.69l-5.77,3.34A5.19,5.19,0,0,1,237.09,423.59Z" transform="translate(-70.75 -18.77)"/><path id="_Tracé_92" data-name="&lt;Tracé&gt;" class="cls-4" d="M249.07,430.49l-5-2.88c-1.19-.69-1-1.9.34-2.7l5.77-3.34a5.22,5.22,0,0,1,4.67-.2l5,2.89c1.2.69,1.05,1.89-.33,2.69l-5.77,3.34A5.19,5.19,0,0,1,249.07,430.49Z" transform="translate(-70.75 -18.77)"/><path id="_Tracé_93" data-name="&lt;Tracé&gt;" class="cls-4" d="M260.93,437.32l-5-2.88c-1.19-.69-1-1.9.34-2.7L262,428.4a5.17,5.17,0,0,1,4.66-.19l5,2.88c1.2.69,1.05,1.89-.33,2.69l-5.77,3.34A5.19,5.19,0,0,1,260.93,437.32Z" transform="translate(-70.75 -18.77)"/><path id="_Tracé_94" data-name="&lt;Tracé&gt;" class="cls-4" d="M272.79,444.15l-5-2.88c-1.19-.69-1-1.9.34-2.7l5.77-3.34a5.2,5.2,0,0,1,4.66-.19l5,2.88c1.19.69,1.05,1.89-.34,2.69L277.45,444A5.17,5.17,0,0,1,272.79,444.15Z" transform="translate(-70.75 -18.77)"/><path id="_Tracé_95" data-name="&lt;Tracé&gt;" class="cls-4" d="M284.77,451.05l-5-2.88c-1.19-.69-1.05-1.9.34-2.7l5.77-3.34a5.2,5.2,0,0,1,4.66-.19l5,2.88c1.19.69,1,1.89-.34,2.69l-5.77,3.34A5.17,5.17,0,0,1,284.77,451.05Z" transform="translate(-70.75 -18.77)"/></g><g id="_Groupe_11" data-name="&lt;Groupe&gt;"><path id="_Tracé_96" data-name="&lt;Tracé&gt;" class="cls-4" d="M116.31,370l-5-2.88c-1.19-.69-1-1.89.34-2.69l5.77-3.34a5.17,5.17,0,0,1,4.66-.2l5,2.88c1.2.69,1,1.9-.33,2.7L121,369.82A5.22,5.22,0,0,1,116.31,370Z" transform="translate(-70.75 -18.77)"/><path id="_Tracé_97" data-name="&lt;Tracé&gt;" class="cls-4" d="M128.17,376.84l-5-2.88c-1.19-.69-1-1.89.34-2.69l5.77-3.34a5.17,5.17,0,0,1,4.66-.2l5,2.88c1.19.69,1.05,1.9-.34,2.7l-5.77,3.34A5.17,5.17,0,0,1,128.17,376.84Z" transform="translate(-70.75 -18.77)"/><path id="_Tracé_98" data-name="&lt;Tracé&gt;" class="cls-4" d="M140.15,383.74l-5-2.88c-1.19-.69-1-1.89.34-2.69l5.77-3.34a5.17,5.17,0,0,1,4.66-.2l5,2.88c1.19.69,1.05,1.9-.34,2.7l-5.77,3.34A5.17,5.17,0,0,1,140.15,383.74Z" transform="translate(-70.75 -18.77)"/><path id="_Tracé_99" data-name="&lt;Tracé&gt;" class="cls-4" d="M152,390.58l-5-2.89c-1.2-.69-1.05-1.89.33-2.69l5.77-3.34a5.19,5.19,0,0,1,4.67-.2l5,2.88c1.19.69,1,1.9-.34,2.7l-5.77,3.34A5.22,5.22,0,0,1,152,390.58Z" transform="translate(-70.75 -18.77)"/><path id="_Tracé_100" data-name="&lt;Tracé&gt;" class="cls-4" d="M163.86,397.41l-5-2.89c-1.2-.69-1.05-1.89.33-2.69l5.77-3.34a5.19,5.19,0,0,1,4.67-.2l5,2.88c1.19.69,1,1.9-.34,2.7l-5.77,3.34A5.19,5.19,0,0,1,163.86,397.41Z" transform="translate(-70.75 -18.77)"/><path id="_Tracé_101" data-name="&lt;Tracé&gt;" class="cls-4" d="M175.84,404.31l-5-2.89c-1.2-.69-1.05-1.89.33-2.69l5.77-3.34a5.19,5.19,0,0,1,4.67-.2l5,2.88c1.19.69,1,1.9-.34,2.7l-5.77,3.34A5.19,5.19,0,0,1,175.84,404.31Z" transform="translate(-70.75 -18.77)"/><path id="_Tracé_102" data-name="&lt;Tracé&gt;" class="cls-4" d="M187.7,411.14l-5-2.89c-1.2-.68-1-1.89.33-2.69l5.77-3.34a5.19,5.19,0,0,1,4.67-.2l5,2.88c1.2.69,1.05,1.9-.33,2.7l-5.77,3.34A5.19,5.19,0,0,1,187.7,411.14Z" transform="translate(-70.75 -18.77)"/><path id="_Tracé_103" data-name="&lt;Tracé&gt;" class="cls-4" d="M199.68,418l-5-2.89c-1.2-.68-1.05-1.89.33-2.69l5.77-3.34a5.19,5.19,0,0,1,4.67-.2l5,2.88c1.2.69,1.05,1.9-.33,2.7l-5.77,3.34A5.19,5.19,0,0,1,199.68,418Z" transform="translate(-70.75 -18.77)"/><path id="_Tracé_104" data-name="&lt;Tracé&gt;" class="cls-4" d="M211.54,424.87l-5-2.88c-1.2-.69-1-1.9.33-2.7l5.77-3.34a5.19,5.19,0,0,1,4.67-.2l5,2.88c1.2.69,1.05,1.9-.33,2.7l-5.77,3.34A5.19,5.19,0,0,1,211.54,424.87Z" transform="translate(-70.75 -18.77)"/><path id="_Tracé_105" data-name="&lt;Tracé&gt;" class="cls-4" d="M223.4,431.7l-5-2.88c-1.2-.69-1.05-1.9.33-2.7l5.77-3.34a5.19,5.19,0,0,1,4.67-.2l5,2.88c1.2.69,1.05,1.9-.33,2.7l-5.77,3.34A5.19,5.19,0,0,1,223.4,431.7Z" transform="translate(-70.75 -18.77)"/><path id="_Tracé_106" data-name="&lt;Tracé&gt;" class="cls-4" d="M235.38,438.6l-5-2.88c-1.2-.69-1-1.9.33-2.7l5.77-3.34a5.19,5.19,0,0,1,4.67-.2l5,2.88c1.2.69,1,1.9-.33,2.7l-5.77,3.34A5.19,5.19,0,0,1,235.38,438.6Z" transform="translate(-70.75 -18.77)"/><path id="_Tracé_107" data-name="&lt;Tracé&gt;" class="cls-4" d="M247.24,445.43l-5-2.88c-1.2-.69-1.05-1.9.33-2.7l5.77-3.34a5.19,5.19,0,0,1,4.67-.2l5,2.88c1.2.69,1.05,1.9-.33,2.7l-5.77,3.34A5.19,5.19,0,0,1,247.24,445.43Z" transform="translate(-70.75 -18.77)"/><path id="_Tracé_108" data-name="&lt;Tracé&gt;" class="cls-4" d="M259.1,452.26l-5-2.88c-1.2-.69-1-1.9.33-2.7l5.77-3.34a5.19,5.19,0,0,1,4.67-.2l5,2.89c1.2.68,1.05,1.89-.33,2.69l-5.77,3.34A5.19,5.19,0,0,1,259.1,452.26Z" transform="translate(-70.75 -18.77)"/><path id="_Tracé_109" data-name="&lt;Tracé&gt;" class="cls-4" d="M271.08,459.16l-5-2.88c-1.2-.69-1.05-1.9.33-2.7l5.77-3.34a5.19,5.19,0,0,1,4.67-.2l5,2.89c1.2.68,1,1.89-.33,2.69L275.75,459A5.19,5.19,0,0,1,271.08,459.16Z" transform="translate(-70.75 -18.77)"/></g><g id="_Groupe_12" data-name="&lt;Groupe&gt;"><path id="_Tracé_110" data-name="&lt;Tracé&gt;" class="cls-4" d="M113.75,384.86,97,375.22c-1.2-.69-1.05-1.9.33-2.7l5.77-3.33a5.19,5.19,0,0,1,4.67-.2l16.74,9.64c1.19.69,1,1.9-.33,2.7l-5.77,3.33A5.19,5.19,0,0,1,113.75,384.86Z" transform="translate(-70.75 -18.77)"/><path id="_Tracé_111" data-name="&lt;Tracé&gt;" class="cls-4" d="M125.85,391.83l-5-2.88c-1.19-.69-1-1.9.34-2.69l5.77-3.34a5.19,5.19,0,0,1,4.67-.2l5,2.88c1.2.69,1,1.9-.33,2.69l-5.77,3.34A5.19,5.19,0,0,1,125.85,391.83Z" transform="translate(-70.75 -18.77)"/><path id="_Tracé_112" data-name="&lt;Tracé&gt;" class="cls-4" d="M137.71,398.66l-5-2.88c-1.19-.69-1-1.9.34-2.69l5.77-3.34a5.17,5.17,0,0,1,4.66-.2l5,2.88c1.19.69,1.05,1.9-.33,2.7l-5.78,3.33A5.17,5.17,0,0,1,137.71,398.66Z" transform="translate(-70.75 -18.77)"/><path id="_Tracé_113" data-name="&lt;Tracé&gt;" class="cls-4" d="M149.57,405.49l-5-2.88c-1.19-.69-1.05-1.89.34-2.69l5.77-3.34a5.17,5.17,0,0,1,4.66-.2l5,2.88c1.19.69,1,1.9-.34,2.7l-5.77,3.34A5.2,5.2,0,0,1,149.57,405.49Z" transform="translate(-70.75 -18.77)"/><path id="_Tracé_114" data-name="&lt;Tracé&gt;" class="cls-4" d="M161.55,412.39l-5-2.88c-1.19-.69-1-1.89.33-2.69l5.78-3.34a5.17,5.17,0,0,1,4.66-.2l5,2.88c1.19.69,1.05,1.9-.34,2.7l-5.77,3.34A5.2,5.2,0,0,1,161.55,412.39Z" transform="translate(-70.75 -18.77)"/><path id="_Tracé_115" data-name="&lt;Tracé&gt;" class="cls-4" d="M173.4,419.22l-5-2.88c-1.2-.69-1.05-1.89.33-2.69l5.77-3.34a5.19,5.19,0,0,1,4.67-.2l5,2.88c1.19.69,1,1.9-.34,2.7L178.07,419A5.19,5.19,0,0,1,173.4,419.22Z" transform="translate(-70.75 -18.77)"/><path id="_Tracé_116" data-name="&lt;Tracé&gt;" class="cls-4" d="M185.38,426.12l-5-2.88c-1.2-.69-1-1.89.33-2.69l5.77-3.34a5.19,5.19,0,0,1,4.67-.2l5,2.88c1.19.69,1,1.9-.34,2.7l-5.77,3.34A5.19,5.19,0,0,1,185.38,426.12Z" transform="translate(-70.75 -18.77)"/><path id="_Tracé_117" data-name="&lt;Tracé&gt;" class="cls-4" d="M197.24,433l-5-2.89c-1.2-.69-1.05-1.89.33-2.69l5.77-3.34a5.19,5.19,0,0,1,4.67-.2l5,2.88c1.2.69,1.05,1.9-.33,2.7l-5.77,3.34A5.22,5.22,0,0,1,197.24,433Z" transform="translate(-70.75 -18.77)"/><path id="_Tracé_118" data-name="&lt;Tracé&gt;" class="cls-4" d="M209.1,439.79l-5-2.89c-1.2-.69-1-1.89.33-2.69l5.77-3.34a5.19,5.19,0,0,1,4.67-.2l5,2.88c1.2.69,1,1.9-.33,2.7l-5.77,3.34A5.19,5.19,0,0,1,209.1,439.79Z" transform="translate(-70.75 -18.77)"/><path id="_Tracé_119" data-name="&lt;Tracé&gt;" class="cls-4" d="M221.08,446.69l-5-2.89c-1.2-.69-1.05-1.89.33-2.69l5.77-3.34a5.19,5.19,0,0,1,4.67-.2l5,2.88c1.2.69,1.05,1.9-.33,2.7l-5.77,3.34A5.19,5.19,0,0,1,221.08,446.69Z" transform="translate(-70.75 -18.77)"/><path id="_Tracé_120" data-name="&lt;Tracé&gt;" class="cls-4" d="M232.94,453.52l-5-2.89c-1.2-.68-1.05-1.89.33-2.69L234,444.6a5.19,5.19,0,0,1,4.67-.2l5,2.88c1.2.69,1,1.9-.33,2.7l-5.77,3.34A5.19,5.19,0,0,1,232.94,453.52Z" transform="translate(-70.75 -18.77)"/><path id="_Tracé_121" data-name="&lt;Tracé&gt;" class="cls-4" d="M244.8,460.35l-5-2.88c-1.2-.69-1.05-1.9.33-2.7l5.77-3.34a5.19,5.19,0,0,1,4.67-.2l5,2.88c1.2.69,1.05,1.9-.33,2.7l-5.77,3.34A5.19,5.19,0,0,1,244.8,460.35Z" transform="translate(-70.75 -18.77)"/><path id="_Tracé_122" data-name="&lt;Tracé&gt;" class="cls-4" d="M242.93,475.26l-5-2.88c-1.2-.69-1.05-1.9.33-2.7l19.62-11.35a5.19,5.19,0,0,1,4.67-.2l5,2.88c1.2.69,1.05,1.9-.33,2.7L247.6,475.06A5.19,5.19,0,0,1,242.93,475.26Z" transform="translate(-70.75 -18.77)"/></g><g id="_Groupe_13" data-name="&lt;Groupe&gt;"><path id="_Tracé_123" data-name="&lt;Tracé&gt;" class="cls-4" d="M88.16,386.12l-5-2.89c-1.2-.68-1-1.89.33-2.69l5.77-3.34a5.19,5.19,0,0,1,4.67-.2l5,2.88c1.2.69,1,1.9-.33,2.7l-5.77,3.34A5.19,5.19,0,0,1,88.16,386.12Z" transform="translate(-70.75 -18.77)"/><path id="_Tracé_124" data-name="&lt;Tracé&gt;" class="cls-4" d="M100,393l-5-2.88c-1.2-.69-1-1.9.33-2.7l5.77-3.34a5.19,5.19,0,0,1,4.67-.2l5,2.88c1.2.69,1,1.9-.33,2.7l-5.77,3.34A5.19,5.19,0,0,1,100,393Z" transform="translate(-70.75 -18.77)"/><path id="_Tracé_125" data-name="&lt;Tracé&gt;" class="cls-4" d="M112,399.85,107,397c-1.2-.69-1-1.9.33-2.7l5.77-3.34a5.19,5.19,0,0,1,4.67-.2l5,2.88c1.2.69,1,1.9-.33,2.7l-5.77,3.34A5.19,5.19,0,0,1,112,399.85Z" transform="translate(-70.75 -18.77)"/><path id="_Tracé_126" data-name="&lt;Tracé&gt;" class="cls-4" d="M123.86,406.68l-5-2.88c-1.2-.69-1-1.9.33-2.7l5.77-3.34a5.19,5.19,0,0,1,4.67-.2l5,2.88c1.2.69,1.05,1.9-.33,2.7l-5.77,3.34A5.19,5.19,0,0,1,123.86,406.68Z" transform="translate(-70.75 -18.77)"/><path id="_Tracé_127" data-name="&lt;Tracé&gt;" class="cls-4" d="M171.54,434.14l-40.83-23.51c-1.19-.69-1-1.9.34-2.7l5.77-3.34a5.19,5.19,0,0,1,4.67-.2l40.82,23.52c1.19.69,1.05,1.89-.34,2.69l-5.77,3.34A5.17,5.17,0,0,1,171.54,434.14Z" transform="translate(-70.75 -18.77)"/><path id="_Tracé_128" data-name="&lt;Tracé&gt;" class="cls-4" d="M183.4,441l-5-2.88c-1.19-.69-1-1.9.33-2.7l5.78-3.34a5.2,5.2,0,0,1,4.66-.2l5,2.89c1.19.69,1,1.89-.34,2.69l-5.77,3.34A5.17,5.17,0,0,1,183.4,441Z" transform="translate(-70.75 -18.77)"/><path id="_Tracé_129" data-name="&lt;Tracé&gt;" class="cls-4" d="M195.25,447.8l-5-2.88c-1.2-.69-1.05-1.9.33-2.7l5.77-3.34a5.22,5.22,0,0,1,4.67-.2l5,2.89c1.19.69,1,1.89-.34,2.69l-5.77,3.34A5.19,5.19,0,0,1,195.25,447.8Z" transform="translate(-70.75 -18.77)"/><path id="_Tracé_130" data-name="&lt;Tracé&gt;" class="cls-4" d="M207.23,454.7l-5-2.88c-1.2-.69-1-1.9.33-2.7l5.77-3.34a5.19,5.19,0,0,1,4.67-.19l5,2.88c1.19.69,1,1.89-.34,2.69l-5.77,3.34A5.19,5.19,0,0,1,207.23,454.7Z" transform="translate(-70.75 -18.77)"/><path id="_Tracé_131" data-name="&lt;Tracé&gt;" class="cls-4" d="M219.09,461.53l-5-2.88c-1.2-.69-1.05-1.9.33-2.7l5.77-3.34a5.19,5.19,0,0,1,4.67-.19l5,2.88c1.2.69,1,1.89-.33,2.69l-5.77,3.34A5.19,5.19,0,0,1,219.09,461.53Z" transform="translate(-70.75 -18.77)"/><path id="_Tracé_132" data-name="&lt;Tracé&gt;" class="cls-4" d="M231,468.36l-5-2.88c-1.2-.69-1-1.9.33-2.7l5.77-3.34a5.22,5.22,0,0,1,4.67-.19l5,2.88c1.2.69,1.05,1.89-.33,2.69l-5.77,3.34A5.19,5.19,0,0,1,231,468.36Z" transform="translate(-70.75 -18.77)"/></g></g></g></g><path id="_Tracé_133" data-name="&lt;Tracé&gt;" class="cls-4" d="M166.75,343.93c0,1.51-1.9,2.73-4.24,2.73s-4.25-1.22-4.25-2.73,1.9-2.73,4.25-2.73S166.75,342.42,166.75,343.93Z" transform="translate(-70.75 -18.77)"/></g><path id="_Tracé_134" data-name="&lt;Tracé&gt;" class="cls-4" d="M174.49,348.55c0,1.51-1.9,2.73-4.25,2.73s-4.24-1.22-4.24-2.73,1.9-2.73,4.24-2.73S174.49,347.05,174.49,348.55Z" transform="translate(-70.75 -18.77)"/></g><g id="_4" data-name="4"><g id="_Groupe_14" data-name="&lt;Groupe&gt;"><g id="_Groupe_15" data-name="&lt;Groupe&gt;"><path id="_Tracé_135" data-name="&lt;Tracé&gt;" class="cls-5" d="M256,299.26V331l-.05,1.11c-.18,2.66-1,9.44-5.25,12.15-2.32,1.49-12.36,7.46-20.38,12.18l-8.94,1.37v5.88h0c.11,1.34,1.05,2.84,3,4.06l27.59,15.6a12,12,0,0,0,11.94-.07c7.29-4.26,24.12-14.22,27.18-16.19,4.57-2.93,5.2-10.65,5.29-12.73l0,0v-31.8Z" transform="translate(-70.75 -18.77)"/><path id="_Tracé_136" data-name="&lt;Tracé&gt;" class="cls-6" d="M291.32,352V319.52l-40.43-23.33v32.37l-.05,1.11c-.18,2.67-1,9.45-5.25,12.16-3.14,2-15.38,9.17-22.62,13.39-2.42,1.41-2.34,4.71,1.37,7l27.59,15.59a12,12,0,0,0,11.94-.07c7.29-4.25,19.06-11.14,22.12-13.11,4.57-2.94,5.2-10.65,5.29-12.73Z" transform="translate(-70.75 -18.77)"/></g><g id="_Groupe_16" data-name="&lt;Groupe&gt;"><path id="_Tracé_137" data-name="&lt;Tracé&gt;" class="cls-7" d="M407.08,372.23l.38-203.44c0-6-3.65-12.93-8.14-15.52L167.48,19.71a5.21,5.21,0,0,0-5.09-.48l0,0-9,5.21,6.06,8.6.14,197.32c0,6,3.65,12.93,8.14,15.51l226.19,138.6,2.21-.93,8.42-4.82v0C406.07,377.6,407.09,375.38,407.08,372.23Z" transform="translate(-70.75 -18.77)"/><path id="_Tracé_138" data-name="&lt;Tracé&gt;" class="cls-8" d="M391,384.27,159.13,250.71c-4.49-2.59-8.13-9.53-8.14-15.52l-.14-204.46c0-6,3.63-8.73,8.12-6.14L390.81,158.15c4.49,2.58,8.13,9.53,8.14,15.51l.14,198.45C399.1,378.09,395.47,386.85,391,384.27Z" transform="translate(-70.75 -18.77)"/><path id="_Tracé_139" data-name="&lt;Tracé&gt;" class="cls-9" d="M385.23,367,164.5,239.85c-2-1.14-3.6-4.21-3.6-6.85l-.07-188.95c0-2.64,1.6-3.86,3.58-2.72L385.15,168.49c2,1.15,3.59,4.21,3.59,6.86l.07,189C388.82,366.94,387.21,368.16,385.23,367Z" transform="translate(-70.75 -18.77)"/></g></g><g id="_Groupe_17" data-name="&lt;Groupe&gt;"><polygon id="_Tracé_140" data-name="&lt;Tracé&gt;" class="cls-10" points="286.18 301.81 273.67 294.6 273.64 183.38 286.14 190.59 286.18 301.81"/><polygon id="_Tracé_141" data-name="&lt;Tracé&gt;" class="cls-11" points="264.25 289.2 251.75 281.99 251.72 187.29 264.22 194.5 264.25 289.2"/><polygon id="_Tracé_142" data-name="&lt;Tracé&gt;" class="cls-12" points="242.06 276.29 229.55 269.08 229.52 195.03 242.02 202.24 242.06 276.29"/><polygon id="_Tracé_143" data-name="&lt;Tracé&gt;" class="cls-13" points="219.92 264.05 207.41 256.84 207.38 158.01 219.89 165.22 219.92 264.05"/><polygon id="_Tracé_144" data-name="&lt;Tracé&gt;" class="cls-14" points="197.72 251.14 185.22 243.93 185.18 169.88 197.69 177.09 197.72 251.14"/><polygon id="_Tracé_145" data-name="&lt;Tracé&gt;" class="cls-15" points="175.8 238.53 163.29 231.32 163.26 186.19 175.76 193.4 175.8 238.53"/><polygon id="_Tracé_146" data-name="&lt;Tracé&gt;" class="cls-16" points="153.6 225.62 141.09 218.41 141.06 140.23 153.57 147.45 153.6 225.62"/><polygon id="_Tracé_147" data-name="&lt;Tracé&gt;" class="cls-17" points="131.46 213.39 118.96 206.17 118.92 94.96 131.43 102.17 131.46 213.39"/></g></g></svg>