<svg xmlns="http://www.w3.org/2000/svg" xmlns:xlink="http://www.w3.org/1999/xlink" viewBox="0 0 353.69 456.17"><defs><style>.cls-1{isolation:isolate;}.cls-2{fill:url(#linear-gradient);}.cls-3{fill:#9188ed;}.cls-4{fill:url(#linear-gradient-2);}.cls-5{fill:url(#linear-gradient-3);}.cls-6{fill:url(#linear-gradient-4);}.cls-7{fill:url(#radial-gradient);}.cls-8{fill:url(#linear-gradient-5);}.cls-9{fill:url(#linear-gradient-6);}.cls-10{fill:url(#linear-gradient-7);}.cls-11{mix-blend-mode:lighten;fill:url(#linear-gradient-8);}.cls-12{mix-blend-mode:overlay;}.cls-13{fill:url(#linear-gradient-9);}.cls-14{fill:url(#linear-gradient-10);}.cls-15{fill:url(#linear-gradient-11);}.cls-16{fill:url(#linear-gradient-12);}.cls-17{fill:url(#linear-gradient-13);}.cls-18{fill:url(#linear-gradient-14);}.cls-19{fill:url(#linear-gradient-15);}.cls-20{fill:url(#linear-gradient-16);}.cls-21{fill:url(#linear-gradient-17);}.cls-22{fill:url(#linear-gradient-18);}.cls-23{fill:url(#linear-gradient-19);}.cls-24{fill:url(#linear-gradient-20);}.cls-25{fill:url(#linear-gradient-21);}.cls-26{fill:#a19ff4;}.cls-27{fill:url(#linear-gradient-22);}</style><linearGradient id="linear-gradient" x1="281.41" y1="401.13" x2="270.85" y2="382.51" gradientUnits="userSpaceOnUse"><stop offset="0" stop-color="#5b3bff"/><stop offset="1" stop-color="#e2bfff"/></linearGradient><linearGradient id="linear-gradient-2" x1="156.36" y1="442.88" x2="164.26" y2="365.52" gradientUnits="userSpaceOnUse"><stop offset="0" stop-color="#3124ff"/><stop offset="1" stop-color="#00ffe2"/></linearGradient><linearGradient id="linear-gradient-3" x1="124.59" y1="353.9" x2="134.4" y2="368.78" gradientUnits="userSpaceOnUse"><stop offset="0" stop-color="#6a24ff"/><stop offset="1" stop-color="#d3c2ff"/></linearGradient><linearGradient id="linear-gradient-4" x1="439.59" y1="346.93" x2="380.1" y2="361" gradientUnits="userSpaceOnUse"><stop offset="0" stop-color="#00ffe2"/><stop offset="1" stop-color="#0e24c7"/></linearGradient><radialGradient id="radial-gradient" cx="406.45" cy="347.06" r="22.75" gradientUnits="userSpaceOnUse"><stop offset="0" stop-color="#00ffe2"/><stop offset="1" stop-color="#3124ff"/></radialGradient><linearGradient id="linear-gradient-5" x1="425.04" y1="264.88" x2="403.09" y2="264.88" xlink:href="#linear-gradient-2"/><linearGradient id="linear-gradient-6" x1="415.84" y1="182.51" x2="405.51" y2="174.33" xlink:href="#linear-gradient-2"/><linearGradient id="linear-gradient-7" x1="423.74" y1="182.82" x2="410.82" y2="172.59" xlink:href="#linear-gradient-2"/><linearGradient id="linear-gradient-8" x1="290.15" y1="544.97" x2="103.21" y2="383.52" xlink:href="#linear-gradient-2"/><linearGradient id="linear-gradient-9" x1="338.32" y1="511.54" x2="252.55" y2="79.42" xlink:href="#linear-gradient-2"/><linearGradient id="linear-gradient-10" x1="325.32" y1="514.12" x2="239.55" y2="82" xlink:href="#linear-gradient-2"/><linearGradient id="linear-gradient-11" x1="317.48" y1="515.68" x2="231.71" y2="83.56" xlink:href="#linear-gradient-2"/><linearGradient id="linear-gradient-12" x1="305.86" y1="517.98" x2="220.09" y2="85.86" xlink:href="#linear-gradient-2"/><linearGradient id="linear-gradient-13" x1="410.78" y1="449.64" x2="209.96" y2="247.26" xlink:href="#linear-gradient-2"/><linearGradient id="linear-gradient-14" x1="421.95" y1="419.6" x2="225.8" y2="204.78" xlink:href="#linear-gradient-2"/><linearGradient id="linear-gradient-15" x1="441.44" y1="430.83" x2="217.28" y2="152.18" xlink:href="#linear-gradient-2"/><linearGradient id="linear-gradient-16" x1="485.82" y1="467.41" x2="228.96" y2="115.6" xlink:href="#linear-gradient-2"/><linearGradient id="linear-gradient-17" x1="360.67" y1="229.14" x2="-5.15" y2="-60.41" xlink:href="#linear-gradient-2"/><linearGradient id="linear-gradient-18" x1="335.5" y1="260.94" x2="-30.33" y2="-28.6" xlink:href="#linear-gradient-2"/><linearGradient id="linear-gradient-19" x1="312.81" y1="289.61" x2="-53.01" y2="0.06" xlink:href="#linear-gradient-2"/><linearGradient id="linear-gradient-20" x1="282.73" y1="327.61" x2="-83.09" y2="38.07" xlink:href="#linear-gradient-2"/><linearGradient id="linear-gradient-21" x1="328.09" y1="395.08" x2="323.42" y2="386.84" gradientUnits="userSpaceOnUse"><stop offset="0" stop-color="#8160ff"/><stop offset="1" stop-color="#e2bfff"/></linearGradient><linearGradient id="linear-gradient-22" x1="285.51" y1="419.33" x2="280.87" y2="411.16" xlink:href="#linear-gradient-21"/></defs><title>wifi</title><g class="cls-1"><g id="Calque_1" data-name="Calque 1"><g id="_8" data-name="8"><g id="_Groupe_" data-name="&lt;Groupe&gt;"><g id="_6" data-name="6"><g id="_Groupe_2" data-name="&lt;Groupe&gt;"><g id="_9" data-name="9"><path id="_Tracé_" data-name="&lt;Tracé&gt;" class="cls-2" d="M383.33,317.72l-138.74-82c-2.66-1.55-5.1-1.71-7-.72h0l-.1,0L85,323,238.23,472.82,390,385.39c2.56-1.22,4.21-4.44,4.22-9.13l.18-37.37C394.37,330.74,389.44,321.26,383.33,317.72Z" transform="translate(-71.96 -18.83)"/><path id="_Tracé_2" data-name="&lt;Tracé&gt;" class="cls-3" d="M231.13,472.15l-138.74-82c-6.1-3.54-11-13-11-21.17l.18-37.37c0-8.15,5-11.88,11.08-8.34l138.74,82c6.11,3.54,11,13,11,21.17l-.17,37.37C242.2,472,237.24,475.69,231.13,472.15Z" transform="translate(-71.96 -18.83)"/><path id="_Tracé_3" data-name="&lt;Tracé&gt;" class="cls-4" d="M223.58,454.92,98.38,380.79c-3.9-2.27-7.07-8.33-7.06-13.55V345.38c0-5.22,3.19-7.61,7.1-5.34l125.19,74.13c3.91,2.27,7.07,8.33,7.06,13.55v21.86C230.66,454.8,227.48,457.19,223.58,454.92Z" transform="translate(-71.96 -18.83)"/><path id="_Tracé_4" data-name="&lt;Tracé&gt;" class="cls-5" d="M110.12,374.66c-3.91-2.26-7.07-8.33-7.06-13.54V342.75l-4.63-2.69c-3.91-2.26-7.08.13-7.09,5.35v21.86c0,5.22,3.15,11.28,7,13.55L223.59,455c3.91,2.27,7.08-.13,7.09-5.34v-3.49Z" transform="translate(-71.96 -18.83)"/></g><g id="_Groupe_3" data-name="&lt;Groupe&gt;"><g id="_Groupe_4" data-name="&lt;Groupe&gt;"><path id="_Tracé_5" data-name="&lt;Tracé&gt;" class="cls-6" d="M376.3,362h0a5.49,5.49,0,0,1,4-6.64l23.05-5.63a5.49,5.49,0,0,1,6.64,4h0a5.5,5.5,0,0,1-4,6.63l-23.05,5.64A5.5,5.5,0,0,1,376.3,362Z" transform="translate(-71.96 -18.83)"/></g><path id="_Tracé_6" data-name="&lt;Tracé&gt;" class="cls-7" d="M425.65,352.22a11.46,11.46,0,1,1-11.45-11.45A11.45,11.45,0,0,1,425.65,352.22Z" transform="translate(-71.96 -18.83)"/><g id="_Groupe_5" data-name="&lt;Groupe&gt;"><path id="_Tracé_7" data-name="&lt;Tracé&gt;" class="cls-8" d="M421.78,181.21H406.62l-2,161.33c0,3.32,4.27,6,9.54,6s9.54-2.69,9.54-6Z" transform="translate(-71.96 -18.83)"/><path id="_Tracé_8" data-name="&lt;Tracé&gt;" class="cls-9" d="M421.78,181.21c0,2.52-3.4,4.57-7.58,4.57s-7.58-2.05-7.58-4.57,3.39-4.57,7.58-4.57S421.78,178.68,421.78,181.21Z" transform="translate(-71.96 -18.83)"/><path id="_Tracé_9" data-name="&lt;Tracé&gt;" class="cls-10" d="M421.78,176.64c0,2.52-3.4,4.57-7.58,4.57s-7.58-2.05-7.58-4.57,3.39-9,7.58-9S421.78,174.11,421.78,176.64Z" transform="translate(-71.96 -18.83)"/></g></g></g><path id="_Tracé_10" data-name="&lt;Tracé&gt;" class="cls-11" d="M204.21,474.15,79,400c-3.91-2.26-7.07-8.33-7.06-13.55V364.6c0-5.22,3.19-7.61,7.1-5.34l125.19,74.13c3.91,2.27,7.07,8.33,7.06,13.55V468.8C211.3,474,208.12,476.41,204.21,474.15Z" transform="translate(-71.96 -18.83)"/></g><g id="_2" data-name="2"><g id="_3" data-name="3" class="cls-12"><g id="_Groupe_6" data-name="&lt;Groupe&gt;"><path id="_Tracé_11" data-name="&lt;Tracé&gt;" class="cls-13" d="M130.83,57.45c4.75,7.24,11.52,10.49,15.87,7.56,14.18-9.53,49.74-24.82,107.52,5.79l1.79,1c60.51,32.78,97.33,87.6,112.45,114.09,4.85,8.5,12.68,13.65,18.49,12.09h0c7.27-1.94,8.33-13.34,2.19-24-19-32.93-62.76-96.83-132.71-134l-2.06-1.08c-66.2-34.36-107.34-16.75-124.52-5-5.29,3.61-4.85,14.68,1,23.54Z" transform="translate(-71.96 -18.83)"/></g><g id="_Groupe_7" data-name="&lt;Groupe&gt;"><path id="_Tracé_12" data-name="&lt;Tracé&gt;" class="cls-14" d="M164.44,121c4.72,7.45,11.56,11.12,16.14,8.61,11.86-6.52,37.44-15,72.9,4l1.25.68c35.4,19.52,59.8,55.85,71.37,76.19,4.72,8.29,12.27,13.25,17.84,11.76h0C351,220.3,352,209,346,198.53c-15.43-26.77-47-72.87-92.65-96.91-43.94-23.07-74.74-12.74-89.44-4.3-5.58,3.2-5.32,14.34.5,23.52Z" transform="translate(-71.96 -18.83)"/></g><g id="_Groupe_8" data-name="&lt;Groupe&gt;"><path id="_Tracé_13" data-name="&lt;Tracé&gt;" class="cls-15" d="M309.55,249.57h.06c7.2-1.44,8.36-12.71,2.38-23.38-11.41-20.33-31.68-50.19-58.83-65.41-25-14-43.4-9.65-54-4-6,3.21-5.59,15.19,1,24.76l0,.07c4.83,7.06,11.45,10.42,15.94,8.11,7.34-3.76,20.14-6.85,36.88,2.72,17.73,10.13,31.69,31.2,39.53,45.29C297,245.71,304.14,250.65,309.55,249.57Z" transform="translate(-71.96 -18.83)"/></g><path id="_Tracé_14" data-name="&lt;Tracé&gt;" class="cls-16" d="M224.16,236.87c-.08,17.86,12.78,40.12,28.88,49.84,16.28,9.83,29.71,3.14,29.82-15s-13.16-40.76-29.47-50.25C237.25,212,224.24,219,224.16,236.87Z" transform="translate(-71.96 -18.83)"/></g><g id="_4" data-name="4"><g id="_4-2" data-name="4"><path id="_Tracé_15" data-name="&lt;Tracé&gt;" class="cls-17" d="M214.41,231.54l.1,0,0,0c4.85-1.07,10.8,0,17.25,3.74,16.56,9.49,30,32.17,29.89,50.53-.05,7-2.11,12.36-5.55,15.72h0l-.06,0a22.91,22.91,0,0,1-8.2,4.5l-10.21,5.61L196.71,241l11.23-6A14,14,0,0,1,214.41,231.54Z" transform="translate(-71.96 -18.83)"/><path id="_Tracé_16" data-name="&lt;Tracé&gt;" class="cls-18" d="M176.79,170.3c10.76-5.71,29.41-10.21,54.8,3.82,27.54,15.23,48.1,45.25,59.67,65.7,6.07,10.73,4.89,22.1-2.42,23.57l-3.79,2.1L275,271.11l-62.83-71.3A34.15,34.15,0,0,0,194,203.43c-4.56,2.34-11.27-1-16.17-8.11l-.05-.07c-1.77-2.57-3.09-5.31,1.27-11.46L161.6,180Z" transform="translate(-71.96 -18.83)"/><path id="_Tracé_17" data-name="&lt;Tracé&gt;" class="cls-19" d="M143.37,108.53c15.69-8.37,46-16.33,88.4,5.6,46.29,24,78.36,70.56,94,97.48,6.13,10.55,5.1,22-2.06,24-.52.14-4.34,2.53-4.9,2.57l-10.69,6-49.51-67.4-68.47-41.55a65.5,65.5,0,0,0-32.2,7.84c-4.64,2.56-11.58-1.11-16.36-8.6l-.08-.12c-.08-.13-.15-.27-.24-.4l-4.37-.11-8.84-14.53,8.67-6.75Z" transform="translate(-71.96 -18.83)"/><path id="_Tracé_18" data-name="&lt;Tracé&gt;" class="cls-20" d="M94,55.8l12.51-9C124,34.92,165.73,17,232.89,51.31c.69.35,1.4.71,2.09,1.08,71,37.12,115.39,101.35,134.68,134.48,4.79,8.23,6.06,15.6,2.64,20.08l-3.45,3.47-2,1.1a26.1,26.1,0,0,1-4.85,2.41l-11.58,6.13L330,191.91,245.85,95.13,198.7,69.78c-38.77-10.65-63.7.65-75.09,8.3-4.41,3-11.28-.27-16.09-7.55l0,0a28.85,28.85,0,0,1-4.41-11.12Z" transform="translate(-71.96 -18.83)"/></g><g id="_3-2" data-name="3"><g id="_Groupe_9" data-name="&lt;Groupe&gt;"><path id="_Tracé_19" data-name="&lt;Tracé&gt;" class="cls-21" d="M95,79.35c4.76,7.24,11.52,10.49,15.88,7.57,14.17-9.53,49.74-24.83,107.51,5.78l1.79,1c60.51,32.79,97.33,87.6,112.45,114.1,4.85,8.49,12.68,13.64,18.5,12.09h0c7.28-1.95,8.33-13.35,2.2-24-19-32.93-62.77-96.82-132.71-134l-2.06-1.08C152.37,26.48,111.22,44.08,94,55.8c-5.28,3.6-4.85,14.68,1,23.53Z" transform="translate(-71.96 -18.83)"/></g><g id="_Groupe_10" data-name="&lt;Groupe&gt;"><path id="_Tracé_20" data-name="&lt;Tracé&gt;" class="cls-22" d="M128.63,142.87c4.71,7.44,11.56,11.11,16.13,8.6,11.86-6.52,37.45-15,72.9,4l1.25.68c35.41,19.52,59.8,55.85,71.38,76.18,4.71,8.29,12.26,13.26,17.83,11.77h0c7.05-1.89,8.06-13.17,2-23.66-15.42-26.77-47-72.86-92.65-96.9-43.94-23.08-74.74-12.74-89.44-4.31-5.58,3.2-5.31,14.34.5,23.53Z" transform="translate(-71.96 -18.83)"/></g><g id="_Groupe_11" data-name="&lt;Groupe&gt;"><path id="_Tracé_21" data-name="&lt;Tracé&gt;" class="cls-23" d="M273.73,271.47h.07c7.19-1.44,8.35-12.71,2.37-23.38-11.41-20.33-31.68-50.19-58.82-65.41-25-14-43.4-9.64-54-4-6,3.21-5.58,15.19,1,24.76l.05.07c4.83,7.07,11.44,10.42,15.94,8.12,7.33-3.76,20.13-6.86,36.88,2.71,17.72,10.13,31.68,31.21,39.53,45.29C261.17,267.61,268.32,272.55,273.73,271.47Z" transform="translate(-71.96 -18.83)"/></g><path id="_Tracé_22" data-name="&lt;Tracé&gt;" class="cls-24" d="M188.34,258.78c-.08,17.85,12.78,40.11,28.88,49.83,16.29,9.83,29.71,3.14,29.82-15.05s-13.15-40.76-29.47-50.24C201.44,233.94,188.42,240.91,188.34,258.78Z" transform="translate(-71.96 -18.83)"/></g></g></g></g><g id="_Groupe_12" data-name="&lt;Groupe&gt;"><path id="_Tracé_23" data-name="&lt;Tracé&gt;" class="cls-25" d="M358.7,366.36l-8.24-4.82h0l-62,35.52v12.77l11.22,19.65,61.75-35.58c1.05-.5,1.72-1.81,1.72-3.72l.08-15.21C363.19,371.65,361.18,367.8,358.7,366.36Z" transform="translate(-71.96 -18.83)"/><path id="_Tracé_24" data-name="&lt;Tracé&gt;" class="cls-26" d="M296.85,402l-8.43-4.92v27.27l8.33,4.87c2.49,1.45,4.51-.08,4.51-3.39l.08-15.21C301.34,407.28,299.33,403.42,296.85,402Z" transform="translate(-71.96 -18.83)"/></g><g id="_Groupe_13" data-name="&lt;Groupe&gt;"><path id="_Tracé_25" data-name="&lt;Tracé&gt;" class="cls-27" d="M290.39,405.37l-8.24-4.81h0l-10.57,6v12.78L282.8,439l10.28-6.08c1.05-.49,1.72-1.8,1.72-3.71l.08-15.21C294.88,410.67,292.87,406.81,290.39,405.37Z" transform="translate(-71.96 -18.83)"/><path id="_Tracé_26" data-name="&lt;Tracé&gt;" class="cls-26" d="M280,411.49l-8.42-4.93v27.28l8.33,4.87c2.49,1.44,4.51-.08,4.51-3.39l.07-15.21C284.5,416.79,282.49,412.93,280,411.49Z" transform="translate(-71.96 -18.83)"/></g></g></g></g></svg>