<svg xmlns="http://www.w3.org/2000/svg" xmlns:xlink="http://www.w3.org/1999/xlink" viewBox="0 0 384.95 432.23"><defs><style>.cls-1{isolation:isolate;}.cls-2{fill:#8800ba;}.cls-2,.cls-76{mix-blend-mode:multiply;}.cls-3{fill:url(#linear-gradient);}.cls-4{fill:url(#linear-gradient-2);}.cls-5{fill:#cfacfc;}.cls-6{fill:#ab7af9;}.cls-7{fill:url(#linear-gradient-3);}.cls-8{fill:#f6f0ff;}.cls-9{fill:#eddfff;}.cls-10{fill:#d9b6ff;}.cls-11{fill:url(#linear-gradient-4);}.cls-12{fill:#839bff;}.cls-13{fill:url(#linear-gradient-5);}.cls-14,.cls-62{opacity:0.6;}.cls-14,.cls-40,.cls-60,.cls-62{mix-blend-mode:overlay;}.cls-15{fill:url(#linear-gradient-6);}.cls-16{fill:url(#linear-gradient-7);}.cls-17{fill:url(#linear-gradient-8);}.cls-18{fill:url(#linear-gradient-9);}.cls-19{fill:url(#linear-gradient-10);}.cls-20{fill:url(#linear-gradient-11);}.cls-21{fill:url(#linear-gradient-12);}.cls-22{fill:#623dc4;}.cls-23{fill:#efe1ee;}.cls-24{fill:url(#linear-gradient-13);}.cls-25{fill:#e4d4fc;}.cls-26{fill:url(#linear-gradient-14);}.cls-27{fill:url(#linear-gradient-15);}.cls-28{fill:url(#linear-gradient-16);}.cls-29{fill:url(#radial-gradient);}.cls-30{fill:url(#linear-gradient-17);}.cls-31{fill:#9188ed;}.cls-32{fill:url(#linear-gradient-18);}.cls-33{fill:url(#linear-gradient-19);}.cls-34{fill:url(#linear-gradient-20);}.cls-35{fill:url(#radial-gradient-2);}.cls-36{fill:url(#linear-gradient-21);}.cls-37{fill:url(#linear-gradient-22);}.cls-38{fill:url(#linear-gradient-23);}.cls-106,.cls-39{mix-blend-mode:lighten;}.cls-39{fill:url(#linear-gradient-24);}.cls-41{fill:url(#linear-gradient-25);}.cls-42{fill:url(#linear-gradient-26);}.cls-43{fill:url(#linear-gradient-27);}.cls-44{fill:url(#linear-gradient-28);}.cls-45{fill:url(#linear-gradient-29);}.cls-46{fill:url(#linear-gradient-30);}.cls-47{fill:url(#linear-gradient-31);}.cls-48{fill:url(#linear-gradient-32);}.cls-49{fill:url(#linear-gradient-33);}.cls-50{fill:url(#linear-gradient-34);}.cls-51{fill:url(#linear-gradient-35);}.cls-52{fill:url(#linear-gradient-36);}.cls-53{fill:url(#linear-gradient-37);}.cls-54{fill:#a19ff4;}.cls-55{fill:url(#linear-gradient-38);}.cls-56{fill:url(#linear-gradient-39);}.cls-57{fill:#ab95f9;}.cls-58{fill:url(#linear-gradient-40);}.cls-59{fill:url(#linear-gradient-41);}.cls-60{fill:url(#linear-gradient-42);}.cls-61{fill:#57fffe;}.cls-62{fill:url(#linear-gradient-43);}.cls-63{fill:url(#linear-gradient-44);}.cls-64{fill:url(#linear-gradient-45);}.cls-65{fill:url(#linear-gradient-46);}.cls-66{fill:url(#linear-gradient-47);}.cls-67{fill:url(#linear-gradient-48);}.cls-68{fill:url(#linear-gradient-49);}.cls-69{fill:url(#linear-gradient-50);}.cls-70{fill:url(#linear-gradient-51);}.cls-71{fill:url(#radial-gradient-3);}.cls-72{fill:url(#linear-gradient-52);}.cls-73{fill:#ccf4ff;}.cls-74{fill:#2d84e2;}.cls-75{fill:#b3ebff;}.cls-76{fill:url(#linear-gradient-53);}.cls-77{fill:url(#linear-gradient-54);}.cls-78{fill:url(#linear-gradient-55);}.cls-79{fill:url(#linear-gradient-56);}.cls-80{fill:url(#linear-gradient-57);}.cls-81{fill:url(#linear-gradient-58);}.cls-82{fill:url(#linear-gradient-59);}.cls-83{fill:url(#linear-gradient-60);}.cls-84{fill:url(#linear-gradient-61);}.cls-85{fill:url(#linear-gradient-62);}.cls-86{fill:url(#linear-gradient-63);}.cls-87{fill:url(#linear-gradient-64);}.cls-88{fill:url(#linear-gradient-65);}.cls-89{fill:url(#linear-gradient-66);}.cls-90{fill:url(#linear-gradient-67);}.cls-91{fill:url(#linear-gradient-68);}.cls-92{fill:url(#linear-gradient-69);}.cls-93{fill:url(#linear-gradient-70);}.cls-94{fill:url(#linear-gradient-71);}.cls-95{fill:url(#linear-gradient-72);}.cls-96{fill:url(#linear-gradient-73);}.cls-97{fill:url(#linear-gradient-74);}.cls-98{fill:url(#linear-gradient-75);}.cls-99{fill:url(#linear-gradient-76);}.cls-100{fill:url(#linear-gradient-77);}.cls-101{fill:url(#linear-gradient-78);}.cls-102{fill:url(#linear-gradient-79);}.cls-103{fill:url(#linear-gradient-80);}.cls-104{fill:url(#linear-gradient-81);}.cls-105{fill:url(#linear-gradient-82);}.cls-107{fill:#09f6ff;}.cls-108{fill:url(#linear-gradient-83);}.cls-109{fill:url(#linear-gradient-84);}.cls-110{fill:url(#linear-gradient-85);}.cls-111{fill:url(#linear-gradient-86);}.cls-112{fill:url(#linear-gradient-87);}.cls-113{fill:url(#linear-gradient-88);}.cls-114{fill:url(#linear-gradient-89);}.cls-115{fill:url(#linear-gradient-90);}.cls-116{fill:url(#linear-gradient-91);}.cls-117{fill:url(#linear-gradient-92);}.cls-118{fill:url(#linear-gradient-93);}.cls-119{fill:url(#linear-gradient-94);}.cls-120{fill:url(#linear-gradient-95);}.cls-121{fill:url(#linear-gradient-96);}.cls-122{fill:url(#linear-gradient-97);}.cls-123{fill:url(#linear-gradient-98);}.cls-124{fill:url(#linear-gradient-99);}.cls-125{fill:url(#linear-gradient-100);}.cls-126{fill:url(#linear-gradient-101);}.cls-127{fill:url(#linear-gradient-102);}.cls-128{fill:url(#linear-gradient-103);}.cls-129{fill:url(#linear-gradient-104);}</style><linearGradient id="linear-gradient" x1="255.15" y1="320.91" x2="167.17" y2="320.91" gradientUnits="userSpaceOnUse"><stop offset="0" stop-color="#ba83ff"/><stop offset="1" stop-color="#d8abff"/></linearGradient><linearGradient id="linear-gradient-2" x1="959.42" y1="739.56" x2="24.91" y2="194.61" gradientUnits="userSpaceOnUse"><stop offset="0" stop-color="#9c74ff"/><stop offset="1" stop-color="#fff6ff"/></linearGradient><linearGradient id="linear-gradient-3" x1="312.41" y1="230.37" x2="299.08" y2="230.37" gradientUnits="userSpaceOnUse"><stop offset="0" stop-color="#a65eff"/><stop offset="1" stop-color="#c49fff"/></linearGradient><linearGradient id="linear-gradient-4" x1="348.03" y1="227.47" x2="331.97" y2="227.47" gradientUnits="userSpaceOnUse"><stop offset="0" stop-color="#09007f"/><stop offset="1" stop-color="#2472d6"/></linearGradient><linearGradient id="linear-gradient-5" x1="343.33" y1="209" x2="335.49" y2="209" xlink:href="#linear-gradient-4"/><linearGradient id="linear-gradient-6" x1="325.02" y1="251.4" x2="308.02" y2="251.4" gradientUnits="userSpaceOnUse"><stop offset="0" stop-color="#00bdff"/><stop offset="1" stop-color="#0c09c6"/></linearGradient><linearGradient id="linear-gradient-7" x1="307.41" y1="243.14" x2="325.4" y2="243.14" xlink:href="#linear-gradient-6"/><linearGradient id="linear-gradient-8" x1="311.36" y1="243.14" x2="324.36" y2="243.14" xlink:href="#linear-gradient-6"/><linearGradient id="linear-gradient-9" x1="310.32" y1="244.85" x2="322.48" y2="244.85" xlink:href="#linear-gradient-6"/><linearGradient id="linear-gradient-10" x1="325.32" y1="253.87" x2="320.03" y2="253.87" xlink:href="#linear-gradient-6"/><linearGradient id="linear-gradient-11" x1="283.66" y1="232.21" x2="280.15" y2="232.21" gradientUnits="userSpaceOnUse"><stop offset="0" stop-color="#180097"/><stop offset="1" stop-color="#240ed6"/></linearGradient><linearGradient id="linear-gradient-12" x1="304.93" y1="271.2" x2="226.23" y2="185.95" gradientUnits="userSpaceOnUse"><stop offset="0" stop-color="#4f47ff"/><stop offset="1" stop-color="#13ffe2"/></linearGradient><linearGradient id="linear-gradient-13" x1="71.67" y1="208.54" x2="59.96" y2="208.54" xlink:href="#linear-gradient-3"/><linearGradient id="linear-gradient-14" x1="93.67" y1="329.46" x2="74.83" y2="329.46" xlink:href="#linear-gradient-3"/><linearGradient id="linear-gradient-15" x1="94.95" y1="319.87" x2="73.56" y2="319.87" gradientUnits="userSpaceOnUse"><stop offset="0" stop-color="#c783ff"/><stop offset="1" stop-color="#d6aeff"/></linearGradient><linearGradient id="linear-gradient-16" x1="73.56" y1="313.42" x2="94.95" y2="313.42" gradientUnits="userSpaceOnUse"><stop offset="0" stop-color="#ad4618"/><stop offset="1" stop-color="#662109"/></linearGradient><radialGradient id="radial-gradient" cx="72.84" cy="254.08" r="67.81" gradientUnits="userSpaceOnUse"><stop offset="0" stop-color="#00ffe2"/><stop offset="1" stop-color="#3124ff"/></radialGradient><linearGradient id="linear-gradient-17" x1="118.66" y1="200.28" x2="116.83" y2="197.05" gradientUnits="userSpaceOnUse"><stop offset="0" stop-color="#5b3bff"/><stop offset="1" stop-color="#e2bfff"/></linearGradient><linearGradient id="linear-gradient-18" x1="96.95" y1="207.53" x2="98.32" y2="194.1" gradientUnits="userSpaceOnUse"><stop offset="0" stop-color="#3124ff"/><stop offset="1" stop-color="#00ffe2"/></linearGradient><linearGradient id="linear-gradient-19" x1="91.43" y1="192.08" x2="93.13" y2="194.66" gradientUnits="userSpaceOnUse"><stop offset="0" stop-color="#6a24ff"/><stop offset="1" stop-color="#d3c2ff"/></linearGradient><linearGradient id="linear-gradient-20" x1="146.13" y1="190.87" x2="135.8" y2="193.31" gradientUnits="userSpaceOnUse"><stop offset="0" stop-color="#00ffe2"/><stop offset="1" stop-color="#0e24c7"/></linearGradient><radialGradient id="radial-gradient-2" cx="140.37" cy="190.89" r="3.95" xlink:href="#radial-gradient"/><linearGradient id="linear-gradient-21" x1="143.6" y1="176.62" x2="139.79" y2="176.62" xlink:href="#linear-gradient-18"/><linearGradient id="linear-gradient-22" x1="142" y1="162.32" x2="140.21" y2="160.9" xlink:href="#linear-gradient-18"/><linearGradient id="linear-gradient-23" x1="143.38" y1="162.37" x2="141.13" y2="160.6" xlink:href="#linear-gradient-18"/><linearGradient id="linear-gradient-24" x1="120.18" y1="225.26" x2="87.72" y2="197.22" xlink:href="#linear-gradient-18"/><linearGradient id="linear-gradient-25" x1="128.54" y1="219.45" x2="113.65" y2="144.42" xlink:href="#linear-gradient-18"/><linearGradient id="linear-gradient-26" x1="126.29" y1="219.9" x2="111.39" y2="144.87" xlink:href="#linear-gradient-18"/><linearGradient id="linear-gradient-27" x1="124.92" y1="220.17" x2="110.03" y2="145.14" xlink:href="#linear-gradient-18"/><linearGradient id="linear-gradient-28" x1="122.91" y1="220.57" x2="108.01" y2="145.54" xlink:href="#linear-gradient-18"/><linearGradient id="linear-gradient-29" x1="141.12" y1="208.7" x2="106.25" y2="173.56" xlink:href="#linear-gradient-18"/><linearGradient id="linear-gradient-30" x1="143.06" y1="203.49" x2="109" y2="166.18" xlink:href="#linear-gradient-18"/><linearGradient id="linear-gradient-31" x1="146.45" y1="205.44" x2="107.53" y2="157.05" xlink:href="#linear-gradient-18"/><linearGradient id="linear-gradient-32" x1="154.15" y1="211.79" x2="109.55" y2="150.7" xlink:href="#linear-gradient-18"/><linearGradient id="linear-gradient-33" x1="132.42" y1="170.42" x2="68.9" y2="120.14" xlink:href="#linear-gradient-18"/><linearGradient id="linear-gradient-34" x1="128.05" y1="175.94" x2="64.53" y2="125.66" xlink:href="#linear-gradient-18"/><linearGradient id="linear-gradient-35" x1="124.11" y1="180.92" x2="60.59" y2="130.64" xlink:href="#linear-gradient-18"/><linearGradient id="linear-gradient-36" x1="118.89" y1="187.51" x2="55.37" y2="137.24" xlink:href="#linear-gradient-18"/><linearGradient id="linear-gradient-37" x1="126.77" y1="199.23" x2="125.95" y2="197.8" gradientUnits="userSpaceOnUse"><stop offset="0" stop-color="#8160ff"/><stop offset="1" stop-color="#e2bfff"/></linearGradient><linearGradient id="linear-gradient-38" x1="119.37" y1="203.44" x2="118.57" y2="202.02" xlink:href="#linear-gradient-37"/><linearGradient id="linear-gradient-39" x1="333.71" y1="297.27" x2="330.39" y2="291.42" gradientUnits="userSpaceOnUse"><stop offset="0" stop-color="#7756ff"/><stop offset="1" stop-color="#d3c2ff"/></linearGradient><linearGradient id="linear-gradient-40" x1="307.42" y1="346.78" x2="311.46" y2="307.22" xlink:href="#linear-gradient-18"/><linearGradient id="linear-gradient-41" x1="314.34" y1="333.79" x2="317.26" y2="338.21" gradientUnits="userSpaceOnUse"><stop offset="0" stop-color="#8942ff"/><stop offset="1" stop-color="#d3c2ff"/></linearGradient><linearGradient id="linear-gradient-42" x1="302.67" y1="349.57" x2="306.71" y2="310" xlink:href="#linear-gradient-18"/><linearGradient id="linear-gradient-43" x1="307.41" y1="346.86" x2="311.45" y2="307.29" xlink:href="#linear-gradient-18"/><linearGradient id="linear-gradient-44" x1="227.88" y1="195.77" x2="235.41" y2="179.24" xlink:href="#linear-gradient-18"/><linearGradient id="linear-gradient-45" x1="229.73" y1="210.37" x2="236.1" y2="195.74" xlink:href="#linear-gradient-2"/><linearGradient id="linear-gradient-46" x1="235.89" y1="211.49" x2="236.67" y2="194.66" gradientUnits="userSpaceOnUse"><stop offset="0" stop-color="#2e33ff"/><stop offset="1" stop-color="#13ffe2"/></linearGradient><linearGradient id="linear-gradient-47" x1="233.21" y1="213.57" x2="239.51" y2="199.1" xlink:href="#linear-gradient-2"/><linearGradient id="linear-gradient-48" x1="211.73" y1="199.69" x2="218.11" y2="185.04" xlink:href="#linear-gradient-2"/><linearGradient id="linear-gradient-49" x1="213.72" y1="201.98" x2="229.01" y2="171.46" xlink:href="#linear-gradient-2"/><linearGradient id="linear-gradient-50" x1="215.94" y1="197.55" x2="223.75" y2="181.96" gradientUnits="userSpaceOnUse"><stop offset="0" stop-color="#9c74ff"/><stop offset="1" stop-color="#2f00ae"/></linearGradient><linearGradient id="linear-gradient-51" x1="217.5" y1="205.65" x2="210.79" y2="200.33" xlink:href="#linear-gradient-18"/><radialGradient id="radial-gradient-3" cx="201.5" cy="202.58" r="3.16" gradientUnits="userSpaceOnUse"><stop offset="0" stop-color="#fff6ff"/><stop offset="1" stop-color="#7940ff"/></radialGradient><linearGradient id="linear-gradient-52" x1="82.86" y1="229.89" x2="53.21" y2="197.78" xlink:href="#linear-gradient-12"/><linearGradient id="linear-gradient-53" x1="51.16" y1="201.28" x2="81.28" y2="235.8" gradientUnits="userSpaceOnUse"><stop offset="0" stop-color="#77e9eb"/><stop offset="0.99" stop-color="#2436b5"/></linearGradient><linearGradient id="linear-gradient-54" x1="285.49" y1="209.3" x2="281.69" y2="209.3" gradientUnits="userSpaceOnUse"><stop offset="0" stop-color="#180092"/><stop offset="1" stop-color="#240ed6"/></linearGradient><linearGradient id="linear-gradient-55" x1="286.4" y1="206.83" x2="283.19" y2="211.98" gradientUnits="userSpaceOnUse"><stop offset="0" stop-color="#3d00e7"/><stop offset="1" stop-color="#6077ff"/></linearGradient><linearGradient id="linear-gradient-56" x1="296.68" y1="176.95" x2="292.61" y2="168.33" xlink:href="#linear-gradient-55"/><linearGradient id="linear-gradient-57" x1="316.54" y1="226.17" x2="261.12" y2="108.4" xlink:href="#linear-gradient-4"/><linearGradient id="linear-gradient-58" x1="694.68" y1="248.85" x2="466.86" y2="-51.22" gradientTransform="matrix(0.87, 0.5, 0.5, 1.44, -119.32, -37.87)" gradientUnits="userSpaceOnUse"><stop offset="0" stop-color="#6318ff"/><stop offset="1" stop-color="#fff6e2"/></linearGradient><linearGradient id="linear-gradient-59" x1="306.33" y1="239.62" x2="290.08" y2="222.63" gradientTransform="matrix(0.87, 0.5, 0, 1.15, 38.47, -233.2)" xlink:href="#linear-gradient-18"/><linearGradient id="linear-gradient-60" x1="297.46" y1="240.57" x2="283.32" y2="225.79" gradientTransform="matrix(0.87, 0.5, 0, 1.15, 38.47, -233.2)" xlink:href="#linear-gradient-18"/><linearGradient id="linear-gradient-61" x1="288.19" y1="241.72" x2="276.69" y2="229.7" gradientTransform="matrix(0.87, 0.5, 0, 1.15, 38.47, -233.2)" xlink:href="#linear-gradient-18"/><linearGradient id="linear-gradient-62" x1="282.2" y1="240.45" x2="267.53" y2="225.11" gradientTransform="matrix(0.87, 0.5, 0, 1.15, 38.47, -233.2)" xlink:href="#linear-gradient-18"/><linearGradient id="linear-gradient-63" x1="272.64" y1="241.83" x2="261.14" y2="229.81" gradientTransform="matrix(0.87, 0.5, 0, 1.15, 38.47, -233.2)" xlink:href="#linear-gradient-18"/><linearGradient id="linear-gradient-64" x1="262.88" y1="243.49" x2="255.08" y2="235.33" gradientTransform="matrix(0.87, 0.5, 0, 1.15, 38.47, -233.2)" xlink:href="#linear-gradient-18"/><linearGradient id="linear-gradient-65" x1="257.46" y1="241.58" x2="245.43" y2="229" gradientTransform="matrix(0.87, 0.5, 0, 1.15, 38.47, -233.2)" xlink:href="#linear-gradient-18"/><linearGradient id="linear-gradient-66" x1="252.05" y1="239.83" x2="235.8" y2="222.84" gradientTransform="matrix(0.87, 0.5, 0, 1.15, 38.47, -233.2)" xlink:href="#linear-gradient-18"/><linearGradient id="linear-gradient-67" x1="268.06" y1="150.65" x2="213.45" y2="35.13" gradientUnits="userSpaceOnUse"><stop offset="0" stop-color="#3d4aff"/><stop offset="1" stop-color="#65d9ff"/></linearGradient><linearGradient id="linear-gradient-68" x1="212.89" y1="37.82" x2="197.59" y2="13.97" xlink:href="#linear-gradient-67"/><linearGradient id="linear-gradient-69" x1="279.47" y1="124.29" x2="257.6" y2="78.03" xlink:href="#linear-gradient-67"/><linearGradient id="linear-gradient-70" x1="272.78" y1="127.76" x2="145.08" y2="-11.26" gradientUnits="userSpaceOnUse"><stop offset="0" stop-color="#4f24ff"/><stop offset="1" stop-color="#13d9e2"/></linearGradient><linearGradient id="linear-gradient-71" x1="244.22" y1="164.48" x2="189.61" y2="48.96" xlink:href="#linear-gradient-67"/><linearGradient id="linear-gradient-72" x1="189.05" y1="51.65" x2="173.75" y2="27.8" xlink:href="#linear-gradient-67"/><linearGradient id="linear-gradient-73" x1="255.63" y1="138.12" x2="233.76" y2="91.86" xlink:href="#linear-gradient-67"/><linearGradient id="linear-gradient-74" x1="248.95" y1="141.59" x2="121.24" y2="2.57" xlink:href="#linear-gradient-70"/><linearGradient id="linear-gradient-75" x1="268.05" y1="150.65" x2="213.44" y2="35.14" xlink:href="#linear-gradient-67"/><linearGradient id="linear-gradient-76" x1="212.88" y1="37.83" x2="197.58" y2="13.98" xlink:href="#linear-gradient-67"/><linearGradient id="linear-gradient-77" x1="279.46" y1="124.3" x2="257.59" y2="78.03" xlink:href="#linear-gradient-67"/><linearGradient id="linear-gradient-78" x1="272.77" y1="127.77" x2="145.07" y2="-11.26" xlink:href="#linear-gradient-70"/><linearGradient id="linear-gradient-79" x1="244.21" y1="164.48" x2="189.6" y2="48.97" xlink:href="#linear-gradient-67"/><linearGradient id="linear-gradient-80" x1="189.04" y1="51.66" x2="173.74" y2="27.81" xlink:href="#linear-gradient-67"/><linearGradient id="linear-gradient-81" x1="255.62" y1="138.13" x2="233.75" y2="91.86" xlink:href="#linear-gradient-67"/><linearGradient id="linear-gradient-82" x1="248.94" y1="141.6" x2="121.23" y2="2.57" xlink:href="#linear-gradient-70"/><linearGradient id="linear-gradient-83" x1="222.75" y1="362.17" x2="227.36" y2="355.28" gradientUnits="userSpaceOnUse"><stop offset="0" stop-color="#250eff"/><stop offset="1" stop-color="#13aee2"/></linearGradient><linearGradient id="linear-gradient-84" x1="211.17" y1="292.7" x2="216.35" y2="289.75" gradientTransform="matrix(0.87, -0.5, 0, 1.15, 41.83, 130.87)" xlink:href="#linear-gradient-12"/><linearGradient id="linear-gradient-85" x1="215.27" y1="292.2" x2="212.08" y2="290.34" gradientTransform="matrix(0.87, -0.5, 0, 1.15, 41.83, 130.87)" xlink:href="#linear-gradient-2"/><linearGradient id="linear-gradient-86" x1="173.74" y1="333.9" x2="178.35" y2="327.01" xlink:href="#linear-gradient-83"/><linearGradient id="linear-gradient-87" x1="154.6" y1="243.68" x2="159.79" y2="240.74" gradientTransform="matrix(0.87, -0.5, 0, 1.15, 41.83, 130.87)" xlink:href="#linear-gradient-12"/><linearGradient id="linear-gradient-88" x1="158.71" y1="243.19" x2="155.52" y2="241.33" gradientTransform="matrix(0.87, -0.5, 0, 1.15, 41.83, 130.87)" xlink:href="#linear-gradient-2"/><linearGradient id="linear-gradient-89" x1="175.04" y1="362.23" x2="179.65" y2="355.34" xlink:href="#linear-gradient-83"/><linearGradient id="linear-gradient-90" x1="156.07" y1="268.86" x2="161.26" y2="265.91" gradientTransform="matrix(0.87, -0.5, 0, 1.15, 41.83, 130.87)" xlink:href="#linear-gradient-12"/><linearGradient id="linear-gradient-91" x1="160.18" y1="268.36" x2="156.99" y2="266.5" gradientTransform="matrix(0.87, -0.5, 0, 1.15, 41.83, 130.87)" xlink:href="#linear-gradient-2"/><linearGradient id="linear-gradient-92" x1="222.75" y1="334.51" x2="227.36" y2="327.62" xlink:href="#linear-gradient-83"/><linearGradient id="linear-gradient-93" x1="211.19" y1="268.75" x2="216.38" y2="265.8" gradientTransform="matrix(0.87, -0.5, 0, 1.15, 41.83, 130.87)" xlink:href="#linear-gradient-12"/><linearGradient id="linear-gradient-94" x1="215.3" y1="268.25" x2="212.11" y2="266.39" gradientTransform="matrix(0.87, -0.5, 0, 1.15, 41.83, 130.87)" xlink:href="#linear-gradient-2"/><linearGradient id="linear-gradient-95" x1="225.01" y1="353.04" x2="173.31" y2="322.94" gradientUnits="userSpaceOnUse"><stop offset="0" stop-color="#3327ff"/><stop offset="1" stop-color="#13ffe2"/></linearGradient><linearGradient id="linear-gradient-96" x1="175.83" y1="353.66" x2="231.66" y2="321.94" xlink:href="#linear-gradient-95"/><linearGradient id="linear-gradient-97" x1="200.66" y1="344.29" x2="200.66" y2="331.22" gradientUnits="userSpaceOnUse"><stop offset="0" stop-color="#09007f"/><stop offset="1" stop-color="#2413d6"/></linearGradient><linearGradient id="linear-gradient-98" x1="203.99" y1="338.72" x2="196.29" y2="330.37" xlink:href="#linear-gradient-12"/><linearGradient id="linear-gradient-99" x1="200.66" y1="335.15" x2="200.66" y2="311.21" xlink:href="#linear-gradient-97"/><linearGradient id="linear-gradient-100" x1="209.75" y1="311.26" x2="195.22" y2="280.37" xlink:href="#linear-gradient-4"/><linearGradient id="linear-gradient-101" x1="225.88" y1="316.33" x2="189.86" y2="277.31" xlink:href="#linear-gradient-12"/><linearGradient id="linear-gradient-102" x1="178.74" y1="286.65" x2="178.74" y2="334.1" xlink:href="#linear-gradient-97"/><linearGradient id="linear-gradient-103" x1="206.67" y1="284.1" x2="156.57" y2="229.83" xlink:href="#linear-gradient-12"/><linearGradient id="linear-gradient-104" x1="192.14" y1="295.01" x2="159.56" y2="225.79" xlink:href="#linear-gradient-4"/></defs><title>workspace</title><g class="cls-1"><g id="Calque_1" data-name="Calque 1"><g id="_15" data-name="15"><g id="_Groupe_" data-name="&lt;Groupe&gt;"><path id="_Tracé_" data-name="&lt;Tracé&gt;" class="cls-2" d="M180.62,428.85,48.47,352.25c-18.08-10.48-15.78-28.73,5.14-40.76l111.74-64.25c20.92-12,52.53-13.29,70.61-2.81L368.11,321c18.08,10.48,15.78,28.73-5.14,40.76L251.23,426C230.31,438.07,198.7,439.33,180.62,428.85Z" transform="translate(-15.82 -3.73)"/></g><g id="_Groupe_2" data-name="&lt;Groupe&gt;"><path id="_Tracé_2" data-name="&lt;Tracé&gt;" class="cls-3" d="M400.76,322.85l-.14-21.3-25.8-5.24L239.26,217.73c-20.23-11.72-55.61-10.32-79,3.14l-125,71.9c-1,.59-2,1.2-2.94,1.81l-16.45,5V319h0c.16,7.27,4.64,14.2,13.63,19.41l147.87,85.71c20.23,11.73,55.6,10.33,79-3.13l125-71.9c13-7.49,19.57-17.12,19.37-26.21Z" transform="translate(-15.82 -3.73)"/><path id="_Tracé_3" data-name="&lt;Tracé&gt;" class="cls-4" d="M177.33,404.73,29.46,319C9.22,307.28,11.8,286.87,35.21,273.4l125-71.89c23.41-13.46,58.79-14.87,79-3.14l147.87,85.71c20.23,11.73,17.66,32.15-5.75,45.61l-125,71.9C232.93,415.05,197.56,416.46,177.33,404.73Z" transform="translate(-15.82 -3.73)"/></g></g><g id="_14" data-name="14"><g id="_Groupe_3" data-name="&lt;Groupe&gt;"><path id="_Tracé_4" data-name="&lt;Tracé&gt;" class="cls-5" d="M194.58,212.86v70.22a2.72,2.72,0,0,0,.79,1.93h0a3,3,0,0,0,.71.52l3.72,2.69,1.67-4.28,59.06-33.76A4.81,4.81,0,0,0,263,246V193.38Z" transform="translate(-15.82 -3.73)"/><path id="_Tracé_5" data-name="&lt;Tracé&gt;" class="cls-6" d="M266.79,184.08v64.65a4.85,4.85,0,0,1-2.44,4.2l-61.77,35.3a2.8,2.8,0,0,1-4.19-2.41V215.59Z" transform="translate(-15.82 -3.73)"/><path id="_Tracé_6" data-name="&lt;Tracé&gt;" class="cls-5" d="M287,265.58V335.8a2.69,2.69,0,0,0,.79,1.92h0a2.72,2.72,0,0,0,.71.51l3.72,2.7,1.66-4.28L353,302.91a4.82,4.82,0,0,0,2.44-4.19V243.66Z" transform="translate(-15.82 -3.73)"/><path id="_Tracé_7" data-name="&lt;Tracé&gt;" class="cls-6" d="M359.21,236.8v64.65a4.82,4.82,0,0,1-2.44,4.19L295,340.94a2.79,2.79,0,0,1-4.19-2.41V268.31Z" transform="translate(-15.82 -3.73)"/><path id="_Tracé_8" data-name="&lt;Tracé&gt;" class="cls-7" d="M368.45,247.51a2.16,2.16,0,0,0,0-.36V243.7l-11-4.33L253.34,179c-2.43-1.4-6.67-1.25-9.48.35L189.94,210l-3.27-1v4.83h0a2.87,2.87,0,0,0,1.58,2.07l113.52,65.82c2.42,1.4,6.67,1.25,9.48-.35l54.86-31.14a4.13,4.13,0,0,0,2.3-2.73h0Z" transform="translate(-15.82 -3.73)"/><path id="_Tracé_9" data-name="&lt;Tracé&gt;" class="cls-8" d="M301.81,278,188.29,212.14c-2.42-1.4-2.1-3.83.71-5.43l54.86-31.14c2.81-1.59,7-1.75,9.48-.34L366.85,241c2.43,1.4,2.11,3.84-.7,5.43l-54.86,31.14C308.48,279.2,304.23,279.36,301.81,278Z" transform="translate(-15.82 -3.73)"/><polygon id="_Tracé_10" data-name="&lt;Tracé&gt;" class="cls-5" points="212.97 260 212.97 256.21 271.18 289.91 271.18 293.58 212.97 260"/><polygon id="_Tracé_11" data-name="&lt;Tracé&gt;" class="cls-9" points="212.97 256.21 230.67 245.84 271.18 269.11 271.18 289.91 212.97 256.21"/></g><path id="_Tracé_12" data-name="&lt;Tracé&gt;" class="cls-10" d="M293.1,266.75l-89.39-51.52c-1.56-.9-1.36-2.47.45-3.5l44.66-25.33a6.81,6.81,0,0,1,6.11-.22l89.4,51.52c1.56.91,1.36,2.47-.46,3.5l-44.66,25.33A6.81,6.81,0,0,1,293.1,266.75Z" transform="translate(-15.82 -3.73)"/></g><g id="_13" data-name="13"><g id="_Groupe_4" data-name="&lt;Groupe&gt;"><path id="_Tracé_13" data-name="&lt;Tracé&gt;" class="cls-11" d="M332,212.16v26.28c0,2.39,3.32,4.34,7.43,4.34s7.43-1.95,7.43-4.34V212.16Z" transform="translate(-15.82 -3.73)"/><path id="_Tracé_14" data-name="&lt;Tracé&gt;" class="cls-12" d="M346.85,212.37c0,2.39-3.33,4.34-7.43,4.34s-7.43-2-7.43-4.34,3.32-4.34,7.43-4.34S346.85,210,346.85,212.37Z" transform="translate(-15.82 -3.73)"/></g><g id="_Groupe_5" data-name="&lt;Groupe&gt;"><path id="_Tracé_15" data-name="&lt;Tracé&gt;" class="cls-13" d="M335.52,204.15v7.42c0,1.26,1.74,2.28,3.9,2.28s3.9-1,3.9-2.28v-7.42Z" transform="translate(-15.82 -3.73)"/><path id="_Tracé_16" data-name="&lt;Tracé&gt;" class="cls-12" d="M343.32,204.2c0,1.26-1.75,2.28-3.9,2.28s-3.9-1-3.9-2.28,1.74-2.28,3.9-2.28S343.32,202.94,343.32,204.2Z" transform="translate(-15.82 -3.73)"/></g></g><g id="_12" data-name="12" class="cls-14"><g id="_Groupe_6" data-name="&lt;Groupe&gt;"><g id="_Groupe_7" data-name="&lt;Groupe&gt;"><g id="_Groupe_8" data-name="&lt;Groupe&gt;"><path id="_Tracé_17" data-name="&lt;Tracé&gt;" class="cls-15" d="M307.38,243.2l2.53,12.46c0,2.17,2.9,3.94,6.48,3.94s6.47-1.77,6.47-3.94l2.56-12.46Z" transform="translate(-15.82 -3.73)"/><path id="_Tracé_18" data-name="&lt;Tracé&gt;" class="cls-16" d="M325.36,243.57c-.41,2.63-4.41,4.59-9,4.59s-8.55-2-9-4.59c-.45-2.88,3.55-5.45,9-5.45S325.81,240.69,325.36,243.57Z" transform="translate(-15.82 -3.73)"/></g></g><path id="_Tracé_19" data-name="&lt;Tracé&gt;" class="cls-17" d="M323.41,243.44c-.32,1.79-3.45,3.12-7,3.12s-6.69-1.33-7-3.12c-.35-2,2.78-3.72,7-3.72S323.77,241.47,323.41,243.44Z" transform="translate(-15.82 -3.73)"/><path id="_Tracé_20" data-name="&lt;Tracé&gt;" class="cls-18" d="M310.32,244.84a11.75,11.75,0,0,1,12.16,0,11.52,11.52,0,0,1-12.16,0Z" transform="translate(-15.82 -3.73)"/></g><g id="_Groupe_9" data-name="&lt;Groupe&gt;"><path id="_Tracé_21" data-name="&lt;Tracé&gt;" class="cls-19" d="M323.06,259.44a3.86,3.86,0,0,1-2.37-1.06l-.22-.19a1.19,1.19,0,0,1-.17-1.69h0a1.2,1.2,0,0,1,1.69-.16l.23.19a3.14,3.14,0,0,0,.65.44,1.06,1.06,0,0,0,.05-.31v-4.24a1.17,1.17,0,0,0-.41-.9,11.21,11.21,0,0,0-1.54-1,1.21,1.21,0,0,1-.54-1.5h0a1.2,1.2,0,0,1,1.67-.62c1.27.68,3.22,2,3.22,3.61v4.67a2.87,2.87,0,0,1-1.41,2.55A2.06,2.06,0,0,1,323.06,259.44Z" transform="translate(-15.82 -3.73)"/></g></g><g id="_11" data-name="11"><g id="_Groupe_10" data-name="&lt;Groupe&gt;"><g id="_Groupe_11" data-name="&lt;Groupe&gt;"><path id="_Tracé_22" data-name="&lt;Tracé&gt;" class="cls-20" d="M306,238.4h0v-1.6l-7.53,1.29-47.7-27.43a2,2,0,0,0-1.81.08l-20.35,11.8-1.74-.39v1.76h0a.53.53,0,0,0,.31.43l51.17,29.43a2,2,0,0,0,1.8-.08L305.54,239A.72.72,0,0,0,306,238.4Z" transform="translate(-15.82 -3.73)"/><path id="_Tracé_23" data-name="&lt;Tracé&gt;" class="cls-21" d="M278.33,252.1l-51.17-29.43c-.47-.26-.41-.73.12-1l25.41-14.7a2,2,0,0,1,1.81-.07l51.17,29.43c.46.26.4.73-.13,1L280.13,252A2,2,0,0,1,278.33,252.1Z" transform="translate(-15.82 -3.73)"/><g id="_Groupe_12" data-name="&lt;Groupe&gt;"><g id="_Groupe_13" data-name="&lt;Groupe&gt;"><path id="_Tracé_24" data-name="&lt;Tracé&gt;" class="cls-22" d="M249.06,213.46l-1.45-.84c-.37-.21-.32-.57.1-.81l.59-.34a1.56,1.56,0,0,1,1.42-.06l1.44.83c.37.21.32.58-.1.82l-.59.34A1.57,1.57,0,0,1,249.06,213.46Z" transform="translate(-15.82 -3.73)"/><path id="_Tracé_25" data-name="&lt;Tracé&gt;" class="cls-22" d="M252.66,215.53l-1.45-.83c-.36-.21-.32-.58.1-.82l.59-.34a1.59,1.59,0,0,1,1.42-.06l1.45.83c.36.21.32.58-.1.82l-.59.34A1.56,1.56,0,0,1,252.66,215.53Z" transform="translate(-15.82 -3.73)"/><path id="_Tracé_26" data-name="&lt;Tracé&gt;" class="cls-22" d="M256.26,217.61l-1.44-.83c-.37-.21-.32-.58.1-.82l.58-.34a1.56,1.56,0,0,1,1.42-.06l1.45.83c.36.21.32.58-.1.82l-.59.34A1.59,1.59,0,0,1,256.26,217.61Z" transform="translate(-15.82 -3.73)"/><path id="_Tracé_27" data-name="&lt;Tracé&gt;" class="cls-22" d="M259.87,219.69l-1.45-.84c-.36-.21-.32-.57.1-.82l.59-.34a1.59,1.59,0,0,1,1.42-.06l1.44.84c.37.21.32.57-.1.82l-.58.34A1.59,1.59,0,0,1,259.87,219.69Z" transform="translate(-15.82 -3.73)"/><path id="_Tracé_28" data-name="&lt;Tracé&gt;" class="cls-22" d="M263.47,221.76l-1.44-.83c-.37-.21-.32-.58.1-.82l.58-.34a1.59,1.59,0,0,1,1.42-.06l1.45.83c.36.21.32.58-.1.82l-.59.34A1.59,1.59,0,0,1,263.47,221.76Z" transform="translate(-15.82 -3.73)"/><path id="_Tracé_29" data-name="&lt;Tracé&gt;" class="cls-22" d="M267.08,223.84l-1.45-.84c-.36-.21-.32-.57.1-.82l.59-.33a1.59,1.59,0,0,1,1.42-.07l1.44.84c.37.21.32.57-.1.82l-.58.34A1.59,1.59,0,0,1,267.08,223.84Z" transform="translate(-15.82 -3.73)"/><path id="_Tracé_30" data-name="&lt;Tracé&gt;" class="cls-22" d="M270.68,225.91l-1.45-.83c-.36-.21-.32-.58.1-.82l.59-.34a1.59,1.59,0,0,1,1.42-.06l1.45.83c.36.21.32.58-.1.82l-.59.34A1.56,1.56,0,0,1,270.68,225.91Z" transform="translate(-15.82 -3.73)"/><path id="_Tracé_31" data-name="&lt;Tracé&gt;" class="cls-22" d="M274.28,228l-1.44-.83c-.37-.21-.32-.58.1-.82l.59-.34a1.54,1.54,0,0,1,1.41-.06l1.45.83c.37.21.32.58-.1.82l-.59.34A1.59,1.59,0,0,1,274.28,228Z" transform="translate(-15.82 -3.73)"/><path id="_Tracé_32" data-name="&lt;Tracé&gt;" class="cls-22" d="M277.89,230.07l-1.45-.84c-.36-.21-.32-.57.1-.82l.59-.34a1.59,1.59,0,0,1,1.42-.06l1.45.84c.36.21.31.57-.11.82l-.58.34A1.59,1.59,0,0,1,277.89,230.07Z" transform="translate(-15.82 -3.73)"/><path id="_Tracé_33" data-name="&lt;Tracé&gt;" class="cls-22" d="M281.49,232.14l-1.44-.83c-.37-.21-.32-.58.1-.82l.58-.34a1.59,1.59,0,0,1,1.42-.06l1.45.83c.36.21.32.58-.1.82l-.59.34A1.59,1.59,0,0,1,281.49,232.14Z" transform="translate(-15.82 -3.73)"/><path id="_Tracé_34" data-name="&lt;Tracé&gt;" class="cls-22" d="M285.21,234.28l-1.45-.83c-.36-.21-.32-.58.1-.82l.59-.34a1.59,1.59,0,0,1,1.42-.06l1.44.83c.37.21.32.58-.1.82l-.58.34A1.59,1.59,0,0,1,285.21,234.28Z" transform="translate(-15.82 -3.73)"/><path id="_Tracé_35" data-name="&lt;Tracé&gt;" class="cls-22" d="M288.81,236.36l-1.45-.84c-.36-.21-.31-.57.11-.82l.58-.34a1.59,1.59,0,0,1,1.42-.06l1.45.84c.36.21.32.57-.1.82l-.59.34A1.59,1.59,0,0,1,288.81,236.36Z" transform="translate(-15.82 -3.73)"/><path id="_Tracé_36" data-name="&lt;Tracé&gt;" class="cls-22" d="M292.42,238.43,291,237.6c-.36-.21-.32-.58.1-.82l.59-.34a1.59,1.59,0,0,1,1.42-.06l1.44.83c.37.21.32.58-.1.82l-.59.34A1.54,1.54,0,0,1,292.42,238.43Z" transform="translate(-15.82 -3.73)"/><path id="_Tracé_37" data-name="&lt;Tracé&gt;" class="cls-22" d="M296,240.51l-1.45-.83c-.36-.21-.32-.58.1-.82l.59-.34a1.56,1.56,0,0,1,1.42-.06l1.45.83c.36.21.32.58-.1.82l-.59.34A1.59,1.59,0,0,1,296,240.51Z" transform="translate(-15.82 -3.73)"/><g id="_Groupe_14" data-name="&lt;Groupe&gt;"><path id="_Tracé_38" data-name="&lt;Tracé&gt;" class="cls-22" d="M244.91,215.9l-1.52-.88c-.36-.21-.32-.57.1-.82l1.76-1a1.56,1.56,0,0,1,1.42-.06l1.52.87c.36.21.32.58-.1.82l-1.76,1A1.59,1.59,0,0,1,244.91,215.9Z" transform="translate(-15.82 -3.73)"/><path id="_Tracé_39" data-name="&lt;Tracé&gt;" class="cls-22" d="M248.52,218,247,217.1c-.37-.21-.32-.58.1-.82l1.75-1a1.59,1.59,0,0,1,1.42-.06l1.52.88c.37.21.32.58-.1.82l-1.75,1A1.56,1.56,0,0,1,248.52,218Z" transform="translate(-15.82 -3.73)"/><path id="_Tracé_40" data-name="&lt;Tracé&gt;" class="cls-22" d="M252.16,220.07l-1.52-.88c-.37-.21-.32-.57.1-.81l1.75-1a1.59,1.59,0,0,1,1.42-.06l1.52.88c.37.21.32.57-.1.82l-1.75,1A1.59,1.59,0,0,1,252.16,220.07Z" transform="translate(-15.82 -3.73)"/><path id="_Tracé_41" data-name="&lt;Tracé&gt;" class="cls-22" d="M255.76,222.15l-1.52-.88c-.36-.21-.32-.58.1-.82l1.76-1a1.56,1.56,0,0,1,1.42-.06l1.52.87c.36.21.32.58-.1.82l-1.76,1A1.59,1.59,0,0,1,255.76,222.15Z" transform="translate(-15.82 -3.73)"/><path id="_Tracé_42" data-name="&lt;Tracé&gt;" class="cls-22" d="M259.37,224.22l-1.52-.87c-.37-.21-.32-.58.1-.82l1.75-1a1.59,1.59,0,0,1,1.42-.06l1.52.88c.36.21.32.57-.1.82l-1.75,1A1.59,1.59,0,0,1,259.37,224.22Z" transform="translate(-15.82 -3.73)"/><path id="_Tracé_43" data-name="&lt;Tracé&gt;" class="cls-22" d="M263,226.32l-1.52-.88c-.37-.21-.32-.57.1-.82l1.75-1a1.59,1.59,0,0,1,1.42-.06l1.52.87c.37.21.32.58-.1.82l-1.75,1A1.59,1.59,0,0,1,263,226.32Z" transform="translate(-15.82 -3.73)"/><path id="_Tracé_44" data-name="&lt;Tracé&gt;" class="cls-22" d="M266.61,228.4l-1.52-.88c-.36-.21-.32-.58.1-.82l1.76-1a1.56,1.56,0,0,1,1.42-.06l1.52.87c.36.21.31.58-.11.82l-1.75,1A1.62,1.62,0,0,1,266.61,228.4Z" transform="translate(-15.82 -3.73)"/><path id="_Tracé_45" data-name="&lt;Tracé&gt;" class="cls-22" d="M270.25,230.49l-1.52-.87c-.36-.21-.32-.58.1-.82l1.76-1a1.59,1.59,0,0,1,1.42-.06l1.52.88c.36.21.32.57-.1.82l-1.76,1A1.59,1.59,0,0,1,270.25,230.49Z" transform="translate(-15.82 -3.73)"/><path id="_Tracé_46" data-name="&lt;Tracé&gt;" class="cls-22" d="M273.86,232.57l-1.52-.88c-.37-.21-.32-.57.1-.82l1.75-1a1.59,1.59,0,0,1,1.42-.06l1.52.87c.37.21.32.58-.1.82l-1.75,1A1.59,1.59,0,0,1,273.86,232.57Z" transform="translate(-15.82 -3.73)"/><path id="_Tracé_47" data-name="&lt;Tracé&gt;" class="cls-22" d="M277.46,234.64l-1.52-.87c-.36-.21-.32-.58.1-.82l1.76-1a1.57,1.57,0,0,1,1.41-.06l1.53.88c.36.21.31.58-.11.82l-1.75,1A1.56,1.56,0,0,1,277.46,234.64Z" transform="translate(-15.82 -3.73)"/><path id="_Tracé_48" data-name="&lt;Tracé&gt;" class="cls-22" d="M281.1,236.74l-1.52-.87c-.36-.21-.32-.58.1-.82l1.76-1a1.59,1.59,0,0,1,1.42-.06l1.52.88c.36.21.31.57-.1.82l-1.76,1A1.59,1.59,0,0,1,281.1,236.74Z" transform="translate(-15.82 -3.73)"/><path id="_Tracé_49" data-name="&lt;Tracé&gt;" class="cls-22" d="M284.71,238.82l-1.52-.88c-.37-.21-.32-.57.1-.82l1.75-1a1.56,1.56,0,0,1,1.42-.06l1.52.87c.36.21.32.58-.1.82l-1.75,1A1.59,1.59,0,0,1,284.71,238.82Z" transform="translate(-15.82 -3.73)"/><path id="_Tracé_50" data-name="&lt;Tracé&gt;" class="cls-22" d="M288.31,240.89l-1.52-.87c-.36-.21-.32-.58.1-.82l1.76-1a1.57,1.57,0,0,1,1.41-.06l1.52.88c.37.21.32.58-.1.82l-1.75,1A1.56,1.56,0,0,1,288.31,240.89Z" transform="translate(-15.82 -3.73)"/><path id="_Tracé_51" data-name="&lt;Tracé&gt;" class="cls-22" d="M292,243l-1.52-.88c-.36-.21-.32-.57.1-.81l1.76-1a1.59,1.59,0,0,1,1.42-.06l1.52.88c.36.21.31.57-.11.82l-1.75,1A1.59,1.59,0,0,1,292,243Z" transform="translate(-15.82 -3.73)"/></g><g id="_Groupe_15" data-name="&lt;Groupe&gt;"><path id="_Tracé_52" data-name="&lt;Tracé&gt;" class="cls-22" d="M240.75,218.36l-1.52-.87c-.36-.21-.32-.58.1-.82l1.76-1a1.59,1.59,0,0,1,1.42-.06l1.52.88c.36.21.32.57-.1.82l-1.76,1A1.59,1.59,0,0,1,240.75,218.36Z" transform="translate(-15.82 -3.73)"/><path id="_Tracé_53" data-name="&lt;Tracé&gt;" class="cls-22" d="M244.36,220.44l-1.52-.88c-.37-.21-.32-.57.1-.82l1.75-1a1.56,1.56,0,0,1,1.42-.06l1.52.87c.37.21.32.58-.1.82l-1.75,1A1.59,1.59,0,0,1,244.36,220.44Z" transform="translate(-15.82 -3.73)"/><path id="_Tracé_54" data-name="&lt;Tracé&gt;" class="cls-22" d="M248,222.53l-1.52-.87c-.37-.21-.32-.58.1-.82l1.75-1a1.59,1.59,0,0,1,1.42-.06l1.52.88c.37.21.32.58-.1.82l-1.75,1A1.56,1.56,0,0,1,248,222.53Z" transform="translate(-15.82 -3.73)"/><path id="_Tracé_55" data-name="&lt;Tracé&gt;" class="cls-22" d="M251.6,224.61l-1.52-.88c-.36-.21-.32-.57.1-.81l1.76-1a1.59,1.59,0,0,1,1.42-.06l1.52.88c.36.21.32.57-.1.82l-1.76,1A1.59,1.59,0,0,1,251.6,224.61Z" transform="translate(-15.82 -3.73)"/><path id="_Tracé_56" data-name="&lt;Tracé&gt;" class="cls-22" d="M255.21,226.69l-1.52-.88c-.37-.21-.32-.58.1-.82l1.75-1a1.56,1.56,0,0,1,1.42-.06l1.52.87c.36.21.32.58-.1.82l-1.75,1A1.59,1.59,0,0,1,255.21,226.69Z" transform="translate(-15.82 -3.73)"/><path id="_Tracé_57" data-name="&lt;Tracé&gt;" class="cls-22" d="M258.85,228.78l-1.52-.87c-.37-.21-.32-.58.1-.82l1.75-1a1.59,1.59,0,0,1,1.42-.06l1.52.88c.37.21.32.58-.1.82l-1.75,1A1.56,1.56,0,0,1,258.85,228.78Z" transform="translate(-15.82 -3.73)"/><path id="_Tracé_58" data-name="&lt;Tracé&gt;" class="cls-22" d="M262.45,230.86l-1.52-.88c-.36-.21-.32-.57.1-.82l1.76-1a1.59,1.59,0,0,1,1.42-.06l1.52.87c.36.21.31.58-.1.82l-1.76,1A1.59,1.59,0,0,1,262.45,230.86Z" transform="translate(-15.82 -3.73)"/><path id="_Tracé_59" data-name="&lt;Tracé&gt;" class="cls-22" d="M266.09,233l-1.52-.88c-.36-.21-.32-.58.1-.82l1.76-1a1.56,1.56,0,0,1,1.42-.06l1.52.87c.36.21.32.58-.1.82l-1.76,1A1.59,1.59,0,0,1,266.09,233Z" transform="translate(-15.82 -3.73)"/><path id="_Tracé_60" data-name="&lt;Tracé&gt;" class="cls-22" d="M269.7,235l-1.52-.87c-.37-.21-.32-.58.1-.82l1.75-1a1.59,1.59,0,0,1,1.42-.06l1.52.88c.37.21.32.57-.1.82l-1.75,1A1.59,1.59,0,0,1,269.7,235Z" transform="translate(-15.82 -3.73)"/><path id="_Tracé_61" data-name="&lt;Tracé&gt;" class="cls-22" d="M273.3,237.11l-1.52-.88c-.36-.21-.32-.57.1-.82l1.76-1a1.59,1.59,0,0,1,1.42-.06l1.52.87c.36.21.31.58-.11.82l-1.75,1A1.59,1.59,0,0,1,273.3,237.11Z" transform="translate(-15.82 -3.73)"/><path id="_Tracé_62" data-name="&lt;Tracé&gt;" class="cls-22" d="M276.94,239.21l-1.52-.88c-.36-.21-.32-.58.1-.82l1.76-1a1.56,1.56,0,0,1,1.42-.06l1.52.87c.36.21.32.58-.1.82l-1.76,1A1.62,1.62,0,0,1,276.94,239.21Z" transform="translate(-15.82 -3.73)"/><path id="_Tracé_63" data-name="&lt;Tracé&gt;" class="cls-22" d="M280.55,241.28l-1.52-.87c-.37-.21-.32-.58.1-.82l1.75-1a1.59,1.59,0,0,1,1.42-.06l1.52.88c.36.21.32.57-.1.82l-1.75,1A1.59,1.59,0,0,1,280.55,241.28Z" transform="translate(-15.82 -3.73)"/><path id="_Tracé_64" data-name="&lt;Tracé&gt;" class="cls-22" d="M284.15,243.36l-1.52-.88c-.36-.21-.32-.57.1-.82l1.76-1a1.54,1.54,0,0,1,1.41-.06l1.53.87c.36.21.31.58-.11.82l-1.75,1A1.59,1.59,0,0,1,284.15,243.36Z" transform="translate(-15.82 -3.73)"/><path id="_Tracé_65" data-name="&lt;Tracé&gt;" class="cls-22" d="M287.79,245.45l-1.52-.87c-.36-.21-.32-.58.1-.82l1.76-1a1.59,1.59,0,0,1,1.42-.06l1.52.88c.36.21.31.58-.11.82l-1.75,1A1.56,1.56,0,0,1,287.79,245.45Z" transform="translate(-15.82 -3.73)"/></g><g id="_Groupe_16" data-name="&lt;Groupe&gt;"><path id="_Tracé_66" data-name="&lt;Tracé&gt;" class="cls-22" d="M240,222.87l-5.09-2.93c-.37-.21-.32-.57.1-.82l1.75-1a1.59,1.59,0,0,1,1.42-.06l5.09,2.93c.36.21.32.58-.1.82l-1.76,1A1.54,1.54,0,0,1,240,222.87Z" transform="translate(-15.82 -3.73)"/><path id="_Tracé_67" data-name="&lt;Tracé&gt;" class="cls-22" d="M243.65,225l-1.52-.87c-.36-.21-.32-.58.1-.82l1.76-1a1.59,1.59,0,0,1,1.42-.06l1.52.88c.36.21.32.57-.1.82l-1.76,1A1.56,1.56,0,0,1,243.65,225Z" transform="translate(-15.82 -3.73)"/><path id="_Tracé_68" data-name="&lt;Tracé&gt;" class="cls-22" d="M247.26,227.07l-1.52-.88c-.37-.21-.32-.57.1-.82l1.75-1a1.59,1.59,0,0,1,1.42-.06l1.52.87c.37.21.32.58-.1.82l-1.75,1A1.59,1.59,0,0,1,247.26,227.07Z" transform="translate(-15.82 -3.73)"/><path id="_Tracé_69" data-name="&lt;Tracé&gt;" class="cls-22" d="M250.86,229.14l-1.52-.87c-.36-.21-.32-.58.1-.82l1.76-1a1.59,1.59,0,0,1,1.42-.06l1.52.88c.36.21.31.58-.11.82l-1.75,1A1.56,1.56,0,0,1,250.86,229.14Z" transform="translate(-15.82 -3.73)"/><path id="_Tracé_70" data-name="&lt;Tracé&gt;" class="cls-22" d="M254.5,231.24l-1.52-.87c-.36-.21-.32-.58.1-.82l1.76-1a1.59,1.59,0,0,1,1.42-.06l1.52.88c.36.21.32.57-.1.82l-1.76,1A1.59,1.59,0,0,1,254.5,231.24Z" transform="translate(-15.82 -3.73)"/><path id="_Tracé_71" data-name="&lt;Tracé&gt;" class="cls-22" d="M258.11,233.32l-1.52-.88c-.37-.21-.32-.57.1-.82l1.75-1a1.56,1.56,0,0,1,1.42-.06l1.52.87c.36.21.32.58-.1.82l-1.75,1A1.59,1.59,0,0,1,258.11,233.32Z" transform="translate(-15.82 -3.73)"/><path id="_Tracé_72" data-name="&lt;Tracé&gt;" class="cls-22" d="M261.75,235.41l-1.52-.87c-.37-.21-.32-.58.1-.82l1.75-1a1.59,1.59,0,0,1,1.42-.06l1.52.88c.37.21.32.58-.1.82l-1.75,1A1.56,1.56,0,0,1,261.75,235.41Z" transform="translate(-15.82 -3.73)"/><path id="_Tracé_73" data-name="&lt;Tracé&gt;" class="cls-22" d="M265.35,237.49l-1.52-.88c-.36-.2-.32-.57.1-.81l1.76-1a1.59,1.59,0,0,1,1.42-.06l1.52.88c.36.21.31.57-.11.82l-1.75,1A1.59,1.59,0,0,1,265.35,237.49Z" transform="translate(-15.82 -3.73)"/><path id="_Tracé_74" data-name="&lt;Tracé&gt;" class="cls-22" d="M269,239.57l-1.52-.88c-.37-.21-.32-.58.1-.82l1.75-1a1.56,1.56,0,0,1,1.42-.06l1.52.87c.36.21.32.58-.1.82l-1.75,1A1.59,1.59,0,0,1,269,239.57Z" transform="translate(-15.82 -3.73)"/><path id="_Tracé_75" data-name="&lt;Tracé&gt;" class="cls-22" d="M272.6,241.66l-1.52-.87c-.37-.21-.32-.58.1-.82l1.75-1a1.59,1.59,0,0,1,1.42-.06l1.52.88c.36.21.32.58-.1.82l-1.75,1A1.56,1.56,0,0,1,272.6,241.66Z" transform="translate(-15.82 -3.73)"/><path id="_Tracé_76" data-name="&lt;Tracé&gt;" class="cls-22" d="M276.2,243.74l-1.52-.88c-.36-.21-.32-.57.1-.82l1.76-1A1.57,1.57,0,0,1,278,241l1.53.88c.36.2.31.57-.11.81l-1.75,1A1.59,1.59,0,0,1,276.2,243.74Z" transform="translate(-15.82 -3.73)"/><path id="_Tracé_77" data-name="&lt;Tracé&gt;" class="cls-22" d="M279.81,245.82l-1.52-.88c-.37-.21-.32-.58.1-.82l1.75-1a1.56,1.56,0,0,1,1.42-.06l1.52.87c.36.21.32.58-.1.82l-1.76,1A1.57,1.57,0,0,1,279.81,245.82Z" transform="translate(-15.82 -3.73)"/><path id="_Tracé_78" data-name="&lt;Tracé&gt;" class="cls-22" d="M279.24,250.35l-1.52-.88c-.37-.21-.32-.57.1-.82l6-3.45a1.59,1.59,0,0,1,1.42-.06l1.52.88c.36.21.32.57-.1.82l-6,3.45A1.59,1.59,0,0,1,279.24,250.35Z" transform="translate(-15.82 -3.73)"/></g><g id="_Groupe_17" data-name="&lt;Groupe&gt;"><path id="_Tracé_79" data-name="&lt;Tracé&gt;" class="cls-22" d="M232.2,223.26l-1.52-.88c-.36-.21-.32-.58.1-.82l1.75-1a1.56,1.56,0,0,1,1.42-.06l1.52.87c.37.21.32.58-.1.82l-1.75,1A1.59,1.59,0,0,1,232.2,223.26Z" transform="translate(-15.82 -3.73)"/><path id="_Tracé_80" data-name="&lt;Tracé&gt;" class="cls-22" d="M235.8,225.33l-1.52-.87c-.36-.21-.32-.58.1-.82l1.76-1a1.59,1.59,0,0,1,1.42-.06l1.52.88c.36.21.32.57-.1.82l-1.76,1A1.59,1.59,0,0,1,235.8,225.33Z" transform="translate(-15.82 -3.73)"/><path id="_Tracé_81" data-name="&lt;Tracé&gt;" class="cls-22" d="M239.44,227.43l-1.52-.88c-.36-.21-.31-.57.11-.82l1.75-1a1.59,1.59,0,0,1,1.42-.06l1.52.87c.36.21.32.58-.1.82l-1.76,1A1.59,1.59,0,0,1,239.44,227.43Z" transform="translate(-15.82 -3.73)"/><path id="_Tracé_82" data-name="&lt;Tracé&gt;" class="cls-22" d="M243.05,229.5l-1.52-.87c-.37-.21-.32-.58.1-.82l1.75-1a1.59,1.59,0,0,1,1.42-.06l1.52.88c.37.21.32.58-.1.82l-1.75,1A1.56,1.56,0,0,1,243.05,229.5Z" transform="translate(-15.82 -3.73)"/><path id="_Tracé_83" data-name="&lt;Tracé&gt;" class="cls-22" d="M257.54,237.85l-12.41-7.15c-.36-.21-.32-.57.1-.81l1.76-1a1.59,1.59,0,0,1,1.42-.06l12.4,7.15c.37.21.32.57-.1.82l-1.75,1A1.59,1.59,0,0,1,257.54,237.85Z" transform="translate(-15.82 -3.73)"/><path id="_Tracé_84" data-name="&lt;Tracé&gt;" class="cls-22" d="M261.14,239.93l-1.52-.88c-.36-.21-.32-.58.1-.82l1.76-1a1.56,1.56,0,0,1,1.42-.06l1.52.87c.36.21.32.58-.1.82l-1.76,1A1.59,1.59,0,0,1,261.14,239.93Z" transform="translate(-15.82 -3.73)"/><path id="_Tracé_85" data-name="&lt;Tracé&gt;" class="cls-22" d="M264.75,242l-1.52-.87c-.37-.21-.32-.58.1-.82l1.75-1a1.59,1.59,0,0,1,1.42-.06l1.52.88c.37.21.32.57-.1.82l-1.75,1A1.59,1.59,0,0,1,264.75,242Z" transform="translate(-15.82 -3.73)"/><path id="_Tracé_86" data-name="&lt;Tracé&gt;" class="cls-22" d="M268.39,244.1l-1.52-.88c-.37-.21-.32-.57.1-.82l1.75-1a1.59,1.59,0,0,1,1.42-.06l1.52.87c.37.21.32.58-.1.82l-1.75,1A1.59,1.59,0,0,1,268.39,244.1Z" transform="translate(-15.82 -3.73)"/><path id="_Tracé_87" data-name="&lt;Tracé&gt;" class="cls-22" d="M272,246.18l-1.52-.88c-.36-.21-.32-.58.1-.82l1.76-1a1.59,1.59,0,0,1,1.42-.07l1.52.88c.36.21.32.58-.1.82l-1.76,1A1.62,1.62,0,0,1,272,246.18Z" transform="translate(-15.82 -3.73)"/><path id="_Tracé_88" data-name="&lt;Tracé&gt;" class="cls-22" d="M275.6,248.25l-1.52-.87c-.37-.21-.32-.58.1-.82l1.75-1a1.59,1.59,0,0,1,1.42-.06l1.52.88c.36.21.32.57-.1.82l-1.75,1A1.59,1.59,0,0,1,275.6,248.25Z" transform="translate(-15.82 -3.73)"/></g></g><g id="_Groupe_18" data-name="&lt;Groupe&gt;"><path id="_Tracé_89" data-name="&lt;Tracé&gt;" class="cls-23" d="M249,212.88l-1.45-.83c-.36-.21-.31-.58.1-.82l.59-.34a1.59,1.59,0,0,1,1.42-.06l1.45.83c.36.21.32.58-.1.82l-.59.34A1.56,1.56,0,0,1,249,212.88Z" transform="translate(-15.82 -3.73)"/><path id="_Tracé_90" data-name="&lt;Tracé&gt;" class="cls-23" d="M252.6,215l-1.45-.83c-.37-.21-.32-.58.1-.82l.59-.34a1.56,1.56,0,0,1,1.42-.06l1.44.83c.37.21.32.58-.1.82l-.59.34A1.57,1.57,0,0,1,252.6,215Z" transform="translate(-15.82 -3.73)"/><path id="_Tracé_91" data-name="&lt;Tracé&gt;" class="cls-23" d="M256.2,217l-1.45-.84c-.36-.21-.32-.57.1-.82l.59-.34a1.59,1.59,0,0,1,1.42-.06l1.45.84c.36.21.32.57-.1.82l-.59.33A1.59,1.59,0,0,1,256.2,217Z" transform="translate(-15.82 -3.73)"/><path id="_Tracé_92" data-name="&lt;Tracé&gt;" class="cls-23" d="M259.8,219.11l-1.44-.83c-.37-.21-.32-.58.1-.82l.58-.34a1.59,1.59,0,0,1,1.42-.06l1.45.83c.36.21.32.58-.1.82l-.59.34A1.59,1.59,0,0,1,259.8,219.11Z" transform="translate(-15.82 -3.73)"/><path id="_Tracé_93" data-name="&lt;Tracé&gt;" class="cls-23" d="M263.41,221.19l-1.45-.84c-.36-.21-.32-.57.1-.82l.59-.34a1.59,1.59,0,0,1,1.42-.06l1.44.84c.37.21.32.57-.1.82l-.58.34A1.59,1.59,0,0,1,263.41,221.19Z" transform="translate(-15.82 -3.73)"/><path id="_Tracé_94" data-name="&lt;Tracé&gt;" class="cls-23" d="M267,223.26l-1.44-.83c-.37-.21-.32-.58.1-.82l.58-.34a1.59,1.59,0,0,1,1.42-.06l1.45.83c.36.21.32.58-.1.82l-.59.34A1.56,1.56,0,0,1,267,223.26Z" transform="translate(-15.82 -3.73)"/><path id="_Tracé_95" data-name="&lt;Tracé&gt;" class="cls-23" d="M270.62,225.34l-1.45-.83c-.36-.21-.32-.58.1-.82l.59-.34a1.56,1.56,0,0,1,1.42-.06l1.44.83c.37.21.32.58-.1.82l-.58.34A1.59,1.59,0,0,1,270.62,225.34Z" transform="translate(-15.82 -3.73)"/><path id="_Tracé_96" data-name="&lt;Tracé&gt;" class="cls-23" d="M274.22,227.41l-1.45-.83c-.36-.21-.32-.58.1-.82l.59-.34a1.59,1.59,0,0,1,1.42-.06l1.45.84c.36.21.32.57-.1.81l-.59.34A1.56,1.56,0,0,1,274.22,227.41Z" transform="translate(-15.82 -3.73)"/><path id="_Tracé_97" data-name="&lt;Tracé&gt;" class="cls-23" d="M277.82,229.49l-1.44-.83c-.37-.21-.32-.58.1-.82l.59-.34a1.57,1.57,0,0,1,1.41-.06l1.45.83c.37.21.32.58-.1.82l-.59.34A1.59,1.59,0,0,1,277.82,229.49Z" transform="translate(-15.82 -3.73)"/><path id="_Tracé_98" data-name="&lt;Tracé&gt;" class="cls-23" d="M281.43,231.57l-1.45-.84c-.36-.21-.32-.57.1-.82l.59-.34a1.59,1.59,0,0,1,1.42-.06l1.45.84c.36.21.31.57-.11.82l-.58.34A1.59,1.59,0,0,1,281.43,231.57Z" transform="translate(-15.82 -3.73)"/><path id="_Tracé_99" data-name="&lt;Tracé&gt;" class="cls-23" d="M285.14,233.71l-1.44-.84c-.37-.21-.32-.57.1-.82l.58-.34a1.59,1.59,0,0,1,1.42-.06l1.45.84c.36.21.32.57-.1.82l-.59.34A1.59,1.59,0,0,1,285.14,233.71Z" transform="translate(-15.82 -3.73)"/><path id="_Tracé_100" data-name="&lt;Tracé&gt;" class="cls-23" d="M288.75,235.78,287.3,235c-.36-.21-.32-.58.1-.82l.59-.34a1.59,1.59,0,0,1,1.42-.06l1.44.83c.37.21.32.58-.1.82l-.58.34A1.59,1.59,0,0,1,288.75,235.78Z" transform="translate(-15.82 -3.73)"/><path id="_Tracé_101" data-name="&lt;Tracé&gt;" class="cls-23" d="M292.35,237.86,290.9,237c-.36-.21-.31-.57.11-.81l.58-.34a1.56,1.56,0,0,1,1.42-.06l1.45.83c.36.21.32.58-.1.82l-.59.34A1.59,1.59,0,0,1,292.35,237.86Z" transform="translate(-15.82 -3.73)"/><path id="_Tracé_102" data-name="&lt;Tracé&gt;" class="cls-23" d="M296,239.93l-1.45-.83c-.36-.21-.32-.58.1-.82l.59-.34a1.59,1.59,0,0,1,1.42-.06l1.44.83c.37.21.32.58-.1.82l-.59.34A1.54,1.54,0,0,1,296,239.93Z" transform="translate(-15.82 -3.73)"/><g id="_Groupe_19" data-name="&lt;Groupe&gt;"><path id="_Tracé_103" data-name="&lt;Tracé&gt;" class="cls-23" d="M244.85,215.32l-1.52-.87c-.36-.21-.32-.58.1-.82l1.75-1a1.59,1.59,0,0,1,1.42-.06l1.52.88c.37.21.32.57-.1.82l-1.75,1A1.56,1.56,0,0,1,244.85,215.32Z" transform="translate(-15.82 -3.73)"/><path id="_Tracé_104" data-name="&lt;Tracé&gt;" class="cls-23" d="M248.45,217.4l-1.52-.88c-.36-.21-.32-.57.1-.82l1.76-1a1.59,1.59,0,0,1,1.42-.06l1.52.87c.36.21.32.58-.1.82l-1.76,1A1.59,1.59,0,0,1,248.45,217.4Z" transform="translate(-15.82 -3.73)"/><path id="_Tracé_105" data-name="&lt;Tracé&gt;" class="cls-23" d="M252.09,219.5l-1.52-.88c-.36-.21-.31-.58.11-.82l1.75-1a1.56,1.56,0,0,1,1.42-.06l1.52.87c.36.21.32.58-.1.82l-1.76,1A1.59,1.59,0,0,1,252.09,219.5Z" transform="translate(-15.82 -3.73)"/><path id="_Tracé_106" data-name="&lt;Tracé&gt;" class="cls-23" d="M255.7,221.57l-1.52-.87c-.37-.21-.32-.58.1-.82l1.75-1a1.59,1.59,0,0,1,1.42-.06l1.52.88c.37.21.32.57-.1.82l-1.75,1A1.59,1.59,0,0,1,255.7,221.57Z" transform="translate(-15.82 -3.73)"/><path id="_Tracé_107" data-name="&lt;Tracé&gt;" class="cls-23" d="M259.3,223.65l-1.52-.88c-.36-.21-.32-.57.1-.82l1.76-1a1.56,1.56,0,0,1,1.42-.06l1.52.87c.36.21.32.58-.1.82l-1.76,1A1.59,1.59,0,0,1,259.3,223.65Z" transform="translate(-15.82 -3.73)"/><path id="_Tracé_108" data-name="&lt;Tracé&gt;" class="cls-23" d="M262.94,225.74l-1.52-.87c-.36-.21-.32-.58.1-.82l1.76-1a1.59,1.59,0,0,1,1.42-.06l1.52.88c.36.21.32.58-.1.82l-1.76,1A1.56,1.56,0,0,1,262.94,225.74Z" transform="translate(-15.82 -3.73)"/><path id="_Tracé_109" data-name="&lt;Tracé&gt;" class="cls-23" d="M266.55,227.82l-1.52-.88c-.37-.2-.32-.57.1-.81l1.75-1a1.59,1.59,0,0,1,1.42-.06l1.52.88c.37.21.32.57-.1.82l-1.75,1A1.59,1.59,0,0,1,266.55,227.82Z" transform="translate(-15.82 -3.73)"/><path id="_Tracé_110" data-name="&lt;Tracé&gt;" class="cls-23" d="M270.19,229.92l-1.52-.88c-.37-.21-.32-.57.1-.82l1.75-1a1.56,1.56,0,0,1,1.42-.06l1.52.87c.37.21.32.58-.1.82l-1.75,1A1.59,1.59,0,0,1,270.19,229.92Z" transform="translate(-15.82 -3.73)"/><path id="_Tracé_111" data-name="&lt;Tracé&gt;" class="cls-23" d="M273.79,232l-1.52-.87c-.36-.21-.32-.58.1-.82l1.76-1a1.59,1.59,0,0,1,1.42-.06l1.52.88c.36.21.32.58-.1.82l-1.76,1A1.56,1.56,0,0,1,273.79,232Z" transform="translate(-15.82 -3.73)"/><path id="_Tracé_112" data-name="&lt;Tracé&gt;" class="cls-23" d="M277.4,234.07l-1.52-.88c-.37-.21-.32-.57.1-.82l1.75-1a1.59,1.59,0,0,1,1.42-.06l1.52.87c.37.21.32.58-.1.82l-1.75,1A1.59,1.59,0,0,1,277.4,234.07Z" transform="translate(-15.82 -3.73)"/><path id="_Tracé_113" data-name="&lt;Tracé&gt;" class="cls-23" d="M281,236.17l-1.52-.88c-.37-.21-.32-.58.1-.82l1.75-1a1.56,1.56,0,0,1,1.42-.06l1.52.87c.37.21.32.58-.1.82l-1.75,1A1.59,1.59,0,0,1,281,236.17Z" transform="translate(-15.82 -3.73)"/><path id="_Tracé_114" data-name="&lt;Tracé&gt;" class="cls-23" d="M284.64,238.24l-1.52-.87c-.36-.21-.32-.58.1-.82l1.76-1a1.59,1.59,0,0,1,1.42-.06l1.52.88c.36.21.31.57-.1.82l-1.76,1A1.56,1.56,0,0,1,284.64,238.24Z" transform="translate(-15.82 -3.73)"/><path id="_Tracé_115" data-name="&lt;Tracé&gt;" class="cls-23" d="M288.25,240.32l-1.52-.88c-.37-.21-.32-.57.1-.82l1.75-1a1.59,1.59,0,0,1,1.42-.06l1.52.87c.36.21.32.58-.1.82l-1.75,1A1.59,1.59,0,0,1,288.25,240.32Z" transform="translate(-15.82 -3.73)"/><path id="_Tracé_116" data-name="&lt;Tracé&gt;" class="cls-23" d="M291.89,242.42l-1.52-.88c-.37-.21-.32-.58.1-.82l1.75-1a1.56,1.56,0,0,1,1.42-.06l1.52.87c.37.21.32.58-.1.82l-1.75,1A1.59,1.59,0,0,1,291.89,242.42Z" transform="translate(-15.82 -3.73)"/></g><g id="_Groupe_20" data-name="&lt;Groupe&gt;"><path id="_Tracé_117" data-name="&lt;Tracé&gt;" class="cls-23" d="M240.69,217.79l-1.52-.88c-.36-.21-.32-.58.1-.82l1.75-1a1.56,1.56,0,0,1,1.42-.06l1.52.87c.37.21.32.58-.1.82l-1.75,1A1.59,1.59,0,0,1,240.69,217.79Z" transform="translate(-15.82 -3.73)"/><path id="_Tracé_118" data-name="&lt;Tracé&gt;" class="cls-23" d="M244.29,219.86l-1.52-.87c-.36-.21-.32-.58.1-.82l1.76-1a1.59,1.59,0,0,1,1.42-.06l1.52.88c.36.21.32.57-.1.82l-1.76,1A1.56,1.56,0,0,1,244.29,219.86Z" transform="translate(-15.82 -3.73)"/><path id="_Tracé_119" data-name="&lt;Tracé&gt;" class="cls-23" d="M247.93,222l-1.52-.88c-.36-.21-.31-.57.11-.82l1.75-1a1.59,1.59,0,0,1,1.42-.06l1.52.88c.36.2.32.57-.1.81l-1.76,1A1.59,1.59,0,0,1,247.93,222Z" transform="translate(-15.82 -3.73)"/><path id="_Tracé_120" data-name="&lt;Tracé&gt;" class="cls-23" d="M251.54,224l-1.52-.88c-.37-.21-.32-.58.1-.82l1.75-1a1.56,1.56,0,0,1,1.42-.06l1.52.87c.37.21.32.58-.1.82L253,224A1.59,1.59,0,0,1,251.54,224Z" transform="translate(-15.82 -3.73)"/><path id="_Tracé_121" data-name="&lt;Tracé&gt;" class="cls-23" d="M255.14,226.11l-1.52-.87c-.36-.21-.32-.58.1-.82l1.76-1a1.59,1.59,0,0,1,1.42-.06l1.52.88c.36.21.32.57-.1.82l-1.76,1A1.59,1.59,0,0,1,255.14,226.11Z" transform="translate(-15.82 -3.73)"/><path id="_Tracé_122" data-name="&lt;Tracé&gt;" class="cls-23" d="M258.78,228.21l-1.52-.88c-.36-.21-.31-.57.1-.82l1.76-1a1.59,1.59,0,0,1,1.42-.06l1.52.87c.36.21.32.58-.1.82l-1.76,1A1.59,1.59,0,0,1,258.78,228.21Z" transform="translate(-15.82 -3.73)"/><path id="_Tracé_123" data-name="&lt;Tracé&gt;" class="cls-23" d="M262.39,230.28l-1.52-.87c-.37-.21-.32-.58.1-.82l1.75-1a1.59,1.59,0,0,1,1.42-.06l1.52.88c.37.21.32.58-.1.82l-1.75,1A1.56,1.56,0,0,1,262.39,230.28Z" transform="translate(-15.82 -3.73)"/><path id="_Tracé_124" data-name="&lt;Tracé&gt;" class="cls-23" d="M266,232.38l-1.52-.87c-.36-.21-.32-.58.1-.82l1.75-1a1.59,1.59,0,0,1,1.42-.06l1.52.88c.37.21.32.57-.1.82l-1.75,1A1.59,1.59,0,0,1,266,232.38Z" transform="translate(-15.82 -3.73)"/><path id="_Tracé_125" data-name="&lt;Tracé&gt;" class="cls-23" d="M269.63,234.46l-1.52-.88c-.36-.21-.32-.57.1-.82l1.76-1a1.56,1.56,0,0,1,1.42-.06l1.52.87c.36.21.32.58-.1.82l-1.76,1A1.59,1.59,0,0,1,269.63,234.46Z" transform="translate(-15.82 -3.73)"/><path id="_Tracé_126" data-name="&lt;Tracé&gt;" class="cls-23" d="M273.24,236.53l-1.52-.87c-.37-.21-.32-.58.1-.82l1.75-1a1.59,1.59,0,0,1,1.42-.06l1.52.88c.37.21.32.58-.1.82l-1.75,1A1.56,1.56,0,0,1,273.24,236.53Z" transform="translate(-15.82 -3.73)"/><path id="_Tracé_127" data-name="&lt;Tracé&gt;" class="cls-23" d="M276.88,238.63l-1.52-.88c-.37-.2-.32-.57.1-.81l1.75-1a1.59,1.59,0,0,1,1.42-.06l1.52.88c.37.21.32.57-.1.82l-1.75,1A1.59,1.59,0,0,1,276.88,238.63Z" transform="translate(-15.82 -3.73)"/><path id="_Tracé_128" data-name="&lt;Tracé&gt;" class="cls-23" d="M280.48,240.71l-1.52-.88c-.36-.21-.32-.58.1-.82l1.76-1a1.56,1.56,0,0,1,1.42-.06l1.52.87c.36.21.32.58-.1.82l-1.76,1A1.59,1.59,0,0,1,280.48,240.71Z" transform="translate(-15.82 -3.73)"/><path id="_Tracé_129" data-name="&lt;Tracé&gt;" class="cls-23" d="M284.09,242.78l-1.52-.87c-.37-.21-.32-.58.1-.82l1.75-1a1.59,1.59,0,0,1,1.42-.06l1.52.88c.36.21.32.57-.1.82l-1.75,1A1.59,1.59,0,0,1,284.09,242.78Z" transform="translate(-15.82 -3.73)"/><path id="_Tracé_130" data-name="&lt;Tracé&gt;" class="cls-23" d="M287.73,244.88l-1.52-.88c-.37-.21-.32-.57.1-.82l1.75-1a1.59,1.59,0,0,1,1.42-.06L291,243c.37.2.32.57-.1.81l-1.75,1A1.59,1.59,0,0,1,287.73,244.88Z" transform="translate(-15.82 -3.73)"/></g><g id="_Groupe_21" data-name="&lt;Groupe&gt;"><path id="_Tracé_131" data-name="&lt;Tracé&gt;" class="cls-23" d="M239.91,222.3l-5.09-2.93c-.36-.21-.31-.58.1-.82l1.76-1a1.59,1.59,0,0,1,1.42-.06l5.09,2.93c.36.21.31.58-.11.82l-1.75,1A1.59,1.59,0,0,1,239.91,222.3Z" transform="translate(-15.82 -3.73)"/><path id="_Tracé_132" data-name="&lt;Tracé&gt;" class="cls-23" d="M243.59,224.42l-1.52-.88c-.37-.21-.32-.57.1-.82l1.75-1a1.56,1.56,0,0,1,1.42-.06l1.52.87c.37.21.32.58-.1.82l-1.75,1A1.59,1.59,0,0,1,243.59,224.42Z" transform="translate(-15.82 -3.73)"/><path id="_Tracé_133" data-name="&lt;Tracé&gt;" class="cls-23" d="M247.19,226.49l-1.52-.87c-.36-.21-.32-.58.1-.82l1.76-1a1.59,1.59,0,0,1,1.42-.06l1.52.88c.36.21.32.58-.1.82l-1.76,1A1.56,1.56,0,0,1,247.19,226.49Z" transform="translate(-15.82 -3.73)"/><path id="_Tracé_134" data-name="&lt;Tracé&gt;" class="cls-23" d="M250.8,228.57l-1.52-.88c-.37-.21-.32-.57.1-.82l1.75-1a1.59,1.59,0,0,1,1.42-.06l1.52.88c.37.2.32.57-.1.81l-1.75,1A1.59,1.59,0,0,1,250.8,228.57Z" transform="translate(-15.82 -3.73)"/><path id="_Tracé_135" data-name="&lt;Tracé&gt;" class="cls-23" d="M254.44,230.67l-1.52-.88c-.37-.21-.32-.58.1-.82l1.75-1a1.56,1.56,0,0,1,1.42-.06l1.52.87c.37.21.32.58-.1.82l-1.75,1A1.59,1.59,0,0,1,254.44,230.67Z" transform="translate(-15.82 -3.73)"/><path id="_Tracé_136" data-name="&lt;Tracé&gt;" class="cls-23" d="M258,232.74l-1.52-.87c-.36-.21-.32-.58.1-.82l1.76-1a1.59,1.59,0,0,1,1.42-.06l1.52.88c.36.21.32.57-.1.82l-1.76,1A1.56,1.56,0,0,1,258,232.74Z" transform="translate(-15.82 -3.73)"/><path id="_Tracé_137" data-name="&lt;Tracé&gt;" class="cls-23" d="M261.68,234.84l-1.52-.88c-.36-.21-.32-.57.1-.82l1.76-1a1.59,1.59,0,0,1,1.42-.06L265,233c.36.2.32.57-.1.81l-1.76,1A1.59,1.59,0,0,1,261.68,234.84Z" transform="translate(-15.82 -3.73)"/><path id="_Tracé_138" data-name="&lt;Tracé&gt;" class="cls-23" d="M265.29,236.92l-1.52-.88c-.37-.21-.32-.58.1-.82l1.75-1a1.56,1.56,0,0,1,1.42-.06l1.52.87c.37.21.32.58-.1.82l-1.75,1A1.59,1.59,0,0,1,265.29,236.92Z" transform="translate(-15.82 -3.73)"/><path id="_Tracé_139" data-name="&lt;Tracé&gt;" class="cls-23" d="M268.89,239l-1.52-.87c-.36-.21-.32-.58.1-.82l1.76-1a1.59,1.59,0,0,1,1.42-.06l1.52.88c.36.21.31.57-.11.82l-1.75,1A1.59,1.59,0,0,1,268.89,239Z" transform="translate(-15.82 -3.73)"/><path id="_Tracé_140" data-name="&lt;Tracé&gt;" class="cls-23" d="M272.53,241.09l-1.52-.88c-.36-.21-.32-.57.1-.82l1.76-1a1.59,1.59,0,0,1,1.42-.06l1.52.87c.36.21.32.58-.1.82L274,241A1.59,1.59,0,0,1,272.53,241.09Z" transform="translate(-15.82 -3.73)"/><path id="_Tracé_141" data-name="&lt;Tracé&gt;" class="cls-23" d="M276.14,243.16l-1.52-.87c-.37-.21-.32-.58.1-.82l1.75-1a1.59,1.59,0,0,1,1.42-.06l1.52.88c.37.21.32.58-.1.82l-1.75,1A1.56,1.56,0,0,1,276.14,243.16Z" transform="translate(-15.82 -3.73)"/><path id="_Tracé_142" data-name="&lt;Tracé&gt;" class="cls-23" d="M279.74,245.24l-1.52-.88c-.36-.2-.32-.57.1-.81l1.76-1a1.57,1.57,0,0,1,1.41-.06l1.53.88c.36.21.31.57-.11.82l-1.75,1A1.59,1.59,0,0,1,279.74,245.24Z" transform="translate(-15.82 -3.73)"/><path id="_Tracé_143" data-name="&lt;Tracé&gt;" class="cls-23" d="M279.17,249.77l-1.52-.87c-.36-.21-.32-.58.1-.82l6-3.45a1.56,1.56,0,0,1,1.42-.06l1.52.87c.36.21.31.58-.1.82l-6,3.45A1.56,1.56,0,0,1,279.17,249.77Z" transform="translate(-15.82 -3.73)"/></g><g id="_Groupe_22" data-name="&lt;Groupe&gt;"><path id="_Tracé_144" data-name="&lt;Tracé&gt;" class="cls-23" d="M232.14,222.68l-1.53-.88c-.36-.2-.31-.57.11-.81l1.75-1a1.59,1.59,0,0,1,1.42-.06l1.52.88c.36.21.32.57-.1.82l-1.76,1A1.57,1.57,0,0,1,232.14,222.68Z" transform="translate(-15.82 -3.73)"/><path id="_Tracé_145" data-name="&lt;Tracé&gt;" class="cls-23" d="M235.74,224.76l-1.52-.88c-.36-.21-.32-.58.1-.82l1.75-1a1.56,1.56,0,0,1,1.42-.06l1.52.87c.37.21.32.58-.1.82l-1.75,1A1.59,1.59,0,0,1,235.74,224.76Z" transform="translate(-15.82 -3.73)"/><path id="_Tracé_146" data-name="&lt;Tracé&gt;" class="cls-23" d="M239.38,226.85l-1.52-.87c-.36-.21-.32-.58.1-.82l1.75-1a1.59,1.59,0,0,1,1.42-.06l1.52.88c.37.21.32.58-.1.82l-1.75,1A1.56,1.56,0,0,1,239.38,226.85Z" transform="translate(-15.82 -3.73)"/><path id="_Tracé_147" data-name="&lt;Tracé&gt;" class="cls-23" d="M243,228.93l-1.52-.88c-.36-.21-.31-.57.11-.82l1.75-1a1.59,1.59,0,0,1,1.42-.06l1.52.87c.36.21.32.58-.1.82l-1.76,1A1.59,1.59,0,0,1,243,228.93Z" transform="translate(-15.82 -3.73)"/><path id="_Tracé_148" data-name="&lt;Tracé&gt;" class="cls-23" d="M257.48,237.28l-12.41-7.15c-.37-.21-.32-.58.1-.82l1.75-1a1.56,1.56,0,0,1,1.42-.06l12.41,7.14c.36.21.32.58-.1.82l-1.76,1A1.57,1.57,0,0,1,257.48,237.28Z" transform="translate(-15.82 -3.73)"/><path id="_Tracé_149" data-name="&lt;Tracé&gt;" class="cls-23" d="M261.08,239.35l-1.52-.87c-.37-.21-.32-.58.1-.82l1.75-1a1.59,1.59,0,0,1,1.42-.06l1.52.88c.37.21.32.57-.1.82l-1.75,1A1.59,1.59,0,0,1,261.08,239.35Z" transform="translate(-15.82 -3.73)"/><path id="_Tracé_150" data-name="&lt;Tracé&gt;" class="cls-23" d="M264.68,241.43l-1.52-.88c-.36-.21-.32-.57.1-.82l1.76-1a1.56,1.56,0,0,1,1.42-.06l1.52.87c.36.21.32.58-.1.82l-1.76,1A1.59,1.59,0,0,1,264.68,241.43Z" transform="translate(-15.82 -3.73)"/><path id="_Tracé_151" data-name="&lt;Tracé&gt;" class="cls-23" d="M268.32,243.52l-1.52-.87c-.36-.21-.31-.58.11-.82l1.75-1a1.59,1.59,0,0,1,1.42-.06l1.52.88c.36.21.32.58-.1.82l-1.76,1A1.56,1.56,0,0,1,268.32,243.52Z" transform="translate(-15.82 -3.73)"/><path id="_Tracé_152" data-name="&lt;Tracé&gt;" class="cls-23" d="M271.93,245.6l-1.52-.88c-.37-.21-.32-.57.1-.81l1.75-1a1.59,1.59,0,0,1,1.42-.06l1.52.88c.37.21.32.57-.1.82l-1.75,1A1.59,1.59,0,0,1,271.93,245.6Z" transform="translate(-15.82 -3.73)"/><path id="_Tracé_153" data-name="&lt;Tracé&gt;" class="cls-23" d="M275.53,247.68,274,246.8c-.36-.21-.32-.58.1-.82l1.76-1a1.56,1.56,0,0,1,1.42-.06l1.52.87c.36.21.32.58-.1.82l-1.76,1A1.59,1.59,0,0,1,275.53,247.68Z" transform="translate(-15.82 -3.73)"/></g></g></g></g><path id="_Tracé_154" data-name="&lt;Tracé&gt;" class="cls-23" d="M256,209.86c0,.46-.58.83-1.29.83s-1.29-.37-1.29-.83.58-.83,1.29-.83S256,209.4,256,209.86Z" transform="translate(-15.82 -3.73)"/></g><path id="_Tracé_155" data-name="&lt;Tracé&gt;" class="cls-23" d="M258.37,211.26c0,.46-.58.83-1.29.83s-1.29-.37-1.29-.83.58-.83,1.29-.83S258.37,210.81,258.37,211.26Z" transform="translate(-15.82 -3.73)"/></g><g id="_10" data-name="10"><path id="_Tracé_156" data-name="&lt;Tracé&gt;" class="cls-5" d="M175.79,186.17v71.77a2.82,2.82,0,0,1-.8,2h0a2.88,2.88,0,0,1-.72.52l-3.78,2.76-1.69-4.38-60.1-34.5A4.94,4.94,0,0,1,106.2,220L120,182.77Z" transform="translate(-15.82 -3.73)"/><path id="_Tracé_157" data-name="&lt;Tracé&gt;" class="cls-6" d="M125.08,182.77l-22.76,40.06a4.94,4.94,0,0,0,2.49,4.29l21.75,38.81,32.91-7.42,8.18,4.69a2.84,2.84,0,0,0,4.26-2.46V189Z" transform="translate(-15.82 -3.73)"/><path id="_Tracé_158" data-name="&lt;Tracé&gt;" class="cls-5" d="M129,213.45v71.77a2.82,2.82,0,0,1-.8,2h0a2.68,2.68,0,0,1-.72.53l-3.78,2.75L122,286.11l-60.1-34.5a5,5,0,0,1-2.48-4.29l15.16-39.46Z" transform="translate(-15.82 -3.73)"/><path id="_Tracé_159" data-name="&lt;Tracé&gt;" class="cls-6" d="M125.08,216.24V288a2.84,2.84,0,0,1-4.26,2.47l-13.15-7.55-25,20.95L80.88,306V267.55L58,254.4a4.94,4.94,0,0,1-2.49-4.29l36.19-42.25Z" transform="translate(-15.82 -3.73)"/><path id="_Tracé_160" data-name="&lt;Tracé&gt;" class="cls-5" d="M82.63,237.9v71.77a2.79,2.79,0,0,1-.81,2h0a2.88,2.88,0,0,1-.72.52l-3.78,2.76-1.7-4.38-35-20.2a5,5,0,0,1-2.48-4.29V229.8Z" transform="translate(-15.82 -3.73)"/><path id="_Tracé_161" data-name="&lt;Tracé&gt;" class="cls-6" d="M34.27,222.79v66.07a4.94,4.94,0,0,0,2.48,4.29l37.74,21.78a2.84,2.84,0,0,0,4.26-2.46V240.69Z" transform="translate(-15.82 -3.73)"/><path id="_Tracé_162" data-name="&lt;Tracé&gt;" class="cls-24" d="M27.93,232.13a2.16,2.16,0,0,1,0-.36v-3.53l8.14-2.83L141,164.27c2.47-1.44,6.78-1.28,9.64.35l29.75,17,3.33-1v4.94h0a3,3,0,0,1-1.61,2.12L70.62,252.82c-2.46,1.43-6.78,1.28-9.64-.35L30.27,234.94a4.25,4.25,0,0,1-2.34-2.79h0Z" transform="translate(-15.82 -3.73)"/><path id="_Tracé_163" data-name="&lt;Tracé&gt;" class="cls-8" d="M70.62,249l111.44-65.12c2.46-1.43,2.14-3.92-.72-5.55l-30.71-17.52c-2.86-1.63-7.17-1.79-9.64-.36L29.55,225.52c-2.46,1.44-2.14,3.92.72,5.55L61,248.6C63.84,250.23,68.16,250.39,70.62,249Z" transform="translate(-15.82 -3.73)"/><g id="_Groupe_23" data-name="&lt;Groupe&gt;"><polygon id="_Tracé_164" data-name="&lt;Tracé&gt;" class="cls-25" points="106.2 218.96 106.2 238.01 66.81 260.63 66.81 241.92 106.2 218.96"/></g><g id="_Groupe_24" data-name="&lt;Groupe&gt;"><polygon id="_Tracé_165" data-name="&lt;Tracé&gt;" class="cls-25" points="106.2 239.8 106.2 258.85 66.81 281.47 66.81 262.75 106.2 239.8"/></g><g id="_Groupe_25" data-name="&lt;Groupe&gt;"><polygon id="_Tracé_166" data-name="&lt;Tracé&gt;" class="cls-25" points="106.2 260.63 106.2 279.68 66.81 302.31 66.81 283.59 106.2 260.63"/></g><g id="_Groupe_26" data-name="&lt;Groupe&gt;"><polygon id="_Tracé_167" data-name="&lt;Tracé&gt;" class="cls-25" points="152.53 191.97 152.53 211.02 113.14 233.64 113.14 214.93 152.53 191.97"/></g><g id="_Groupe_27" data-name="&lt;Groupe&gt;"><polygon id="_Tracé_168" data-name="&lt;Tracé&gt;" class="cls-25" points="152.58 212.58 152.58 231.63 113.19 254.25 113.19 235.54 152.58 212.58"/></g><g id="_Groupe_28" data-name="&lt;Groupe&gt;"><polygon id="_Tracé_169" data-name="&lt;Tracé&gt;" class="cls-25" points="152.58 233.42 152.58 252.47 113.19 275.09 113.19 256.38 152.58 233.42"/></g></g><g id="_9" data-name="9"><g id="_Groupe_29" data-name="&lt;Groupe&gt;"><path id="_Tracé_170" data-name="&lt;Tracé&gt;" class="cls-26" d="M74.83,322.69l1.87,9.36c0,2.31,3.38,4.19,7.55,4.19s7.56-1.88,7.56-4.19l1.86-9.36Z" transform="translate(-15.82 -3.73)"/><path id="_Tracé_171" data-name="&lt;Tracé&gt;" class="cls-27" d="M94.91,314.76l-4.92.11a17.31,17.31,0,0,0-5.74-.94,16.82,16.82,0,0,0-6.42,1.2l-4.27.1v4.64c0,3.28,4.78,5.94,10.69,5.94S95,323.15,95,319.87Z" transform="translate(-15.82 -3.73)"/><path id="_Tracé_172" data-name="&lt;Tracé&gt;" class="cls-28" d="M84.25,313.93c4.42,0,8.22,1.49,9.85,3.62a3.83,3.83,0,0,0,.85-2.32c0-3.28-4.79-5.94-10.7-5.94S73.56,312,73.56,315.23a3.77,3.77,0,0,0,.85,2.32C76,315.42,79.83,313.93,84.25,313.93Z" transform="translate(-15.82 -3.73)"/><path id="_Tracé_transparent_" data-name="&lt;Tracé transparent&gt;" class="cls-25" d="M84.25,309.13c-6.07,0-11,2.73-11,6.1s4.91,6.09,11,6.09,11-2.73,11-6.09S90.32,309.13,84.25,309.13Zm0,10.87c-4.74,0-8.59-2.14-8.59-4.77s3.85-4.77,8.59-4.77,8.59,2.13,8.59,4.77S89,320,84.25,320Z" transform="translate(-15.82 -3.73)"/></g><g id="_Groupe_30" data-name="&lt;Groupe&gt;"><path id="_Tracé_173" data-name="&lt;Tracé&gt;" class="cls-29" d="M99.22,300.41h0l-8.67-46.64h0a6.35,6.35,0,0,0-12.56,0h-.1l-8.07,46.6h0a15,15,0,0,0-.52,3.75,15.19,15.19,0,1,0,30.38,0A15,15,0,0,0,99.22,300.41Z" transform="translate(-15.82 -3.73)"/></g></g><g id="_8" data-name="8"><g id="_Groupe_31" data-name="&lt;Groupe&gt;"><g id="_6" data-name="6"><g id="_Groupe_32" data-name="&lt;Groupe&gt;"><g id="_9-2" data-name="9"><path id="_Tracé_174" data-name="&lt;Tracé&gt;" class="cls-30" d="M136.36,185.8l-24.09-14.24a1.25,1.25,0,0,0-1.22-.12h0L84.55,186.7l26.61,26,26.35-15.18a1.65,1.65,0,0,0,.73-1.59l0-6.49A4.57,4.57,0,0,0,136.36,185.8Z" transform="translate(-15.82 -3.73)"/><path id="_Tracé_175" data-name="&lt;Tracé&gt;" class="cls-31" d="M109.93,212.61,85.84,198.38a4.62,4.62,0,0,1-1.92-3.68l0-6.49c0-1.41.86-2.06,1.92-1.45L110,201a4.6,4.6,0,0,1,1.92,3.67l0,6.49C111.85,212.58,111,213.23,109.93,212.61Z" transform="translate(-15.82 -3.73)"/><path id="_Tracé_176" data-name="&lt;Tracé&gt;" class="cls-32" d="M108.62,209.62,86.88,196.75a3,3,0,0,1-1.23-2.35v-3.8c0-.91.56-1.32,1.24-.93l21.73,12.87a3,3,0,0,1,1.23,2.36v3.79C109.85,209.6,109.3,210,108.62,209.62Z" transform="translate(-15.82 -3.73)"/><path id="_Tracé_177" data-name="&lt;Tracé&gt;" class="cls-33" d="M88.92,195.68a2.93,2.93,0,0,1-1.23-2.35v-3.19l-.8-.46c-.68-.4-1.23,0-1.23.92v3.8a2.9,2.9,0,0,0,1.22,2.35l21.74,12.88c.68.39,1.23,0,1.23-.93v-.61Z" transform="translate(-15.82 -3.73)"/></g><g id="_Groupe_33" data-name="&lt;Groupe&gt;"><g id="_Groupe_34" data-name="&lt;Groupe&gt;"><path id="_Tracé_178" data-name="&lt;Tracé&gt;" class="cls-34" d="M135.14,193.49h0a1,1,0,0,1,.7-1.15l4-1a1,1,0,0,1,1.15.7h0a1,1,0,0,1-.7,1.15l-4,1A1,1,0,0,1,135.14,193.49Z" transform="translate(-15.82 -3.73)"/></g><path id="_Tracé_179" data-name="&lt;Tracé&gt;" class="cls-35" d="M143.71,191.79a2,2,0,1,1-2-2A2,2,0,0,1,143.71,191.79Z" transform="translate(-15.82 -3.73)"/><g id="_Groupe_35" data-name="&lt;Groupe&gt;"><path id="_Tracé_180" data-name="&lt;Tracé&gt;" class="cls-36" d="M143,162.09H140.4l-.34,28c0,.57.74,1,1.66,1s1.65-.47,1.65-1Z" transform="translate(-15.82 -3.73)"/><path id="_Tracé_181" data-name="&lt;Tracé&gt;" class="cls-37" d="M143,162.09c0,.44-.59.8-1.31.8s-1.32-.36-1.32-.8.59-.79,1.32-.79S143,161.65,143,162.09Z" transform="translate(-15.82 -3.73)"/><path id="_Tracé_182" data-name="&lt;Tracé&gt;" class="cls-38" d="M143,161.3c0,.44-.59.79-1.31.79s-1.32-.35-1.32-.79.59-1.56,1.32-1.56S143,160.86,143,161.3Z" transform="translate(-15.82 -3.73)"/></g></g></g><path id="_Tracé_183" data-name="&lt;Tracé&gt;" class="cls-39" d="M105.26,213,83.52,200.09a3,3,0,0,1-1.23-2.36v-3.79c0-.91.55-1.32,1.23-.93l21.74,12.87a3,3,0,0,1,1.23,2.35V212C106.49,212.94,105.94,213.35,105.26,213Z" transform="translate(-15.82 -3.73)"/></g><g id="_2" data-name="2"><g id="_3" data-name="3" class="cls-40"><g id="_Groupe_36" data-name="&lt;Groupe&gt;"><path id="_Tracé_184" data-name="&lt;Tracé&gt;" class="cls-41" d="M92.51,140.6c.83,1.26,2,1.82,2.76,1.32,2.46-1.66,8.64-4.31,18.67,1l.31.17c10.51,5.69,16.9,15.21,19.53,19.81.84,1.47,2.2,2.37,3.21,2.1h0c1.26-.34,1.44-2.32.38-4.16-3.3-5.72-10.9-16.82-23-23.27l-.36-.18c-11.5-6-18.64-2.91-21.62-.88-.92.63-.85,2.55.16,4.09Z" transform="translate(-15.82 -3.73)"/></g><g id="_Groupe_37" data-name="&lt;Groupe&gt;"><path id="_Tracé_185" data-name="&lt;Tracé&gt;" class="cls-42" d="M98.35,151.63c.82,1.29,2,1.93,2.8,1.5,2.06-1.14,6.5-2.61,12.66.69l.22.12c6.15,3.39,10.38,9.69,12.39,13.22.82,1.44,2.13,2.31,3.1,2.05h0c1.22-.33,1.4-2.29.35-4.11-2.68-4.65-8.17-12.65-16.09-16.83-7.63-4-13-2.21-15.53-.74-1,.55-.92,2.49.09,4.08Z" transform="translate(-15.82 -3.73)"/></g><g id="_Groupe_38" data-name="&lt;Groupe&gt;"><path id="_Tracé_186" data-name="&lt;Tracé&gt;" class="cls-43" d="M123.55,174h0c1.25-.25,1.45-2.21.41-4.06-2-3.53-5.5-8.71-10.21-11.36-4.35-2.43-7.54-1.67-9.38-.69-1,.55-1,2.63.17,4.29v0c.84,1.22,2,1.81,2.77,1.41,1.28-.66,3.5-1.19,6.41.47,3.07,1.76,5.5,5.42,6.86,7.86C121.37,173.29,122.61,174.15,123.55,174Z" transform="translate(-15.82 -3.73)"/></g><path id="_Tracé_187" data-name="&lt;Tracé&gt;" class="cls-44" d="M108.72,171.76a11.23,11.23,0,0,0,5,8.65c2.83,1.71,5.16.55,5.18-2.61a11.19,11.19,0,0,0-5.11-8.73C111,167.44,108.73,168.66,108.72,171.76Z" transform="translate(-15.82 -3.73)"/></g><g id="_4" data-name="4"><g id="_4-2" data-name="4"><path id="_Tracé_188" data-name="&lt;Tracé&gt;" class="cls-45" d="M107,170.83h0a4.19,4.19,0,0,1,3,.65,11.15,11.15,0,0,1,5.19,8.77,3.74,3.74,0,0,1-1,2.73h0a4,4,0,0,1-1.42.78l-1.78,1L104,172.47l2-1.05A2.51,2.51,0,0,1,107,170.83Z" transform="translate(-15.82 -3.73)"/><path id="_Tracé_189" data-name="&lt;Tracé&gt;" class="cls-46" d="M100.49,160.2c1.87-1,5.11-1.77,9.52.66,4.78,2.65,8.35,7.86,10.36,11.41,1.06,1.86.85,3.84-.42,4.09l-.66.37-1.75,1-10.91-12.38a6,6,0,0,0-3.15.63c-.79.41-2-.17-2.81-1.41h0c-.31-.45-.53-.92.22-2l-3-.65Z" transform="translate(-15.82 -3.73)"/><path id="_Tracé_190" data-name="&lt;Tracé&gt;" class="cls-47" d="M94.69,149.47c2.73-1.45,8-2.83,15.35,1,8,4.18,13.61,12.26,16.32,16.93,1.07,1.83.89,3.83-.35,4.16-.1,0-.76.44-.86.45l-1.85,1-8.6-11.7-11.89-7.22a11.49,11.49,0,0,0-5.59,1.36c-.8.45-2-.19-2.84-1.49v0a.25.25,0,0,1,0-.07l-.76,0L92,151.33l1.51-1.17Z" transform="translate(-15.82 -3.73)"/><path id="_Tracé_191" data-name="&lt;Tracé&gt;" class="cls-48" d="M86.13,140.32l2.17-1.57c3-2.06,10.27-5.17,21.94.79l.36.18c12.33,6.45,20,17.6,23.38,23.35.84,1.44,1.06,2.71.46,3.49l-.6.61-.34.19a4.39,4.39,0,0,1-.84.42l-2,1.06L127.1,164l-14.61-16.81-8.19-4.4c-6.73-1.85-11.06.12-13,1.45-.77.51-2-.05-2.79-1.32h0a5,5,0,0,1-.76-1.93Z" transform="translate(-15.82 -3.73)"/></g><g id="_3-2" data-name="3"><g id="_Groupe_39" data-name="&lt;Groupe&gt;"><path id="_Tracé_192" data-name="&lt;Tracé&gt;" class="cls-49" d="M86.29,144.41c.83,1.25,2,1.82,2.76,1.31,2.46-1.66,8.64-4.31,18.67,1l.31.17c10.51,5.69,16.9,15.21,19.53,19.81.84,1.48,2.2,2.37,3.21,2.1h0c1.26-.34,1.45-2.32.38-4.16-3.3-5.72-10.9-16.81-23-23.26l-.36-.19c-11.5-6-18.64-2.91-21.62-.87-.92.62-.85,2.54.16,4.08Z" transform="translate(-15.82 -3.73)"/></g><g id="_Groupe_40" data-name="&lt;Groupe&gt;"><path id="_Tracé_193" data-name="&lt;Tracé&gt;" class="cls-50" d="M92.13,155.43c.82,1.3,2,1.94,2.8,1.5,2.06-1.13,6.5-2.61,12.66.69l.22.12c6.15,3.39,10.38,9.7,12.39,13.23.82,1.44,2.13,2.3,3.1,2h0c1.22-.33,1.4-2.29.35-4.11-2.68-4.64-8.17-12.65-16.09-16.82-7.63-4-13-2.22-15.53-.75-1,.55-.92,2.49.09,4.08Z" transform="translate(-15.82 -3.73)"/></g><g id="_Groupe_41" data-name="&lt;Groupe&gt;"><path id="_Tracé_194" data-name="&lt;Tracé&gt;" class="cls-51" d="M117.33,177.77h0c1.25-.25,1.45-2.2.41-4-2-3.54-5.5-8.72-10.21-11.36-4.35-2.44-7.54-1.68-9.38-.7-1,.56-1,2.64.17,4.3h0c.83,1.23,2,1.81,2.76,1.41,1.28-.65,3.5-1.19,6.41.47,3.08,1.76,5.5,5.42,6.86,7.87C115.15,177.1,116.39,178,117.33,177.77Z" transform="translate(-15.82 -3.73)"/></g><path id="_Tracé_195" data-name="&lt;Tracé&gt;" class="cls-52" d="M102.5,175.56a11.23,11.23,0,0,0,5,8.66c2.82,1.7,5.15.54,5.17-2.62a11.15,11.15,0,0,0-5.11-8.72C104.77,171.25,102.51,172.46,102.5,175.56Z" transform="translate(-15.82 -3.73)"/></g></g></g></g><g id="_Groupe_42" data-name="&lt;Groupe&gt;"><path id="_Tracé_196" data-name="&lt;Tracé&gt;" class="cls-53" d="M132.08,194.24l-1.43-.83h0l-10.77,6.16v2.22l2,3.41L132.55,199a.66.66,0,0,0,.3-.64v-2.64A1.88,1.88,0,0,0,132.08,194.24Z" transform="translate(-15.82 -3.73)"/><path id="_Tracé_197" data-name="&lt;Tracé&gt;" class="cls-54" d="M121.34,200.43l-1.46-.86v4.74l1.45.85c.43.25.78,0,.78-.59v-2.65A1.88,1.88,0,0,0,121.34,200.43Z" transform="translate(-15.82 -3.73)"/></g><g id="_Groupe_43" data-name="&lt;Groupe&gt;"><path id="_Tracé_198" data-name="&lt;Tracé&gt;" class="cls-55" d="M120.22,201l-1.43-.84h0l-1.84,1v2.22l2,3.41,1.79-1a.67.67,0,0,0,.3-.65v-2.64A1.88,1.88,0,0,0,120.22,201Z" transform="translate(-15.82 -3.73)"/><path id="_Tracé_199" data-name="&lt;Tracé&gt;" class="cls-54" d="M118.42,202.08l-1.47-.86V206l1.45.85c.43.25.78,0,.78-.59l0-2.64A1.88,1.88,0,0,0,118.42,202.08Z" transform="translate(-15.82 -3.73)"/></g></g><g id="_7" data-name="7"><g id="_Groupe_44" data-name="&lt;Groupe&gt;"><path id="_Tracé_200" data-name="&lt;Tracé&gt;" class="cls-56" d="M365.89,270l-12.28-7.13a2.38,2.38,0,0,0-2.3-.23h0l0,0-49.79,28.69,17,64.67L368,327.48c.83-.4,1.38-1.45,1.38-3l.08-47.58C369.5,274.26,367.88,271.16,365.89,270Z" transform="translate(-15.82 -3.73)"/><path id="_Tracé_201" data-name="&lt;Tracé&gt;" class="cls-57" d="M316.17,355.81l-12.28-7.12c-2-1.16-3.61-4.25-3.61-6.92l.09-47.58c0-2.66,1.62-3.88,3.62-2.72l12.28,7.12c2,1.16,3.61,4.25,3.6,6.91l-.08,47.58C319.79,355.74,318.17,357,316.17,355.81Z" transform="translate(-15.82 -3.73)"/><path id="_Tracé_202" data-name="&lt;Tracé&gt;" class="cls-58" d="M313.7,350.18l-7.86-4.55a5.54,5.54,0,0,1-2.3-4.43l0-42.52c0-1.7,1-2.48,2.32-1.74l7.86,4.56a5.54,5.54,0,0,1,2.31,4.42l0,42.52C316,350.14,315,350.92,313.7,350.18Z" transform="translate(-15.82 -3.73)"/><path id="_Tracé_203" data-name="&lt;Tracé&gt;" class="cls-59" d="M309.67,343.63a5.54,5.54,0,0,1-2.3-4.43l0-41.38-1.51-.87c-1.27-.74-2.31,0-2.31,1.74l0,42.52a5.56,5.56,0,0,0,2.3,4.43l7.87,4.55c1.27.74,2.31,0,2.31-1.74v-1.14Z" transform="translate(-15.82 -3.73)"/></g><path id="_Tracé_204" data-name="&lt;Tracé&gt;" class="cls-60" d="M309,353l-7.87-4.56a5.56,5.56,0,0,1-2.3-4.42l0-42.52c0-1.7,1-2.48,2.31-1.75l7.86,4.56a5.54,5.54,0,0,1,2.31,4.43l0,42.52C311.27,352.93,310.23,353.71,309,353Z" transform="translate(-15.82 -3.73)"/><g id="_Groupe_45" data-name="&lt;Groupe&gt;" class="cls-40"><path id="_Tracé_transparent_2" data-name="&lt;Tracé transparent&gt;" class="cls-61" d="M306.33,356.41a2.53,2.53,0,0,1-1.28-.37l-7.86-4.56a6.21,6.21,0,0,1-2.66-5l0-42.52a2.75,2.75,0,0,1,1.16-2.48,2.17,2.17,0,0,1,2.23.12l7.86,4.56a6.26,6.26,0,0,1,2.66,5l0,42.52a2.71,2.71,0,0,1-1.16,2.48A1.84,1.84,0,0,1,306.33,356.41Zm-9.67-53.8a.41.41,0,0,0-.24.06c-.21.12-.44.52-.45,1.25l0,42.52a4.83,4.83,0,0,0,1.95,3.81l7.86,4.56c.19.11.55.27.8.12s.45-.52.45-1.26l0-42.51a4.84,4.84,0,0,0-2-3.81l-7.87-4.56A1.16,1.16,0,0,0,296.66,302.61Z" transform="translate(-15.82 -3.73)"/></g><g id="_Groupe_46" data-name="&lt;Groupe&gt;" class="cls-40"><path id="_Tracé_transparent_3" data-name="&lt;Tracé transparent&gt;" class="cls-61" d="M289.05,366.29a2.61,2.61,0,0,1-1.28-.38l-7.86-4.56a6.26,6.26,0,0,1-2.66-5l0-42.52a2.71,2.71,0,0,1,1.16-2.48,2.15,2.15,0,0,1,2.22.12l7.86,4.56a6.21,6.21,0,0,1,2.66,5l0,42.52A2.75,2.75,0,0,1,290,366,1.86,1.86,0,0,1,289.05,366.29Zm-9.66-53.81a.48.48,0,0,0-.24.06c-.22.12-.45.52-.45,1.25l0,42.52a4.84,4.84,0,0,0,1.95,3.81l7.87,4.56a.87.87,0,0,0,.8.12c.21-.12.44-.52.45-1.25l0-42.52a4.83,4.83,0,0,0-1.95-3.81L280,312.66A1.37,1.37,0,0,0,279.39,312.48Z" transform="translate(-15.82 -3.73)"/></g><path id="_Tracé_205" data-name="&lt;Tracé&gt;" class="cls-62" d="M313.69,350.26l-7.86-4.56a5.53,5.53,0,0,1-2.3-4.42l0-42.52c0-1.7,1-2.48,2.32-1.74l7.86,4.55A5.54,5.54,0,0,1,316,306l0,42.52C316,350.22,315,351,313.69,350.26Z" transform="translate(-15.82 -3.73)"/></g><g id="_6-2" data-name="6"><g id="_Groupe_47" data-name="&lt;Groupe&gt;"><g id="_Groupe_48" data-name="&lt;Groupe&gt;"><path id="_Tracé_206" data-name="&lt;Tracé&gt;" class="cls-63" d="M239,198.15l-1.64-1.36c2.82-3.4,4.08-7,3.46-10-.5-2.37-2.16-4.28-4.95-5.68-7.31-3.67-14.94,6.59-15,6.69l-1.72-1.26c.35-.48,8.77-11.81,17.69-7.34,3.36,1.68,5.46,4.15,6.09,7.15C243.63,190,242.21,194.25,239,198.15Z" transform="translate(-15.82 -3.73)"/></g><path id="_Tracé_207" data-name="&lt;Tracé&gt;" class="cls-64" d="M238.38,201.13c1-2.11,1.76-3.76,1.76-3.76a31.12,31.12,0,0,0-3-1.62h0a3.93,3.93,0,0,0-3.77.48,11,11,0,0,0-5.25,8.73,4.21,4.21,0,0,0,1.19,3s1.76,2,3.46,2.12c.72,0,2.14-2.19,3.54-4.79A12.33,12.33,0,0,0,238.38,201.13Z" transform="translate(-15.82 -3.73)"/><path id="_Tracé_208" data-name="&lt;Tracé&gt;" class="cls-65" d="M241.59,200.53a11.49,11.49,0,0,1-5.33,8.94c-2.95,1.72-5.34.48-5.35-2.75a11.51,11.51,0,0,1,5.33-8.94C239.19,196.07,241.59,197.3,241.59,200.53Z" transform="translate(-15.82 -3.73)"/><path id="_Tracé_209" data-name="&lt;Tracé&gt;" class="cls-66" d="M241.59,201.62a9.16,9.16,0,0,1-4.23,7.11c-2.35,1.36-4.25.38-4.26-2.19a9.15,9.15,0,0,1,4.24-7.11C239.68,198.07,241.59,199.05,241.59,201.62Z" transform="translate(-15.82 -3.73)"/><path id="_Tracé_210" data-name="&lt;Tracé&gt;" class="cls-67" d="M220.39,190.42c1-2.11,1.76-3.76,1.76-3.76a31.12,31.12,0,0,0-3-1.62h0a4,4,0,0,0-3.77.48,11.07,11.07,0,0,0-5.25,8.74,4.19,4.19,0,0,0,1.19,3s1.85,2.15,3.78,2.22c.72,0,1.82-2.28,3.22-4.89A12.06,12.06,0,0,0,220.39,190.42Z" transform="translate(-15.82 -3.73)"/><path id="_Tracé_211" data-name="&lt;Tracé&gt;" class="cls-68" d="M223.6,189.82a11.51,11.51,0,0,1-5.33,9c-3,1.71-5.34.48-5.35-2.75a11.53,11.53,0,0,1,5.33-9C221.2,185.36,223.6,186.59,223.6,189.82Z" transform="translate(-15.82 -3.73)"/><path id="_Tracé_212" data-name="&lt;Tracé&gt;" class="cls-69" d="M221,191.34a5.86,5.86,0,0,1-2.72,4.57c-1.51.87-2.73.24-2.74-1.41a5.9,5.9,0,0,1,2.73-4.57C219.76,189.06,221,189.69,221,191.34Z" transform="translate(-15.82 -3.73)"/></g><g id="_Groupe_49" data-name="&lt;Groupe&gt;"><g id="_Groupe_50" data-name="&lt;Groupe&gt;"><path id="_Tracé_213" data-name="&lt;Tracé&gt;" class="cls-70" d="M215.81,207.76a.65.65,0,0,1-.92-.06l-2.14-2.47c-2-2.31-1.28-5.2-.41-6.84a.65.65,0,0,1,.94-.22h0a.63.63,0,0,1,.21.83c-.53,1-1.47,3.39.25,5.37l2.14,2.46a.66.66,0,0,1-.07.92Z" transform="translate(-15.82 -3.73)"/></g><circle id="_Tracé_214" data-name="&lt;Tracé&gt;" class="cls-71" cx="200.96" cy="204.21" r="2.29"/></g></g><g id="_5" data-name="5"><g id="_6-3" data-name="6"><g id="_Groupe_51" data-name="&lt;Groupe&gt;"><path id="_Tracé_215" data-name="&lt;Tracé&gt;" class="cls-72" d="M78.75,193.54v30.28c0,4.7-6.48,8.5-14.48,8.5s-14.47-3.8-14.47-8.5V193.54Z" transform="translate(-15.82 -3.73)"/><path id="_Tracé_216" data-name="&lt;Tracé&gt;" class="cls-73" d="M49.8,194.18c0,4.69,6.48,8.5,14.47,8.5s14.48-3.81,14.48-8.5-6.48-8.51-14.48-8.51S49.8,189.48,49.8,194.18Z" transform="translate(-15.82 -3.73)"/></g></g><path id="_Tracé_217" data-name="&lt;Tracé&gt;" class="cls-74" d="M54.21,193.57c0,2.92,4.51,5.28,10.06,5.28s10.07-2.36,10.07-5.28-4.51-5.28-10.07-5.28S54.21,190.65,54.21,193.57Z" transform="translate(-15.82 -3.73)"/><path id="_Tracé_218" data-name="&lt;Tracé&gt;" class="cls-75" d="M60.06,193.54c0,1.22,1.89,2.21,4.21,2.21s4.22-1,4.22-2.21-1.89-2.21-4.22-2.21S60.06,192.32,60.06,193.54Z" transform="translate(-15.82 -3.73)"/><path id="_Tracé_219" data-name="&lt;Tracé&gt;" class="cls-76" d="M64.27,227.68c5.85,0,10.59-2.79,10.59-6.22v-11.8l-.52-.28c-6-3-9.08,1.18-13.37,1.66-3.83.44-7.28-2.47-7.28-2.47v12.89C53.69,224.89,58.43,227.68,64.27,227.68Z" transform="translate(-15.82 -3.73)"/></g><g id="_4-3" data-name="4"><g id="_Groupe_52" data-name="&lt;Groupe&gt;"><g id="_Groupe_53" data-name="&lt;Groupe&gt;"><path id="_Tracé_220" data-name="&lt;Tracé&gt;" class="cls-77" d="M283.13,196.28v10c-.06.81-.32,2.87-1.6,3.69-.7.45-3.76,2.27-6.19,3.7l-2.72.42v1.78h0a1.68,1.68,0,0,0,.91,1.23l8.38,4.74a3.65,3.65,0,0,0,3.63,0c2.22-1.29,7.33-4.32,8.26-4.92,1.39-.89,1.58-3.24,1.61-3.87h0v-9.67Z" transform="translate(-15.82 -3.73)"/><path id="_Tracé_221" data-name="&lt;Tracé&gt;" class="cls-78" d="M293.88,212.3v-9.86l-12.29-7.09v10.18c-.05.81-.32,2.87-1.6,3.69-1,.61-4.67,2.79-6.87,4.07-.74.43-.71,1.43.42,2.14l8.38,4.74a3.65,3.65,0,0,0,3.63,0c2.22-1.3,5.79-3.39,6.72-4,1.39-.89,1.58-3.24,1.61-3.87Z" transform="translate(-15.82 -3.73)"/></g><g id="_Groupe_54" data-name="&lt;Groupe&gt;"><path id="_Tracé_222" data-name="&lt;Tracé&gt;" class="cls-79" d="M329.06,218.46l.12-61.83a5.94,5.94,0,0,0-2.48-4.72l-70.46-40.59a1.57,1.57,0,0,0-1.55-.14v0l-2.75,1.59,1.85,2.61,0,60a5.93,5.93,0,0,0,2.47,4.72L325,222.17l.68-.29,2.55-1.46h0A2.22,2.22,0,0,0,329.06,218.46Z" transform="translate(-15.82 -3.73)"/><path id="_Tracé_223" data-name="&lt;Tracé&gt;" class="cls-80" d="M324.17,222.12l-70.46-40.59a5.91,5.91,0,0,1-2.48-4.72l0-62.14c0-1.82,1.1-2.65,2.46-1.87l70.47,40.6a5.9,5.9,0,0,1,2.47,4.71l0,60.31C326.64,220.24,325.53,222.9,324.17,222.12Z" transform="translate(-15.82 -3.73)"/><path id="_Tracé_224" data-name="&lt;Tracé&gt;" class="cls-81" d="M322.42,216.87l-67.08-38.64a2.6,2.6,0,0,1-1.1-2.08l0-57.43c0-.8.49-1.17,1.09-.83l67.09,38.65a2.62,2.62,0,0,1,1.09,2.08l0,57.43C323.51,216.85,323,217.22,322.42,216.87Z" transform="translate(-15.82 -3.73)"/></g></g><g id="_Groupe_55" data-name="&lt;Groupe&gt;"><polygon id="_Tracé_225" data-name="&lt;Tracé&gt;" class="cls-82" points="298 199.04 294.2 196.84 294.19 163.04 297.99 165.24 298 199.04"/><polygon id="_Tracé_226" data-name="&lt;Tracé&gt;" class="cls-83" points="291.34 195.21 287.54 193.01 287.53 164.23 291.33 166.43 291.34 195.21"/><polygon id="_Tracé_227" data-name="&lt;Tracé&gt;" class="cls-84" points="284.59 191.28 280.79 189.09 280.78 166.59 284.58 168.78 284.59 191.28"/><polygon id="_Tracé_228" data-name="&lt;Tracé&gt;" class="cls-85" points="277.86 187.56 274.06 185.37 274.05 155.34 277.85 157.53 277.86 187.56"/><polygon id="_Tracé_229" data-name="&lt;Tracé&gt;" class="cls-86" points="271.12 183.64 267.32 181.45 267.31 158.94 271.11 161.13 271.12 183.64"/><polygon id="_Tracé_230" data-name="&lt;Tracé&gt;" class="cls-87" points="264.45 179.81 260.65 177.62 260.64 163.9 264.44 166.09 264.45 179.81"/><polygon id="_Tracé_231" data-name="&lt;Tracé&gt;" class="cls-88" points="257.71 175.88 253.91 173.69 253.9 149.93 257.7 152.12 257.71 175.88"/><polygon id="_Tracé_232" data-name="&lt;Tracé&gt;" class="cls-89" points="250.98 172.16 247.18 169.97 247.17 136.17 250.97 138.36 250.98 172.16"/></g></g><g id="_3-3" data-name="3"><g id="_2-2" data-name="2"><g id="_Groupe_56" data-name="&lt;Groupe&gt;"><g id="_Groupe_57" data-name="&lt;Groupe&gt;"><path id="_Tracé_233" data-name="&lt;Tracé&gt;" class="cls-90" d="M183.84,19.38l-4.57-6.57,11.68-7a10.62,10.62,0,0,1,1.51-.91l.26-.15v0c3.86-1.79,8.69-1.37,13.93,1.76a35.63,35.63,0,0,1,8.46,7.37l7.73-4.67a14.1,14.1,0,0,1,1.53-.92h0c5.05-2.62,11.5-2.17,18.48,2,15.89,9.5,28.56,34.62,28.3,56.11a47.36,47.36,0,0,1-.36,5.34c8.67,8.09,15,22.58,14.85,35.24-.09,7.43-2.39,12.83-6.05,15.55h0a11,11,0,0,1-1.65,1l-11.57,6.92-10.68-11.74.65-1.94L190.3,78.48c-11.55-6.91-20.76-25.16-20.57-40.78C169.88,25.47,175.76,18.52,183.84,19.38Z" transform="translate(-15.82 -3.73)"/><path id="_Tracé_234" data-name="&lt;Tracé&gt;" class="cls-91" d="M215.12,13.91a35.63,35.63,0,0,0-8.46-7.37C201.42,3.41,196.59,3,192.73,4.78v0l-.26.15a10.62,10.62,0,0,0-1.51.91l-11.68,7L183,18.1l20.71,6.1Z" transform="translate(-15.82 -3.73)"/><path id="_Tracé_235" data-name="&lt;Tracé&gt;" class="cls-92" d="M278,123.56a10.3,10.3,0,0,0,1.65-1h0c3.66-2.72,6-8.12,6.05-15.55.16-12.67-6.18-27.15-14.85-35.24l-13.34,8,1.78,42.84,7.14,7.85Z" transform="translate(-15.82 -3.73)"/><path id="_Tracé_236" data-name="&lt;Tracé&gt;" class="cls-93" d="M170.83,27.4C172.5,13.55,182,7.77,193.32,14.54a37.91,37.91,0,0,1,10.34,9.66c4.92-9.73,14.7-12.56,25.87-5.88,15.89,9.5,28.56,34.62,28.3,56.11a47.7,47.7,0,0,1-.36,5.35c8.67,8.09,15,22.57,14.85,35.23-.18,14.89-9.25,21.62-20.25,15L177,86.48c-11.55-6.91-20.76-25.16-20.57-40.78C156.55,33.31,162.57,26.31,170.83,27.4Z" transform="translate(-15.82 -3.73)"/></g><g id="_Groupe_58" data-name="&lt;Groupe&gt;" class="cls-40"><path id="_Tracé_237" data-name="&lt;Tracé&gt;" class="cls-94" d="M160,33.21l-4.57-6.57,11.69-7a11.53,11.53,0,0,1,1.5-.91l.26-.15,0,0c3.86-1.79,8.69-1.37,13.92,1.76a35.25,35.25,0,0,1,8.46,7.37L199,23.07a14,14,0,0,1,1.52-.92h0c5.05-2.62,11.49-2.17,18.47,2,15.9,9.5,28.57,34.62,28.3,56.11A45.13,45.13,0,0,1,247,85.6c8.68,8.1,15,22.58,14.86,35.24-.09,7.43-2.4,12.83-6.06,15.55h0a10.93,10.93,0,0,1-1.64,1l-11.57,6.92-10.69-11.74.65-1.94L166.47,92.31c-11.55-6.91-20.76-25.16-20.57-40.78C146.05,39.3,151.92,32.35,160,33.21Z" transform="translate(-15.82 -3.73)"/><path id="_Tracé_238" data-name="&lt;Tracé&gt;" class="cls-95" d="M191.28,27.74a35.25,35.25,0,0,0-8.46-7.37c-5.23-3.13-10.06-3.55-13.92-1.76l0,0-.26.15a11.53,11.53,0,0,0-1.5.91l-11.69,7,3.69,5.29,20.7,6.1Z" transform="translate(-15.82 -3.73)"/><path id="_Tracé_239" data-name="&lt;Tracé&gt;" class="cls-96" d="M254.13,137.39a10.21,10.21,0,0,0,1.64-1h0c3.66-2.72,6-8.12,6.06-15.55C262,108.18,255.65,93.7,247,85.61l-13.34,8,1.78,42.84,7.15,7.85Z" transform="translate(-15.82 -3.73)"/><path id="_Tracé_240" data-name="&lt;Tracé&gt;" class="cls-97" d="M147,41.23c1.68-13.85,11.17-19.63,22.49-12.86A37.77,37.77,0,0,1,179.82,38c4.92-9.73,14.7-12.56,25.87-5.88,15.9,9.5,28.57,34.62,28.3,56.11a45.45,45.45,0,0,1-.36,5.35c8.68,8.09,15,22.57,14.86,35.23-.18,14.89-9.25,21.62-20.26,15l-75.1-43.57c-11.55-6.91-20.76-25.16-20.57-40.78C132.71,47.14,138.74,40.14,147,41.23Z" transform="translate(-15.82 -3.73)"/></g></g><g id="_Groupe_59" data-name="&lt;Groupe&gt;"><g id="_Groupe_60" data-name="&lt;Groupe&gt;" class="cls-40"><path id="_Tracé_241" data-name="&lt;Tracé&gt;" class="cls-98" d="M183.83,19.38l-4.57-6.57,11.68-7a11.56,11.56,0,0,1,1.51-.9l.26-.16v0c3.86-1.79,8.69-1.37,13.93,1.76a35.63,35.63,0,0,1,8.45,7.37l7.74-4.67a14.1,14.1,0,0,1,1.53-.92h0c5.05-2.62,11.5-2.16,18.48,2,15.89,9.5,28.56,34.62,28.3,56.11a47.7,47.7,0,0,1-.36,5.35c8.67,8.09,15,22.57,14.85,35.23-.09,7.43-2.39,12.83-6,15.56h0a9.56,9.56,0,0,1-1.65,1l-11.57,6.92L255.7,118.73l.65-1.93L190.29,78.48c-11.55-6.91-20.76-25.16-20.57-40.78C169.87,25.48,175.75,18.52,183.83,19.38Z" transform="translate(-15.82 -3.73)"/><path id="_Tracé_242" data-name="&lt;Tracé&gt;" class="cls-99" d="M215.1,13.91a35.63,35.63,0,0,0-8.45-7.37C201.41,3.41,196.58,3,192.72,4.78v0l-.26.16a11.56,11.56,0,0,0-1.51.9l-11.68,7,3.68,5.3,20.71,6.1Z" transform="translate(-15.82 -3.73)"/><path id="_Tracé_243" data-name="&lt;Tracé&gt;" class="cls-100" d="M278,123.56a11,11,0,0,0,1.65-1h0c3.66-2.72,6-8.12,6-15.55.16-12.66-6.18-27.15-14.85-35.24l-13.34,8,1.78,42.85,7.14,7.85Z" transform="translate(-15.82 -3.73)"/><path id="_Tracé_244" data-name="&lt;Tracé&gt;" class="cls-101" d="M170.82,27.41C172.49,13.55,182,7.78,193.31,14.54a38,38,0,0,1,10.34,9.67c4.92-9.73,14.7-12.56,25.87-5.88,15.89,9.5,28.56,34.62,28.3,56.1a47.38,47.38,0,0,1-.36,5.35c8.67,8.09,15,22.57,14.85,35.24-.18,14.88-9.25,21.61-20.25,15L177,86.48c-11.55-6.9-20.76-25.16-20.57-40.77C156.54,33.31,162.56,26.32,170.82,27.41Z" transform="translate(-15.82 -3.73)"/></g><g id="_Groupe_61" data-name="&lt;Groupe&gt;" class="cls-40"><path id="_Tracé_245" data-name="&lt;Tracé&gt;" class="cls-102" d="M160,33.21l-4.57-6.57,11.69-7a11.45,11.45,0,0,1,1.5-.9l.26-.16,0,0c3.86-1.79,8.69-1.37,13.92,1.76a35.47,35.47,0,0,1,8.46,7.37L199,23.07a14,14,0,0,1,1.52-.92h0c5-2.62,11.49-2.16,18.47,2,15.9,9.5,28.57,34.62,28.3,56.11a45.3,45.3,0,0,1-.36,5.35c8.68,8.09,15,22.57,14.86,35.23-.09,7.44-2.4,12.83-6.06,15.56h0a9.48,9.48,0,0,1-1.64,1l-11.57,6.92-10.69-11.74.65-1.93-66-38.32c-11.55-6.91-20.76-25.16-20.57-40.78C146,39.31,151.91,32.35,160,33.21Z" transform="translate(-15.82 -3.73)"/><path id="_Tracé_246" data-name="&lt;Tracé&gt;" class="cls-103" d="M191.27,27.74a35.47,35.47,0,0,0-8.46-7.37c-5.23-3.13-10.06-3.55-13.92-1.76l0,0-.26.16a11.45,11.45,0,0,0-1.5.9l-11.69,7,3.69,5.3,20.7,6.1Z" transform="translate(-15.82 -3.73)"/><path id="_Tracé_247" data-name="&lt;Tracé&gt;" class="cls-104" d="M254.12,137.39a10.93,10.93,0,0,0,1.64-1h0c3.66-2.72,6-8.12,6.06-15.55C262,108.19,255.64,93.7,247,85.61l-13.34,8,1.78,42.85,7.15,7.85Z" transform="translate(-15.82 -3.73)"/><path id="_Tracé_248" data-name="&lt;Tracé&gt;" class="cls-105" d="M147,41.24c1.68-13.86,11.17-19.63,22.49-12.86A37.62,37.62,0,0,1,179.81,38c4.92-9.73,14.7-12.56,25.87-5.88,15.9,9.5,28.57,34.62,28.3,56.1a45.16,45.16,0,0,1-.36,5.35c8.68,8.09,15,22.57,14.86,35.24-.18,14.88-9.25,21.61-20.26,15l-75.1-43.57c-11.55-6.9-20.76-25.16-20.57-40.77C132.7,47.14,138.73,40.15,147,41.24Z" transform="translate(-15.82 -3.73)"/></g></g></g><g id="_Groupe_62" data-name="&lt;Groupe&gt;" class="cls-106"><path id="_Tracé_transparent_4" data-name="&lt;Tracé transparent&gt;" class="cls-107" d="M212.54,161.13a17.22,17.22,0,0,1-8.73-2.7l-75.1-43.56C116.83,107.76,107.33,89,107.52,73c.09-7.44,2.27-13.37,6.14-16.72a11.87,11.87,0,0,1,8.47-2.92c1.1-7,4.22-12,8.87-14.32,4.41-2.16,9.86-1.54,15.34,1.74a37.05,37.05,0,0,1,9.52,8.48,17.21,17.21,0,0,1,9.83-7.89c5.09-1.47,10.92-.37,16.87,3.19,16.21,9.69,29.18,35.35,28.91,57.2a48.2,48.2,0,0,1-.3,4.85c8.89,8.59,14.94,23.18,14.79,35.73-.1,8.31-3,14.64-7.82,17.36A11.31,11.31,0,0,1,212.54,161.13Zm-91-105.28a9.38,9.38,0,0,0-6.27,2.32C112,61,110.12,66.31,110,73c-.18,15.19,8.77,33,20,39.69l75.09,43.55c4.39,2.62,8.58,3.07,11.84,1.24,4.06-2.27,6.44-7.81,6.53-15.2.15-12.12-5.8-26.22-14.45-34.3l-.47-.44.08-.64a46.64,46.64,0,0,0,.35-5.2c.26-21.06-12.16-45.74-27.69-55-5.34-3.18-10.48-4.2-14.88-2.92-3.86,1.11-7,4-9.23,8.29l-.9,1.8L155,52.27a36.53,36.53,0,0,0-10-9.35c-4.8-2.87-9.28-3.43-13-1.63-4.11,2-6.83,6.83-7.64,13.57l-.16,1.26L123.05,56A10.62,10.62,0,0,0,121.57,55.85Z" transform="translate(-15.82 -3.73)"/></g></g><g id="_2-3" data-name="2"><g id="_Groupe_63" data-name="&lt;Groupe&gt;"><path id="_Tracé_249" data-name="&lt;Tracé&gt;" class="cls-108" d="M227.87,355.66a6.67,6.67,0,0,0-1.71-.56l0,0a2.56,2.56,0,0,0-1.68.4,6.37,6.37,0,0,0-3,5,2.48,2.48,0,0,0,.21,1.08h0a2.8,2.8,0,0,0,1.21,1.34,9.15,9.15,0,0,0,2.16.87l4.36-6.85A5,5,0,0,0,227.87,355.66Z" transform="translate(-15.82 -3.73)"/><path id="_Tracé_250" data-name="&lt;Tracé&gt;" class="cls-109" d="M230,358.5a6.42,6.42,0,0,1-3,5c-1.64,1-3,.26-3-1.53a6.37,6.37,0,0,1,3-5C228.69,356,230,356.71,230,358.5Z" transform="translate(-15.82 -3.73)"/><path id="_Tracé_251" data-name="&lt;Tracé&gt;" class="cls-110" d="M228.72,359.25a3.57,3.57,0,0,1-1.67,2.79c-.92.53-1.66.15-1.67-.86a3.6,3.6,0,0,1,1.67-2.79C228,357.86,228.72,358.24,228.72,359.25Z" transform="translate(-15.82 -3.73)"/></g><g id="_Groupe_64" data-name="&lt;Groupe&gt;"><path id="_Tracé_252" data-name="&lt;Tracé&gt;" class="cls-111" d="M178.87,327.39a6.61,6.61,0,0,0-1.72-.57l0,0a2.53,2.53,0,0,0-1.68.4,6.42,6.42,0,0,0-3,5,2.7,2.7,0,0,0,.21,1.08h0a2.8,2.8,0,0,0,1.21,1.33,9.09,9.09,0,0,0,2.16.88l4.37-6.86A5,5,0,0,0,178.87,327.39Z" transform="translate(-15.82 -3.73)"/><path id="_Tracé_253" data-name="&lt;Tracé&gt;" class="cls-112" d="M181,330.22a6.37,6.37,0,0,1-3,5c-1.64.94-3,.26-3-1.53a6.42,6.42,0,0,1,3-5C179.68,327.75,181,328.43,181,330.22Z" transform="translate(-15.82 -3.73)"/><path id="_Tracé_254" data-name="&lt;Tracé&gt;" class="cls-113" d="M179.72,331a3.59,3.59,0,0,1-1.67,2.78c-.92.54-1.67.15-1.67-.86a3.57,3.57,0,0,1,1.67-2.78C179,329.58,179.71,330,179.72,331Z" transform="translate(-15.82 -3.73)"/></g><g id="_Groupe_65" data-name="&lt;Groupe&gt;"><path id="_Tracé_255" data-name="&lt;Tracé&gt;" class="cls-114" d="M180.16,355.72a6.49,6.49,0,0,0-1.71-.57l0,0a2.56,2.56,0,0,0-1.68.4,6.37,6.37,0,0,0-3,5,2.48,2.48,0,0,0,.21,1.08h0a2.8,2.8,0,0,0,1.21,1.34,9.15,9.15,0,0,0,2.16.87l4.36-6.86A5,5,0,0,0,180.16,355.72Z" transform="translate(-15.82 -3.73)"/><path id="_Tracé_256" data-name="&lt;Tracé&gt;" class="cls-115" d="M182.31,358.56a6.4,6.4,0,0,1-3,5c-1.63.94-3,.26-3-1.53a6.39,6.39,0,0,1,3-5C181,356.08,182.31,356.76,182.31,358.56Z" transform="translate(-15.82 -3.73)"/><path id="_Tracé_257" data-name="&lt;Tracé&gt;" class="cls-116" d="M181,359.31a3.63,3.63,0,0,1-1.67,2.79c-.92.53-1.67.14-1.67-.86a3.6,3.6,0,0,1,1.67-2.79C180.26,357.91,181,358.3,181,359.31Z" transform="translate(-15.82 -3.73)"/></g><g id="_Groupe_66" data-name="&lt;Groupe&gt;"><path id="_Tracé_258" data-name="&lt;Tracé&gt;" class="cls-117" d="M227.87,328a6.49,6.49,0,0,0-1.71-.57l0,0a2.5,2.5,0,0,0-1.68.4,6.35,6.35,0,0,0-3,5,2.54,2.54,0,0,0,.21,1.08h0a2.8,2.8,0,0,0,1.21,1.33,8.92,8.92,0,0,0,2.16.88l4.36-6.86A5,5,0,0,0,227.87,328Z" transform="translate(-15.82 -3.73)"/><path id="_Tracé_259" data-name="&lt;Tracé&gt;" class="cls-118" d="M230,330.83a6.42,6.42,0,0,1-3,5c-1.64.94-3,.26-3-1.53a6.37,6.37,0,0,1,3-5C228.69,328.36,230,329,230,330.83Z" transform="translate(-15.82 -3.73)"/><path id="_Tracé_260" data-name="&lt;Tracé&gt;" class="cls-119" d="M228.72,331.58a3.57,3.57,0,0,1-1.67,2.79c-.92.54-1.66.15-1.67-.86a3.63,3.63,0,0,1,1.67-2.79C228,330.19,228.72,330.58,228.72,331.58Z" transform="translate(-15.82 -3.73)"/></g><g id="_Groupe_67" data-name="&lt;Groupe&gt;"><path id="_Tracé_261" data-name="&lt;Tracé&gt;" class="cls-120" d="M204.19,335.1l23.37,20.55c1.17,1,2.53,5.4-3.72,2.12h0l-46.32-26.55h0c-7-4.3-1.79-5.42.56-4.6l23,8C202,334.93,203.47,334.51,204.19,335.1Z" transform="translate(-15.82 -3.73)"/><path id="_Tracé_262" data-name="&lt;Tracé&gt;" class="cls-121" d="M198.39,335.1,175,355.65c-1.17,1-2.53,5.4,3.72,2.12h0l46.31-26.55h0c7-4.3,1.8-5.42-.55-4.6l-23,8C200.61,334.93,199.11,334.51,198.39,335.1Z" transform="translate(-15.82 -3.73)"/><path id="_Tracé_263" data-name="&lt;Tracé&gt;" class="cls-122" d="M208.7,339c0,2.92-3.6,5.3-8,5.3s-8-2.38-8-5.3,3.6-7.77,8-7.77S208.7,336.06,208.7,339Z" transform="translate(-15.82 -3.73)"/><path id="_Tracé_264" data-name="&lt;Tracé&gt;" class="cls-123" d="M206.56,335.1c0,2.15-2.64,3.89-5.9,3.89s-5.91-1.74-5.91-3.89,2.65-3.88,5.91-3.88S206.56,333,206.56,335.1Z" transform="translate(-15.82 -3.73)"/><g id="_Groupe_68" data-name="&lt;Groupe&gt;"><path id="_Tracé_265" data-name="&lt;Tracé&gt;" class="cls-124" d="M200.66,335.1h0a3.59,3.59,0,0,1-3.61-3.58V297a3.6,3.6,0,0,1,3.61-3.59h0a3.6,3.6,0,0,1,3.61,3.59v34.54A3.6,3.6,0,0,1,200.66,335.1Z" transform="translate(-15.82 -3.73)"/></g><path id="_Tracé_266" data-name="&lt;Tracé&gt;" class="cls-125" d="M232,286.76l-3.54-.27a14.06,14.06,0,0,0-1.54-1L218.47,281c-7.35-4-20-3.1-28.22,1.91l-11.32,6.93-8.77,2.8v5.53l0,0c0,1.59.94,3.09,3,4.17l18.95,10.47c4.32,2.33,11.75,1.83,16.6-1.12l16.64-9.89c4.21-2.56,6.44-5.73,6.64-8.73h0Z" transform="translate(-15.82 -3.73)"/><path id="_Tracé_267" data-name="&lt;Tracé&gt;" class="cls-126" d="M192.1,307.42,173.15,297c-4.33-2.33-3.91-6.61.94-9.56l16.16-9.89c8.23-5,20.87-5.87,28.22-1.91l8.46,4.56c7.36,4,6.64,11.25-1.59,16.26L208.7,306.3C203.85,309.25,196.42,309.75,192.1,307.42Z" transform="translate(-15.82 -3.73)"/><g id="_Groupe_69" data-name="&lt;Groupe&gt;"><g id="_Groupe_70" data-name="&lt;Groupe&gt;"><path id="_Tracé_268" data-name="&lt;Tracé&gt;" class="cls-127" d="M180.8,308.29a8.9,8.9,0,0,1-4.23-1,8.29,8.29,0,0,1-4-5l-.07-.57v-15.2a2.4,2.4,0,0,1,2.41-2.39h0a2.39,2.39,0,0,1,2.4,2.39V301.3a3.53,3.53,0,0,0,1.6,1.79,5.15,5.15,0,0,0,3.16.3,2.46,2.46,0,0,1,2.78,1.53h0a2.41,2.41,0,0,1-1.92,3.17A12.14,12.14,0,0,1,180.8,308.29Z" transform="translate(-15.82 -3.73)"/></g><path id="_Tracé_269" data-name="&lt;Tracé&gt;" class="cls-128" d="M186.17,228.12l-9.23-5.31c-3.33-1.91-6.39-2.17-8.84-1.08h0l-.24.12-.2.1-5.27,2.52,1.11,2.65a18.94,18.94,0,0,0-1.08,6.59l0,29.78c0,6.25,3.81,13.52,8.53,16.23l19.06,11,1.87,4.48,5.64-2.71v-.07c1.9-1,3.14-3.37,3.14-6.89l0-29.79C200.67,245.07,194.18,232.72,186.17,228.12Z" transform="translate(-15.82 -3.73)"/><path id="_Tracé_270" data-name="&lt;Tracé&gt;" class="cls-129" d="M186.58,294.53l-21.17-12.17c-4.71-2.72-8.53-10-8.52-16.23l0-29.78c0-10.62,6.52-15.5,14.53-10.89l9.22,5.3c8,4.61,14.5,17,14.49,27.58l0,29.78C195.12,294.37,191.29,297.24,186.58,294.53Z" transform="translate(-15.82 -3.73)"/></g></g></g></g></g></svg>